<?xml version="1.0" encoding="UTF-8" standalone="no"?>
<!DOCTYPE svg PUBLIC "-//W3C//DTD SVG 1.1//EN"
 "http://www.w3.org/Graphics/SVG/1.1/DTD/svg11.dtd">
<!-- Generated by graphviz version 2.43.0 (0)
 -->
<!-- Title: %3 Pages: 1 -->
<svg width="1168pt" height="939pt"
 viewBox="0.00 0.00 1167.64 939.09" xmlns="http://www.w3.org/2000/svg" xmlns:xlink="http://www.w3.org/1999/xlink">
<g id="graph0" class="graph" transform="scale(1 1) rotate(0) translate(4 935.09)">
<title>%3</title>
<g id="clust1" class="cluster">
<title>cluster_a</title>
<polygon fill="transparent" stroke="#777777" points="333.8,-528.33 333.8,-931.09 641.95,-931.09 641.95,-528.33 333.8,-528.33"/>
<text text-anchor="middle" x="367.8" y="-915.89" font-family="TeX Gyre Pagella" font-size="14.00">Node A</text>
</g>
<g id="clust2" class="cluster">
<title>cluster_b</title>
<polygon fill="transparent" stroke="#777777" points="512.84,0 512.84,-400.18 818.01,-400.18 818.01,0 512.84,0"/>
<text text-anchor="middle" x="783.51" y="-384.98" font-family="TeX Gyre Pagella" font-size="14.00">Node B</text>
</g>
<g id="clust3" class="cluster">
<title>cluster_c</title>
<polygon fill="transparent" stroke="#777777" points="769.18,-579.63 769.18,-878.78 1159.64,-878.78 1159.64,-579.63 769.18,-579.63"/>
<text text-anchor="middle" x="803.68" y="-863.58" font-family="TeX Gyre Pagella" font-size="14.00">Node C</text>
</g>
<g id="clust4" class="cluster">
<title>cluster_d</title>
<polygon fill="transparent" stroke="#777777" points="0,-31.14 0,-385.82 385.85,-385.82 385.85,-31.14 0,-31.14"/>
<text text-anchor="middle" x="192.93" y="-370.62" font-family="TeX Gyre Pagella" font-size="14.00">Node D</text>
</g>
<!-- A_R -->
<g id="node1" class="node">
<title>A_R</title>
<ellipse fill="none" stroke="black" stroke-width="2" cx="483.69" cy="-686.98" rx="28.68" ry="28.68"/>
<ellipse fill="none" stroke="black" stroke-width="2" cx="483.69" cy="-686.98" rx="32.7" ry="32.7"/>
<text text-anchor="middle" x="483.69" y="-683.28" font-family="TeX Gyre Pagella" font-size="14.00">A_R</text>
</g>
<!-- A_PS -->
<g id="node2" class="node">
<title>A_PS</title>
<ellipse fill="none" stroke="black" stroke-width="2" cx="523.84" cy="-896.64" rx="34.39" ry="34.39"/>
<text text-anchor="middle" x="523.84" y="-892.94" font-family="TeX Gyre Pagella" font-size="14.00">A_PS</text>
</g>
<!-- A_R&#45;&gt;A_PS -->
<g id="edge1" class="edge">
<title>A_R&#45;&gt;A_PS</title>
<path fill="none" stroke="#555555" d="M475,-718.41C475.07,-759.2 488.43,-829.66 503.38,-868.68"/>
</g>
<!-- A_R&#45;&gt;A_PS -->
<g id="edge21" class="edge">
<title>A_R&#45;&gt;A_PS</title>
<path fill="none" stroke="red" stroke-dasharray="5,2" d="M503.38,-712.97C517.25,-748.02 529.92,-810.78 532.18,-853.08"/>
<polygon fill="red" stroke="red" points="532.52,-863.1 527.68,-853.26 532.35,-858.11 532.18,-853.11 532.18,-853.11 532.18,-853.11 532.35,-858.11 536.68,-852.95 532.52,-863.1 532.52,-863.1"/>
<text text-anchor="middle" x="512.78" y="-771.83" font-family="Times,serif" font-size="14.00">T</text>
</g>
<!-- A_T -->
<g id="node3" class="node">
<title>A_T</title>
<ellipse fill="none" stroke="black" stroke-width="2" cx="614.65" cy="-555.63" rx="27.1" ry="27.1"/>
<text text-anchor="middle" x="614.65" y="-551.93" font-family="TeX Gyre Pagella" font-size="14.00">A_T</text>
</g>
<!-- A_R&#45;&gt;A_T -->
<g id="edge2" class="edge">
<title>A_R&#45;&gt;A_T</title>
<path fill="none" stroke="#555555" d="M512.96,-672.32C541.55,-649.85 582.98,-607.97 603.32,-580.71"/>
</g>
<!-- A_R&#45;&gt;A_T -->
<g id="edge30" class="edge">
<title>A_R&#45;&gt;A_T</title>
<path fill="none" stroke="green" stroke-dasharray="5,2" d="M498.26,-657.66C518.55,-631.7 554.74,-595.13 581.6,-573.3"/>
<polygon fill="green" stroke="green" points="589.6,-567.03 584.51,-576.74 585.67,-570.12 581.73,-573.2 581.73,-573.2 581.73,-573.2 585.67,-570.12 578.96,-569.66 589.6,-567.03 589.6,-567.03"/>
<text text-anchor="middle" x="534.43" y="-619.28" font-family="Times,serif" font-size="14.00">B</text>
</g>
<!-- A_R&#45;&gt;A_T -->
<g id="edge35" class="edge">
<title>A_R&#45;&gt;A_T</title>
<path fill="none" stroke="blue" stroke-dasharray="5,2" d="M506.8,-663.8C529.46,-641.07 563.99,-606.44 587.84,-582.52"/>
<polygon fill="blue" stroke="blue" points="595.18,-575.15 591.31,-585.41 591.65,-578.7 588.12,-582.24 588.12,-582.24 588.12,-582.24 591.65,-578.7 584.93,-579.06 595.18,-575.15 595.18,-575.15"/>
<text text-anchor="middle" x="552.82" y="-626.96" font-family="Times,serif" font-size="14.00">C</text>
</g>
<!-- A_X -->
<g id="node4" class="node">
<title>A_X</title>
<ellipse fill="none" stroke="black" stroke-width="2" cx="361.74" cy="-806.04" rx="27.9" ry="27.9"/>
<text text-anchor="middle" x="361.74" y="-802.34" font-family="TeX Gyre Pagella" font-size="14.00">A_X</text>
</g>
<!-- A_R&#45;&gt;A_X -->
<g id="edge3" class="edge">
<title>A_R&#45;&gt;A_X</title>
<path fill="none" stroke="#555555" d="M456.67,-705.76C432.58,-726.71 398.22,-760.38 378.06,-782.92"/>
</g>
<!-- A_Y -->
<g id="node5" class="node">
<title>A_Y</title>
<ellipse fill="none" stroke="black" stroke-width="2" cx="551.64" cy="-754.55" rx="27.1" ry="27.1"/>
<text text-anchor="middle" x="551.64" y="-750.85" font-family="TeX Gyre Pagella" font-size="14.00">A_Y</text>
</g>
<!-- A_R&#45;&gt;A_Y -->
<g id="edge4" class="edge">
<title>A_R&#45;&gt;A_Y</title>
<path fill="none" stroke="#555555" d="M507.08,-710.23C515.22,-718.32 524.26,-727.31 532.05,-735.07"/>
</g>
<!-- A_PS&#45;&gt;A_R -->
<g id="edge29" class="edge">
<title>A_PS&#45;&gt;A_R</title>
<path fill="none" stroke="green" stroke-dasharray="5,2" d="M522.41,-861.99C517.43,-825.16 506.43,-766.97 497.16,-727.9"/>
<polygon fill="green" stroke="green" points="494.72,-717.92 501.46,-726.57 495.91,-722.78 497.09,-727.63 497.09,-727.63 497.09,-727.63 495.91,-722.78 492.72,-728.7 494.72,-717.92 494.72,-717.92"/>
<text text-anchor="middle" x="515.28" y="-798.75" font-family="Times,serif" font-size="14.00">B</text>
</g>
<!-- A_PS&#45;&gt;A_R -->
<g id="edge34" class="edge">
<title>A_PS&#45;&gt;A_R</title>
<path fill="none" stroke="blue" stroke-dasharray="5,2" d="M512.36,-863.91C503.37,-827.77 492.07,-769.46 486.26,-729.73"/>
<polygon fill="blue" stroke="blue" points="484.88,-719.8 490.72,-729.09 485.57,-724.76 486.26,-729.71 486.26,-729.71 486.26,-729.71 485.57,-724.76 481.8,-730.33 484.88,-719.8 484.88,-719.8"/>
<text text-anchor="middle" x="493.81" y="-800.62" font-family="Times,serif" font-size="14.00">C</text>
</g>
<!-- B_T -->
<g id="node8" class="node">
<title>B_T</title>
<ellipse fill="none" stroke="black" stroke-width="2" cx="540.79" cy="-372.23" rx="27.9" ry="27.9"/>
<text text-anchor="middle" x="540.79" y="-368.53" font-family="TeX Gyre Pagella" font-size="14.00">B_T</text>
</g>
<!-- A_T&#45;&gt;B_T -->
<g id="edge17" class="edge">
<title>A_T&#45;&gt;B_T</title>
<path fill="none" stroke="#555555" stroke-dasharray="5,2" d="M609,-528.71C597.35,-492.93 572.15,-430.3 555.65,-396.11"/>
</g>
<!-- A_T&#45;&gt;B_T -->
<g id="edge31" class="edge">
<title>A_T&#45;&gt;B_T</title>
<path fill="none" stroke="green" stroke-dasharray="5,2" d="M600.07,-532.31C585.07,-501.36 562.7,-446.37 549.96,-409.6"/>
<polygon fill="green" stroke="green" points="546.63,-399.75 554.09,-407.78 548.23,-404.48 549.83,-409.22 549.83,-409.22 549.83,-409.22 548.23,-404.48 545.56,-410.66 546.63,-399.75 546.63,-399.75"/>
<text text-anchor="middle" x="569.51" y="-474.76" font-family="Times,serif" font-size="14.00">B</text>
</g>
<!-- C_T -->
<g id="node13" class="node">
<title>C_T</title>
<ellipse fill="none" stroke="black" stroke-width="2" cx="797.13" cy="-607.58" rx="27.9" ry="27.9"/>
<text text-anchor="middle" x="797.13" y="-603.88" font-family="TeX Gyre Pagella" font-size="14.00">C_T</text>
</g>
<!-- A_T&#45;&gt;C_T -->
<g id="edge18" class="edge">
<title>A_T&#45;&gt;C_T</title>
<path fill="none" stroke="#555555" stroke-dasharray="5,2" d="M639.45,-567.79C673.27,-579.97 733.66,-597.17 769.09,-604.73"/>
</g>
<!-- A_T&#45;&gt;C_T -->
<g id="edge36" class="edge">
<title>A_T&#45;&gt;C_T</title>
<path fill="none" stroke="blue" stroke-dasharray="5,2" d="M642.14,-558.36C674.14,-565.15 727.05,-579.99 762,-591.83"/>
<polygon fill="blue" stroke="blue" points="771.79,-595.23 760.87,-596.2 767.07,-593.59 762.35,-591.95 762.35,-591.95 762.35,-591.95 767.07,-593.59 763.83,-587.7 771.79,-595.23 771.79,-595.23"/>
<text text-anchor="middle" x="696.57" y="-578.89" font-family="Times,serif" font-size="14.00">C</text>
</g>
<!-- A_X&#45;&gt;A_R -->
<g id="edge20" class="edge">
<title>A_X&#45;&gt;A_R</title>
<path fill="none" stroke="red" stroke-dasharray="5,2" d="M385.2,-790.33C405.89,-772.69 435.87,-743.79 457.36,-720.98"/>
<polygon fill="red" stroke="red" points="464.3,-713.5 460.8,-723.9 460.9,-717.17 457.5,-720.83 457.5,-720.83 457.5,-720.83 460.9,-717.17 454.2,-717.77 464.3,-713.5 464.3,-713.5"/>
<text text-anchor="middle" x="416.28" y="-759.45" font-family="Times,serif" font-size="14.00">T</text>
</g>
<!-- B_R -->
<g id="node6" class="node">
<title>B_R</title>
<ellipse fill="none" stroke="black" stroke-width="2" cx="610.07" cy="-212.61" rx="28.68" ry="28.68"/>
<ellipse fill="none" stroke="black" stroke-width="2" cx="610.07" cy="-212.61" rx="32.7" ry="32.7"/>
<text text-anchor="middle" x="610.07" y="-208.91" font-family="TeX Gyre Pagella" font-size="14.00">B_R</text>
</g>
<!-- B_PS -->
<g id="node7" class="node">
<title>B_PS</title>
<ellipse fill="none" stroke="black" stroke-width="2" cx="618.33" cy="-34.45" rx="34.39" ry="34.39"/>
<text text-anchor="middle" x="618.33" y="-30.75" font-family="TeX Gyre Pagella" font-size="14.00">B_PS</text>
</g>
<!-- B_R&#45;&gt;B_PS -->
<g id="edge5" class="edge">
<title>B_R&#45;&gt;B_PS</title>
<path fill="none" stroke="#555555" d="M626.82,-184.31C634.65,-152.06 637.2,-99.51 632.65,-65.98"/>
</g>
<!-- B_R&#45;&gt;B_PS -->
<g id="edge33" class="edge">
<title>B_R&#45;&gt;B_PS</title>
<path fill="none" stroke="green" stroke-dasharray="5,2" d="M596.01,-182.88C591.67,-153.25 593.14,-107.56 599.08,-74.7"/>
<polygon fill="green" stroke="green" points="601.16,-64.52 603.57,-75.22 600.16,-69.42 599.16,-74.32 599.16,-74.32 599.16,-74.32 600.16,-69.42 594.75,-73.42 601.16,-64.52 601.16,-64.52"/>
<text text-anchor="middle" x="592.05" y="-132.59" font-family="Times,serif" font-size="14.00">B</text>
</g>
<!-- B_R&#45;&gt;B_T -->
<g id="edge6" class="edge">
<title>B_R&#45;&gt;B_T</title>
<path fill="none" stroke="#555555" d="M587.93,-236.92C571.01,-265.8 550.45,-313.69 542.08,-344.13"/>
</g>
<!-- B_R&#45;&gt;B_T -->
<g id="edge40" class="edge">
<title>B_R&#45;&gt;B_T</title>
<path fill="none" stroke="blue" stroke-dasharray="5,2" d="M607.44,-245.38C598.87,-274.21 581.09,-315.66 565.58,-343.29"/>
<polygon fill="blue" stroke="blue" points="560.43,-352.1 561.6,-341.19 562.96,-347.78 565.48,-343.47 565.48,-343.47 565.48,-343.47 562.96,-347.78 569.37,-345.74 560.43,-352.1 560.43,-352.1"/>
<text text-anchor="middle" x="580.51" y="-298.14" font-family="Times,serif" font-size="14.00">D</text>
</g>
<!-- B_X -->
<g id="node9" class="node">
<title>B_X</title>
<ellipse fill="none" stroke="black" stroke-width="2" cx="789.41" cy="-111.33" rx="28.7" ry="28.7"/>
<text text-anchor="middle" x="789.41" y="-107.63" font-family="TeX Gyre Pagella" font-size="14.00">B_X</text>
</g>
<!-- B_R&#45;&gt;B_X -->
<g id="edge7" class="edge">
<title>B_R&#45;&gt;B_X</title>
<path fill="none" stroke="#555555" d="M640.99,-201C676.89,-183.36 735.14,-150.36 766.97,-129.56"/>
</g>
<!-- B_R&#45;&gt;B_X -->
<g id="edge23" class="edge">
<title>B_R&#45;&gt;B_X</title>
<path fill="none" stroke="red" stroke-dasharray="5,2" d="M635.99,-192.13C666.73,-172.36 718.12,-143.21 752.88,-125.74"/>
<polygon fill="red" stroke="red" points="762.22,-121.14 755.24,-129.59 757.73,-123.35 753.25,-125.56 753.25,-125.56 753.25,-125.56 757.73,-123.35 751.26,-121.52 762.22,-121.14 762.22,-121.14"/>
<text text-anchor="middle" x="689.43" y="-162.74" font-family="Times,serif" font-size="14.00">T</text>
</g>
<!-- B_Y -->
<g id="node10" class="node">
<title>B_Y</title>
<ellipse fill="none" stroke="black" stroke-width="2" cx="678.62" cy="-207.26" rx="27.9" ry="27.9"/>
<text text-anchor="middle" x="678.62" y="-203.56" font-family="TeX Gyre Pagella" font-size="14.00">B_Y</text>
</g>
<!-- B_R&#45;&gt;B_Y -->
<g id="edge8" class="edge">
<title>B_R&#45;&gt;B_Y</title>
<path fill="none" stroke="#555555" d="M642.74,-210.06C645.36,-209.86 648,-209.65 650.58,-209.45"/>
</g>
<!-- B_PS&#45;&gt;B_R -->
<g id="edge22" class="edge">
<title>B_PS&#45;&gt;B_R</title>
<path fill="none" stroke="red" stroke-dasharray="5,2" d="M611.29,-68.55C608.36,-97.45 606.31,-139.05 606.2,-170.12"/>
<polygon fill="red" stroke="red" points="606.24,-180.22 601.7,-170.23 606.22,-175.22 606.2,-170.22 606.2,-170.22 606.2,-170.22 606.22,-175.22 610.7,-170.2 606.24,-180.22 606.24,-180.22"/>
<text text-anchor="middle" x="603.74" y="-123.13" font-family="Times,serif" font-size="14.00">T</text>
</g>
<!-- B_PS&#45;&gt;B_R -->
<g id="edge39" class="edge">
<title>B_PS&#45;&gt;B_R</title>
<path fill="none" stroke="blue" stroke-dasharray="5,2" d="M622.19,-69.05C622.43,-98.11 620.63,-139.71 617.86,-170.66"/>
<polygon fill="blue" stroke="blue" points="616.89,-180.71 613.38,-170.32 617.37,-175.73 617.85,-170.76 617.85,-170.76 617.85,-170.76 617.37,-175.73 622.33,-171.19 616.89,-180.71 616.89,-180.71"/>
<text text-anchor="middle" x="614.03" y="-123.65" font-family="Times,serif" font-size="14.00">D</text>
</g>
<!-- B_T&#45;&gt;B_R -->
<g id="edge32" class="edge">
<title>B_T&#45;&gt;B_R</title>
<path fill="none" stroke="green" stroke-dasharray="5,2" d="M551.92,-346.59C563.03,-320.98 580.26,-281.29 593.08,-251.75"/>
<polygon fill="green" stroke="green" points="597.08,-242.55 597.23,-253.51 595.09,-247.13 593.1,-251.72 593.1,-251.72 593.1,-251.72 595.09,-247.13 588.97,-249.93 597.08,-242.55 597.08,-242.55"/>
<text text-anchor="middle" x="567" y="-302.97" font-family="Times,serif" font-size="14.00">B</text>
</g>
<!-- D_T -->
<g id="node18" class="node">
<title>D_T</title>
<ellipse fill="none" stroke="black" stroke-width="2" cx="357.26" cy="-318.51" rx="28.7" ry="28.7"/>
<text text-anchor="middle" x="357.26" y="-314.81" font-family="TeX Gyre Pagella" font-size="14.00">D_T</text>
</g>
<!-- B_T&#45;&gt;D_T -->
<g id="edge19" class="edge">
<title>B_T&#45;&gt;D_T</title>
<path fill="none" stroke="#555555" stroke-dasharray="5,2" d="M515.49,-359.69C481.57,-347.25 421.55,-329.66 385.97,-321.74"/>
</g>
<!-- B_T&#45;&gt;D_T -->
<g id="edge41" class="edge">
<title>B_T&#45;&gt;D_T</title>
<path fill="none" stroke="blue" stroke-dasharray="5,2" d="M512.72,-369.15C480.61,-362.04 428,-346.86 392.99,-334.76"/>
<polygon fill="blue" stroke="blue" points="383.18,-331.28 394.11,-330.38 387.89,-332.95 392.6,-334.62 392.6,-334.62 392.6,-334.62 387.89,-332.95 391.1,-338.87 383.18,-331.28 383.18,-331.28"/>
<text text-anchor="middle" x="446.86" y="-355.76" font-family="Times,serif" font-size="14.00">D</text>
</g>
<!-- C_R -->
<g id="node11" class="node">
<title>C_R</title>
<ellipse fill="none" stroke="black" stroke-width="2" cx="967.62" cy="-651.81" rx="28.68" ry="28.68"/>
<ellipse fill="none" stroke="black" stroke-width="2" cx="967.62" cy="-651.81" rx="32.7" ry="32.7"/>
<text text-anchor="middle" x="967.62" y="-648.11" font-family="TeX Gyre Pagella" font-size="14.00">C_R</text>
</g>
<!-- C_PS -->
<g id="node12" class="node">
<title>C_PS</title>
<ellipse fill="none" stroke="black" stroke-width="2" cx="1038.19" cy="-844.33" rx="34.39" ry="34.39"/>
<text text-anchor="middle" x="1038.19" y="-840.63" font-family="TeX Gyre Pagella" font-size="14.00">C_PS</text>
</g>
<!-- C_R&#45;&gt;C_PS -->
<g id="edge9" class="edge">
<title>C_R&#45;&gt;C_PS</title>
<path fill="none" stroke="#555555" d="M968.93,-684.5C977.72,-721.73 999.65,-781.77 1017.16,-816.75"/>
</g>
<!-- C_R&#45;&gt;C_PS -->
<g id="edge38" class="edge">
<title>C_R&#45;&gt;C_PS</title>
<path fill="none" stroke="blue" stroke-dasharray="5,2" d="M987.75,-677.6C1003.68,-708.9 1023.59,-762.02 1033.89,-799.92"/>
<polygon fill="blue" stroke="blue" points="1036.41,-809.69 1029.55,-801.13 1035.16,-804.85 1033.91,-800.01 1033.91,-800.01 1033.91,-800.01 1035.16,-804.85 1038.27,-798.88 1036.41,-809.69 1036.41,-809.69"/>
<text text-anchor="middle" x="1005.32" y="-727.56" font-family="Times,serif" font-size="14.00">C</text>
</g>
<!-- C_R&#45;&gt;C_T -->
<g id="edge10" class="edge">
<title>C_R&#45;&gt;C_T</title>
<path fill="none" stroke="#555555" d="M937.7,-638.51C905.98,-628.27 856.29,-615.48 825.27,-609.63"/>
</g>
<!-- C_X -->
<g id="node14" class="node">
<title>C_X</title>
<ellipse fill="none" stroke="black" stroke-width="2" cx="1131.04" cy="-623.84" rx="28.7" ry="28.7"/>
<text text-anchor="middle" x="1131.04" y="-620.14" font-family="TeX Gyre Pagella" font-size="14.00">C_X</text>
</g>
<!-- C_R&#45;&gt;C_X -->
<g id="edge11" class="edge">
<title>C_R&#45;&gt;C_X</title>
<path fill="none" stroke="#555555" d="M1000.45,-651.75C1030.93,-648.34 1075.77,-640.57 1104.19,-633.73"/>
</g>
<!-- C_R&#45;&gt;C_X -->
<g id="edge25" class="edge">
<title>C_R&#45;&gt;C_X</title>
<path fill="none" stroke="red" stroke-dasharray="5,2" d="M998.6,-640.95C1025.22,-634.79 1063.72,-628.09 1092.36,-624.58"/>
<polygon fill="red" stroke="red" points="1102.42,-623.44 1093,-629.04 1097.46,-624.01 1092.49,-624.57 1092.49,-624.57 1092.49,-624.57 1097.46,-624.01 1091.98,-620.1 1102.42,-623.44 1102.42,-623.44"/>
<text text-anchor="middle" x="1040.48" y="-636.57" font-family="Times,serif" font-size="14.00">T</text>
</g>
<!-- C_Y -->
<g id="node15" class="node">
<title>C_Y</title>
<ellipse fill="none" stroke="black" stroke-width="2" cx="961.07" cy="-720.37" rx="27.9" ry="27.9"/>
<text text-anchor="middle" x="961.07" y="-716.67" font-family="TeX Gyre Pagella" font-size="14.00">C_Y</text>
</g>
<!-- C_R&#45;&gt;C_Y -->
<g id="edge12" class="edge">
<title>C_R&#45;&gt;C_Y</title>
<path fill="none" stroke="#555555" d="M964.5,-684.48C964.25,-687.1 964,-689.74 963.75,-692.32"/>
</g>
<!-- C_PS&#45;&gt;C_R -->
<g id="edge24" class="edge">
<title>C_PS&#45;&gt;C_R</title>
<path fill="none" stroke="red" stroke-dasharray="5,2" d="M1026.22,-811.67C1014.14,-778.73 995.47,-727.78 982.46,-692.29"/>
<polygon fill="red" stroke="red" points="978.95,-682.72 986.62,-690.56 980.67,-687.41 982.39,-692.1 982.39,-692.1 982.39,-692.1 980.67,-687.41 978.17,-693.65 978.95,-682.72 978.95,-682.72"/>
<text text-anchor="middle" x="999.34" y="-755.78" font-family="Times,serif" font-size="14.00">T</text>
</g>
<!-- C_T&#45;&gt;C_R -->
<g id="edge37" class="edge">
<title>C_T&#45;&gt;C_R</title>
<path fill="none" stroke="blue" stroke-dasharray="5,2" d="M822.5,-619.39C849.48,-628.39 892.61,-639.86 924.85,-646.79"/>
<polygon fill="blue" stroke="blue" points="934.9,-648.87 924.2,-651.25 930.01,-647.86 925.11,-646.84 925.11,-646.84 925.11,-646.84 930.01,-647.86 926.03,-642.44 934.9,-648.87 934.9,-648.87"/>
<text text-anchor="middle" x="868.17" y="-636.89" font-family="Times,serif" font-size="14.00">C</text>
</g>
<!-- D_R -->
<g id="node16" class="node">
<title>D_R</title>
<ellipse fill="none" stroke="black" stroke-width="2" cx="187.23" cy="-247.86" rx="29.47" ry="29.47"/>
<ellipse fill="none" stroke="black" stroke-width="2" cx="187.23" cy="-247.86" rx="33.5" ry="33.5"/>
<text text-anchor="middle" x="187.23" y="-244.16" font-family="TeX Gyre Pagella" font-size="14.00">D_R</text>
</g>
<!-- D_PS -->
<g id="node17" class="node">
<title>D_PS</title>
<ellipse fill="none" stroke="black" stroke-width="2" cx="161.55" cy="-66.24" rx="35.19" ry="35.19"/>
<text text-anchor="middle" x="161.55" y="-62.54" font-family="TeX Gyre Pagella" font-size="14.00">D_PS</text>
</g>
<!-- D_R&#45;&gt;D_PS -->
<g id="edge13" class="edge">
<title>D_R&#45;&gt;D_PS</title>
<path fill="none" stroke="#555555" d="M193.19,-214.75C192.42,-181.48 185.28,-130.58 176.84,-97.85"/>
</g>
<!-- D_R&#45;&gt;D_PS -->
<g id="edge43" class="edge">
<title>D_R&#45;&gt;D_PS</title>
<path fill="none" stroke="blue" stroke-dasharray="5,2" d="M172.33,-217.7C164.67,-188.66 158.02,-144.4 156.09,-111.2"/>
<polygon fill="blue" stroke="blue" points="155.64,-100.85 160.57,-110.64 155.86,-105.84 156.08,-110.84 156.08,-110.84 156.08,-110.84 155.86,-105.84 151.58,-111.04 155.64,-100.85 155.64,-100.85"/>
<text text-anchor="middle" x="158.21" y="-168.25" font-family="Times,serif" font-size="14.00">D</text>
</g>
<!-- D_R&#45;&gt;D_T -->
<g id="edge14" class="edge">
<title>D_R&#45;&gt;D_T</title>
<path fill="none" stroke="#555555" d="M215.59,-265.4C247.11,-280.66 297.65,-301.57 329.09,-312.27"/>
</g>
<!-- D_X -->
<g id="node19" class="node">
<title>D_X</title>
<ellipse fill="none" stroke="black" stroke-width="2" cx="28.6" cy="-183.01" rx="28.7" ry="28.7"/>
<text text-anchor="middle" x="28.6" y="-179.31" font-family="TeX Gyre Pagella" font-size="14.00">D_X</text>
</g>
<!-- D_R&#45;&gt;D_X -->
<g id="edge15" class="edge">
<title>D_R&#45;&gt;D_X</title>
<path fill="none" stroke="#555555" d="M158.71,-230.3C129.87,-216.55 85.58,-198.55 56.84,-188.96"/>
</g>
<!-- D_R&#45;&gt;D_X -->
<g id="edge27" class="edge">
<title>D_R&#45;&gt;D_X</title>
<path fill="none" stroke="red" stroke-dasharray="5,2" d="M154.58,-240.41C127.55,-231.11 89.32,-215.58 62.07,-202.89"/>
<polygon fill="red" stroke="red" points="52.92,-198.54 63.89,-198.77 57.44,-200.69 61.95,-202.84 61.95,-202.84 61.95,-202.84 57.44,-200.69 60.02,-206.9 52.92,-198.54 52.92,-198.54"/>
<text text-anchor="middle" x="103.32" y="-225.45" font-family="Times,serif" font-size="14.00">T</text>
</g>
<!-- D_Y -->
<g id="node20" class="node">
<title>D_Y</title>
<ellipse fill="none" stroke="black" stroke-width="2" cx="41.54" cy="-357.22" rx="28.7" ry="28.7"/>
<text text-anchor="middle" x="41.54" y="-353.52" font-family="TeX Gyre Pagella" font-size="14.00">D_Y</text>
</g>
<!-- D_R&#45;&gt;D_Y -->
<g id="edge16" class="edge">
<title>D_R&#45;&gt;D_Y</title>
<path fill="none" stroke="#555555" d="M157.64,-263.39C128.91,-282.5 86.19,-314.68 61.33,-336.02"/>
</g>
<!-- D_R&#45;&gt;D_Y -->
<g id="edge28" class="edge">
<title>D_R&#45;&gt;D_Y</title>
<path fill="none" stroke="red" stroke-dasharray="5,2" d="M164.05,-271.93C140.26,-292.01 103.06,-320.06 75.87,-338.5"/>
<polygon fill="red" stroke="red" points="67.42,-344.13 73.25,-334.84 71.58,-341.36 75.74,-338.59 75.74,-338.59 75.74,-338.59 71.58,-341.36 78.24,-342.33 67.42,-344.13 67.42,-344.13"/>
<text text-anchor="middle" x="114.96" y="-309.02" font-family="Times,serif" font-size="14.00">T</text>
</g>
<!-- D_PS&#45;&gt;D_R -->
<g id="edge26" class="edge">
<title>D_PS&#45;&gt;D_R</title>
<path fill="none" stroke="red" stroke-dasharray="5,2" d="M166.5,-101.25C170.67,-130.7 176.64,-172.94 181.1,-204.52"/>
<polygon fill="red" stroke="red" points="182.55,-214.78 176.7,-205.51 181.86,-209.83 181.16,-204.88 181.16,-204.88 181.16,-204.88 181.86,-209.83 185.61,-204.25 182.55,-214.78 182.55,-214.78"/>
<text text-anchor="middle" x="168.8" y="-141.68" font-family="Times,serif" font-size="14.00">T</text>
</g>
<!-- D_T&#45;&gt;D_R -->
<g id="edge42" class="edge">
<title>D_T&#45;&gt;D_R</title>
<path fill="none" stroke="blue" stroke-dasharray="5,2" d="M333,-302.98C306.07,-289.64 262.15,-271.11 229.54,-259.13"/>
<polygon fill="blue" stroke="blue" points="219.81,-255.63 230.75,-254.78 224.52,-257.32 229.22,-259.01 229.22,-259.01 229.22,-259.01 224.52,-257.32 227.7,-263.25 219.81,-255.63 219.81,-255.63"/>
<text text-anchor="middle" x="275.27" y="-284.85" font-family="Times,serif" font-size="14.00">D</text>
</g>
</g>
</svg>
