<?xml version="1.0" encoding="UTF-8" standalone="no"?>
<!DOCTYPE svg PUBLIC "-//W3C//DTD SVG 1.1//EN"
 "http://www.w3.org/Graphics/SVG/1.1/DTD/svg11.dtd">
<!-- Generated by graphviz version 2.43.0 (0)
 -->
<!-- Title: %3 Pages: 1 -->
<svg width="499pt" height="537pt"
 viewBox="0.00 0.00 499.50 536.67" xmlns="http://www.w3.org/2000/svg" xmlns:xlink="http://www.w3.org/1999/xlink">
<g id="graph0" class="graph" transform="scale(1 1) rotate(0) translate(4 532.67)">
<title>%3</title>
<g id="clust1" class="cluster">
<title>cluster_a</title>
<polygon fill="transparent" stroke="#777777" points="0,-329.07 0,-528.67 258.72,-528.67 258.72,-329.07 0,-329.07"/>
<text text-anchor="middle" x="34" y="-513.47" font-family="TeX Gyre Pagella" font-size="14.00">Node A</text>
</g>
<g id="clust2" class="cluster">
<title>cluster_b</title>
<polygon fill="transparent" stroke="#777777" points="297.14,0 297.14,-262.02 491.5,-262.02 491.5,0 297.14,0"/>
<text text-anchor="middle" x="457" y="-246.82" font-family="TeX Gyre Pagella" font-size="14.00">Node B</text>
</g>
<!-- A_R -->
<g id="node1" class="node">
<title>A_R</title>
<ellipse fill="none" stroke="black" stroke-width="2" cx="162.16" cy="-438.17" rx="28.68" ry="28.68"/>
<ellipse fill="none" stroke="black" stroke-width="2" cx="162.16" cy="-438.17" rx="32.7" ry="32.7"/>
<text text-anchor="middle" x="162.16" y="-434.47" font-family="TeX Gyre Pagella" font-size="14.00">A_R</text>
</g>
<!-- A_T -->
<g id="node2" class="node">
<title>A_T</title>
<ellipse fill="none" stroke="black" stroke-width="2" cx="216.2" cy="-356.37" rx="27.1" ry="27.1"/>
<text text-anchor="middle" x="216.2" y="-352.67" font-family="TeX Gyre Pagella" font-size="14.00">A_T</text>
</g>
<!-- A_R&#45;&gt;A_T -->
<g id="edge1" class="edge">
<title>A_R&#45;&gt;A_T</title>
<path fill="none" stroke="#555555" d="M185.18,-414.9C192.61,-404.69 200.43,-392.68 206.45,-382.2"/>
</g>
<!-- A_R&#45;&gt;A_T -->
<g id="edge11" class="edge">
<title>A_R&#45;&gt;A_T</title>
<path fill="none" stroke="red" stroke-dasharray="5,2" d="M174.53,-407.87C179.29,-399.91 184.85,-391.37 190.36,-383.58"/>
<polygon fill="red" stroke="red" points="196.27,-375.47 194.01,-386.2 193.32,-379.51 190.38,-383.55 190.38,-383.55 190.38,-383.55 193.32,-379.51 186.74,-380.9 196.27,-375.47 196.27,-375.47"/>
</g>
<!-- A_X -->
<g id="node3" class="node">
<title>A_X</title>
<ellipse fill="none" stroke="black" stroke-width="2" cx="27.95" cy="-454.43" rx="27.9" ry="27.9"/>
<text text-anchor="middle" x="27.95" y="-450.73" font-family="TeX Gyre Pagella" font-size="14.00">A_X</text>
</g>
<!-- A_R&#45;&gt;A_X -->
<g id="edge2" class="edge">
<title>A_R&#45;&gt;A_X</title>
<path fill="none" stroke="#555555" d="M129.31,-436.25C106.36,-437.74 76.1,-441.51 54.63,-445.59"/>
</g>
<!-- A_Y -->
<g id="node4" class="node">
<title>A_Y</title>
<ellipse fill="none" stroke="black" stroke-width="2" cx="94.21" cy="-497.39" rx="27.1" ry="27.1"/>
<text text-anchor="middle" x="94.21" y="-493.69" font-family="TeX Gyre Pagella" font-size="14.00">A_Y</text>
</g>
<!-- A_R&#45;&gt;A_Y -->
<g id="edge3" class="edge">
<title>A_R&#45;&gt;A_Y</title>
<path fill="none" stroke="#555555" d="M137.24,-459.89C129.97,-466.22 122.1,-473.08 115.1,-479.18"/>
</g>
<!-- A_Z -->
<g id="node5" class="node">
<title>A_Z</title>
<ellipse fill="none" stroke="black" stroke-width="2" cx="230.77" cy="-500.72" rx="27.9" ry="27.9"/>
<text text-anchor="middle" x="230.77" y="-497.02" font-family="TeX Gyre Pagella" font-size="14.00">A_Z</text>
</g>
<!-- A_R&#45;&gt;A_Z -->
<g id="edge4" class="edge">
<title>A_R&#45;&gt;A_Z</title>
<path fill="none" stroke="#555555" d="M186.55,-460.4C194.25,-467.43 202.68,-475.11 210.1,-481.88"/>
</g>
<!-- B_T -->
<g id="node7" class="node">
<title>B_T</title>
<ellipse fill="none" stroke="black" stroke-width="2" cx="330.84" cy="-234.07" rx="27.9" ry="27.9"/>
<text text-anchor="middle" x="330.84" y="-230.37" font-family="TeX Gyre Pagella" font-size="14.00">B_T</text>
</g>
<!-- A_T&#45;&gt;B_T -->
<g id="edge9" class="edge">
<title>A_T&#45;&gt;B_T</title>
<path fill="none" stroke="#555555" stroke-dasharray="5,2" d="M238.35,-340.22C261.06,-319.14 295.59,-282.35 315.49,-258.04"/>
</g>
<!-- A_T&#45;&gt;B_T -->
<g id="edge12" class="edge">
<title>A_T&#45;&gt;B_T</title>
<path fill="none" stroke="red" stroke-dasharray="5,2" d="M230.88,-333.22C248.47,-311.64 278.09,-279.72 300.59,-257.92"/>
<polygon fill="red" stroke="red" points="307.92,-250.94 303.78,-261.1 304.3,-254.39 300.68,-257.84 300.68,-257.84 300.68,-257.84 304.3,-254.39 297.58,-254.58 307.92,-250.94 307.92,-250.94"/>
</g>
<!-- A_X&#45;&gt;A_R -->
<g id="edge10" class="edge">
<title>A_X&#45;&gt;A_R</title>
<path fill="none" stroke="red" stroke-dasharray="5,2" d="M56.1,-456.63C74.84,-455.63 99.77,-452.86 120.76,-449.55"/>
<polygon fill="red" stroke="red" points="130.7,-447.89 121.58,-453.98 125.77,-448.71 120.83,-449.54 120.83,-449.54 120.83,-449.54 125.77,-448.71 120.09,-445.1 130.7,-447.89 130.7,-447.89"/>
</g>
<!-- B_R -->
<g id="node6" class="node">
<title>B_R</title>
<ellipse fill="none" stroke="black" stroke-width="2" cx="395" cy="-147.2" rx="28.68" ry="28.68"/>
<ellipse fill="none" stroke="black" stroke-width="2" cx="395" cy="-147.2" rx="32.7" ry="32.7"/>
<text text-anchor="middle" x="395" y="-143.5" font-family="TeX Gyre Pagella" font-size="14.00">B_R</text>
</g>
<!-- B_R&#45;&gt;B_T -->
<g id="edge5" class="edge">
<title>B_R&#45;&gt;B_T</title>
<path fill="none" stroke="#555555" d="M370.73,-169.55C361.04,-181.4 350.39,-195.97 342.45,-208.29"/>
</g>
<!-- B_Y -->
<g id="node8" class="node">
<title>B_Y</title>
<ellipse fill="none" stroke="black" stroke-width="2" cx="463.55" cy="-169.68" rx="27.9" ry="27.9"/>
<text text-anchor="middle" x="463.55" y="-165.98" font-family="TeX Gyre Pagella" font-size="14.00">B_Y</text>
</g>
<!-- B_R&#45;&gt;B_Y -->
<g id="edge6" class="edge">
<title>B_R&#45;&gt;B_Y</title>
<path fill="none" stroke="#555555" d="M426.07,-157.39C429.61,-158.55 433.2,-159.72 436.68,-160.87"/>
</g>
<!-- B_X -->
<g id="node9" class="node">
<title>B_X</title>
<ellipse fill="none" stroke="black" stroke-width="2" cx="421.44" cy="-28.6" rx="28.7" ry="28.7"/>
<text text-anchor="middle" x="421.44" y="-24.9" font-family="TeX Gyre Pagella" font-size="14.00">B_X</text>
</g>
<!-- B_R&#45;&gt;B_X -->
<g id="edge7" class="edge">
<title>B_R&#45;&gt;B_X</title>
<path fill="none" stroke="#555555" d="M407.91,-117.04C413.04,-98.73 418.13,-75.5 420.96,-57.44"/>
</g>
<!-- B_R&#45;&gt;B_X -->
<g id="edge14" class="edge">
<title>B_R&#45;&gt;B_X</title>
<path fill="none" stroke="red" stroke-dasharray="5,2" d="M396.12,-114.41C398.69,-99.03 402.69,-80.66 406.87,-64.86"/>
<polygon fill="red" stroke="red" points="409.62,-54.91 411.29,-65.75 408.29,-59.73 406.95,-64.55 406.95,-64.55 406.95,-64.55 408.29,-59.73 402.62,-63.34 409.62,-54.91 409.62,-54.91"/>
</g>
<!-- B_Z -->
<g id="node10" class="node">
<title>B_Z</title>
<ellipse fill="none" stroke="black" stroke-width="2" cx="325.74" cy="-94.42" rx="28.7" ry="28.7"/>
<text text-anchor="middle" x="325.74" y="-90.72" font-family="TeX Gyre Pagella" font-size="14.00">B_Z</text>
</g>
<!-- B_R&#45;&gt;B_Z -->
<g id="edge8" class="edge">
<title>B_R&#45;&gt;B_Z</title>
<path fill="none" stroke="#555555" d="M368.82,-127.24C362.23,-122.22 355.2,-116.87 348.78,-111.97"/>
</g>
<!-- B_T&#45;&gt;B_R -->
<g id="edge13" class="edge">
<title>B_T&#45;&gt;B_R</title>
<path fill="none" stroke="red" stroke-dasharray="5,2" d="M352.18,-215.26C359.55,-206.5 367.73,-195.77 374.99,-185.43"/>
<polygon fill="red" stroke="red" points="380.83,-176.9 378.89,-187.69 378,-181.03 375.18,-185.15 375.18,-185.15 375.18,-185.15 378,-181.03 371.47,-182.61 380.83,-176.9 380.83,-176.9"/>
</g>
</g>
</svg>
