<?xml version="1.0" encoding="UTF-8" standalone="no"?>
<!DOCTYPE svg PUBLIC "-//W3C//DTD SVG 1.1//EN"
 "http://www.w3.org/Graphics/SVG/1.1/DTD/svg11.dtd">
<!-- Generated by graphviz version 2.43.0 (0)
 -->
<!-- Title: %3 Pages: 1 -->
<svg width="680pt" height="673pt"
 viewBox="0.00 0.00 680.25 673.00" xmlns="http://www.w3.org/2000/svg" xmlns:xlink="http://www.w3.org/1999/xlink">
<g id="graph0" class="graph" transform="scale(1 1) rotate(0) translate(4 669)">
<title>%3</title>
<g id="clust1" class="cluster">
<title>cluster_networking</title>
<polygon fill="transparent" stroke="#777777" points="10.25,-8 10.25,-584 664.25,-584 664.25,-8 10.25,-8"/>
<text text-anchor="middle" x="337.25" y="-568.8" font-family="TeX Gyre Pagella" font-size="14.00">Networking Machine</text>
</g>
<g id="clust2" class="cluster">
<title>cluster_inter_domain</title>
<polygon fill="transparent" stroke="#aaaaaa" points="334.25,-319 334.25,-553 530.25,-553 530.25,-319 334.25,-319"/>
<text text-anchor="middle" x="432.25" y="-537.8" font-family="TeX Gyre Pagella" font-size="14.00">Inter&#45;domain protocols</text>
</g>
<g id="clust3" class="cluster">
<title>cluster_intra_domain</title>
<polygon fill="transparent" stroke="#aaaaaa" points="50.25,-232 50.25,-478 294.25,-478 294.25,-232 50.25,-232"/>
<text text-anchor="middle" x="172.25" y="-462.8" font-family="TeX Gyre Pagella" font-size="14.00">Intra&#45;domain protocols</text>
</g>
<g id="clust4" class="cluster">
<title>cluster_node</title>
<polygon fill="transparent" stroke="#aaaaaa" points="324.25,-16 324.25,-311 656.25,-311 656.25,-16 324.25,-16"/>
<text text-anchor="middle" x="490.25" y="-295.8" font-family="TeX Gyre Pagella" font-size="14.00">Intra&#45;node &amp; inter&#45;node protocols</text>
</g>
<!-- Router -->
<g id="node1" class="node">
<title>Router</title>
<polygon fill="none" stroke="black" stroke-width="2" points="636.21,-254.54 636.21,-269.46 609.29,-280 571.22,-280 544.3,-269.46 544.3,-254.54 571.22,-244 609.29,-244 636.21,-254.54"/>
<text text-anchor="middle" x="590.25" y="-258.3" font-family="TeX Gyre Pagella" font-size="14.00">Router</text>
</g>
<!-- PubSub -->
<g id="node8" class="node">
<title>PubSub</title>
<polygon fill="none" stroke="black" points="203.05,-337.54 203.05,-352.46 173.29,-363 131.21,-363 101.46,-352.46 101.46,-337.54 131.21,-327 173.29,-327 203.05,-337.54"/>
<polygon fill="none" stroke="black" points="207.06,-334.72 207.06,-355.28 173.98,-367 130.52,-367 97.45,-355.28 97.45,-334.72 130.52,-323 173.98,-323 207.06,-334.72"/>
<text text-anchor="middle" x="152.25" y="-341.3" font-family="TeX Gyre Pagella" font-size="14.00">PubSub</text>
</g>
<!-- Router&#45;&gt;PubSub -->
<g id="edge18" class="edge">
<title>Router&#45;&gt;PubSub</title>
<path fill="none" stroke="#555555" d="M544.65,-269.79C485.5,-279.33 379.64,-297.12 289.25,-311 264.4,-314.82 257.86,-313.85 233.25,-319 223.03,-321.14 212.25,-323.79 201.99,-326.55"/>
<polygon fill="#555555" stroke="#555555" points="192.35,-329.22 200.78,-322.21 197.17,-327.89 201.98,-326.55 201.98,-326.55 201.98,-326.55 197.17,-327.89 203.18,-330.89 192.35,-329.22 192.35,-329.22"/>
</g>
<!-- Transport -->
<g id="node10" class="node">
<title>Transport</title>
<polygon fill="none" stroke="black" points="648.66,-106.54 648.66,-121.46 612.69,-132 561.82,-132 525.84,-121.46 525.84,-106.54 561.82,-96 612.69,-96 648.66,-106.54"/>
<text text-anchor="middle" x="587.25" y="-110.3" font-family="TeX Gyre Pagella" font-size="14.00">Transport</text>
</g>
<!-- Router&#45;&gt;Transport -->
<g id="edge17" class="edge">
<title>Router&#45;&gt;Transport</title>
<path fill="none" stroke="#555555" d="M580.85,-243.97C575.08,-219.04 573.52,-172.37 576.99,-142.54"/>
<polygon fill="#555555" stroke="#555555" points="578.49,-132.38 581.48,-142.93 577.76,-137.32 577.03,-142.27 577.03,-142.27 577.03,-142.27 577.76,-137.32 572.57,-141.61 578.49,-132.38 578.49,-132.38"/>
</g>
<!-- NIDS -->
<g id="node11" class="node">
<title>NIDS</title>
<polygon fill="none" stroke="black" points="505.59,-178.54 505.59,-193.46 473.76,-204 428.75,-204 396.91,-193.46 396.91,-178.54 428.75,-168 473.76,-168 505.59,-178.54"/>
<text text-anchor="middle" x="451.25" y="-182.3" font-family="TeX Gyre Pagella" font-size="14.00">ID Store</text>
</g>
<!-- Router&#45;&gt;NIDS -->
<g id="edge19" class="edge">
<title>Router&#45;&gt;NIDS</title>
<path fill="none" stroke="#555555" d="M560.43,-247.94C538.2,-236.95 508,-221.03 484.92,-208.21"/>
<polygon fill="#555555" stroke="#555555" points="476.15,-203.29 487.07,-204.25 480.51,-205.73 484.87,-208.18 484.87,-208.18 484.87,-208.18 480.51,-205.73 482.67,-212.11 476.15,-203.29 476.15,-203.29"/>
</g>
<!-- Ordering -->
<g id="node2" class="node">
<title>Ordering</title>
<polygon fill="none" stroke="#aaaaaa" points="663.25,-665 517.25,-665 517.25,-629 663.25,-629 663.25,-665"/>
<text text-anchor="middle" x="590.25" y="-643.3" font-family="TeX Gyre Pagella" font-size="14.00">Ordering Machine</text>
</g>
<!-- Ordering&#45;&gt;Router -->
<g id="edge1" class="edge">
<title>Ordering&#45;&gt;Router</title>
<path fill="none" stroke="#555555" d="M590.25,-628.63C590.25,-602.02 590.25,-549.55 590.25,-505 590.25,-505 590.25,-505 590.25,-424 590.25,-377.24 590.25,-322.85 590.25,-290.76"/>
<polygon fill="#555555" stroke="#555555" points="590.25,-280.39 594.75,-290.39 590.25,-285.39 590.25,-290.39 590.25,-290.39 590.25,-290.39 590.25,-285.39 585.75,-290.39 590.25,-280.39 590.25,-280.39"/>
</g>
<!-- DomainRouting -->
<g id="node3" class="node">
<title>DomainRouting</title>
<polygon fill="none" stroke="black" points="522.35,-337.54 522.35,-352.46 469.57,-363 394.93,-363 342.16,-352.46 342.16,-337.54 394.93,-327 469.57,-327 522.35,-337.54"/>
<text text-anchor="middle" x="432.25" y="-341.3" font-family="TeX Gyre Pagella" font-size="14.00">DomainRouting</text>
</g>
<!-- DomainRouting&#45;&gt;Router -->
<g id="edge7" class="edge">
<title>DomainRouting&#45;&gt;Router</title>
<path fill="none" stroke="#555555" stroke-dasharray="1,5" d="M474.95,-322.11C499.72,-309.41 530.57,-293.6 554.13,-281.52"/>
<polygon fill="#555555" stroke="#555555" points="465.76,-326.82 472.61,-318.26 470.21,-324.54 474.66,-322.26 474.66,-322.26 474.66,-322.26 470.21,-324.54 476.71,-326.26 465.76,-326.82 465.76,-326.82"/>
<polygon fill="#555555" stroke="#555555" points="563.09,-276.92 556.25,-285.49 558.64,-279.21 554.19,-281.49 554.19,-281.49 554.19,-281.49 558.64,-279.21 552.14,-277.48 563.09,-276.92 563.09,-276.92"/>
</g>
<!-- Clustering -->
<g id="node4" class="node">
<title>Clustering</title>
<polygon fill="none" stroke="black" points="522.2,-417.54 522.2,-432.46 484.15,-443 430.35,-443 392.31,-432.46 392.31,-417.54 430.35,-407 484.15,-407 522.2,-417.54"/>
<text text-anchor="middle" x="457.25" y="-421.3" font-family="TeX Gyre Pagella" font-size="14.00">Clustering</text>
</g>
<!-- Clustering&#45;&gt;Router -->
<g id="edge8" class="edge">
<title>Clustering&#45;&gt;Router</title>
<path fill="none" stroke="#555555" stroke-dasharray="1,5" d="M493.33,-401.08C506.35,-391.61 520.49,-379.85 531.25,-367 546.7,-348.56 544.45,-339.96 556.25,-319 561.78,-309.19 568.12,-298.59 573.81,-289.28"/>
<polygon fill="#555555" stroke="#555555" points="484.97,-406.95 490.56,-397.52 489.06,-404.07 493.15,-401.2 493.15,-401.2 493.15,-401.2 489.06,-404.07 495.74,-404.88 484.97,-406.95 484.97,-406.95"/>
<polygon fill="#555555" stroke="#555555" points="579.24,-280.48 577.82,-291.35 576.61,-284.74 573.99,-288.99 573.99,-288.99 573.99,-288.99 576.61,-284.74 570.16,-286.63 579.24,-280.48 579.24,-280.48"/>
</g>
<!-- Clustering&#45;&gt;DomainRouting -->
<g id="edge3" class="edge">
<title>Clustering&#45;&gt;DomainRouting</title>
<path fill="none" stroke="#555555" stroke-dasharray="5,2" d="M451.7,-406.69C448.53,-396.79 444.49,-384.16 440.9,-372.99"/>
<polygon fill="#555555" stroke="#555555" points="437.79,-363.26 445.12,-371.41 439.31,-368.02 440.84,-372.79 440.84,-372.79 440.84,-372.79 439.31,-368.02 436.55,-374.16 437.79,-363.26 437.79,-363.26"/>
</g>
<!-- Topology -->
<g id="node7" class="node">
<title>Topology</title>
<polygon fill="none" stroke="black" points="282.33,-254.54 282.33,-269.46 249.48,-280 203.03,-280 170.18,-269.46 170.18,-254.54 203.03,-244 249.48,-244 282.33,-254.54"/>
<polygon fill="none" stroke="black" points="286.31,-251.62 286.31,-272.38 250.1,-284 202.4,-284 166.19,-272.38 166.19,-251.62 202.4,-240 250.1,-240 286.31,-251.62"/>
<text text-anchor="middle" x="226.25" y="-258.3" font-family="TeX Gyre Pagella" font-size="14.00">Topology</text>
</g>
<!-- Clustering&#45;&gt;Topology -->
<g id="edge4" class="edge">
<title>Clustering&#45;&gt;Topology</title>
<path fill="none" stroke="#555555" stroke-dasharray="5,2" d="M418.58,-410.18C393.16,-400.17 359.83,-385.22 333.25,-367 301.91,-345.51 271.35,-314.5 250.97,-291.93"/>
<polygon fill="#555555" stroke="#555555" points="244.2,-284.33 254.21,-288.81 247.53,-288.07 250.85,-291.8 250.85,-291.8 250.85,-291.8 247.53,-288.07 247.49,-294.79 244.2,-284.33 244.2,-284.33"/>
</g>
<!-- Clustering&#45;&gt;NIDS -->
<g id="edge20" class="edge">
<title>Clustering&#45;&gt;NIDS</title>
<path fill="none" stroke="#555555" d="M501.14,-411.63C546.41,-396.26 614.6,-365.19 645.25,-311 662.54,-280.44 667.1,-259.49 645.25,-232 629.21,-211.8 565.95,-199.86 515.98,-193.41"/>
<polygon fill="#555555" stroke="#555555" points="505.86,-192.16 516.33,-188.92 510.82,-192.77 515.78,-193.39 515.78,-193.39 515.78,-193.39 510.82,-192.77 515.23,-197.86 505.86,-192.16 505.86,-192.16"/>
</g>
<!-- PeerSampling -->
<g id="node5" class="node">
<title>PeerSampling</title>
<polygon fill="none" stroke="black" points="505.96,-496.54 505.96,-511.46 458.1,-522 390.41,-522 342.54,-511.46 342.54,-496.54 390.41,-486 458.1,-486 505.96,-496.54"/>
<text text-anchor="middle" x="424.25" y="-500.3" font-family="TeX Gyre Pagella" font-size="14.00">PeerSampling</text>
</g>
<!-- PeerSampling&#45;&gt;Router -->
<g id="edge9" class="edge">
<title>PeerSampling&#45;&gt;Router</title>
<path fill="none" stroke="#555555" stroke-dasharray="1,5" d="M373.02,-481.76C371.69,-480.57 370.43,-479.32 369.25,-478 320.99,-423.95 287.8,-375.42 333.25,-319 358.02,-288.26 466.53,-273.5 534.39,-267.16"/>
<polygon fill="#555555" stroke="#555555" points="381.24,-487.92 370.54,-485.53 377.24,-484.92 373.24,-481.92 373.24,-481.92 373.24,-481.92 377.24,-484.92 375.93,-478.32 381.24,-487.92 381.24,-487.92"/>
<polygon fill="#555555" stroke="#555555" points="544.51,-266.24 534.95,-271.62 539.53,-266.69 534.55,-267.14 534.55,-267.14 534.55,-267.14 539.53,-266.69 534.14,-262.66 544.51,-266.24 544.51,-266.24"/>
</g>
<!-- PeerSampling&#45;&gt;DomainRouting -->
<g id="edge5" class="edge">
<title>PeerSampling&#45;&gt;DomainRouting</title>
<path fill="none" stroke="#555555" stroke-dasharray="5,2" d="M389.43,-485.85C387.01,-483.52 384.89,-480.91 383.25,-478 366.93,-448.93 371.67,-434.25 383.25,-403 387.72,-390.96 395.99,-379.75 404.49,-370.51"/>
<polygon fill="#555555" stroke="#555555" points="411.6,-363.24 407.83,-373.54 408.1,-366.82 404.61,-370.39 404.61,-370.39 404.61,-370.39 408.1,-366.82 401.39,-367.24 411.6,-363.24 411.6,-363.24"/>
</g>
<!-- PeerSampling&#45;&gt;Clustering -->
<g id="edge2" class="edge">
<title>PeerSampling&#45;&gt;Clustering</title>
<path fill="none" stroke="#555555" stroke-dasharray="5,2" d="M431.58,-485.91C435.81,-476.04 441.22,-463.42 445.98,-452.31"/>
<polygon fill="#555555" stroke="#555555" points="449.95,-443.04 450.15,-454.01 447.98,-447.64 446.01,-452.23 446.01,-452.23 446.01,-452.23 447.98,-447.64 441.87,-450.46 449.95,-443.04 449.95,-443.04"/>
</g>
<!-- PeerSampling&#45;&gt;Topology -->
<g id="edge6" class="edge">
<title>PeerSampling&#45;&gt;Topology</title>
<path fill="none" stroke="#555555" stroke-dasharray="5,2" d="M342.58,-503.34C238.28,-502.91 68.84,-498.94 49.25,-478 -0.46,-424.87 35.55,-369.17 88.25,-319 108.93,-299.32 137.43,-286.2 163.17,-277.64"/>
<polygon fill="#555555" stroke="#555555" points="172.88,-274.58 164.7,-281.88 168.11,-276.08 163.34,-277.59 163.34,-277.59 163.34,-277.59 168.11,-276.08 161.99,-273.29 172.88,-274.58 172.88,-274.58"/>
</g>
<!-- PeerSampling&#45;&gt;NIDS -->
<g id="edge21" class="edge">
<title>PeerSampling&#45;&gt;NIDS</title>
<path fill="none" stroke="#555555" d="M342.32,-503.74C231.6,-503.86 45.51,-500.63 24.25,-478 -13.56,-437.75 -7.09,-284.43 46.25,-232 70.05,-208.61 278.74,-195.26 386.87,-189.85"/>
<polygon fill="#555555" stroke="#555555" points="397.01,-189.35 387.25,-194.33 392.02,-189.59 387.03,-189.84 387.03,-189.84 387.03,-189.84 392.02,-189.59 386.8,-185.35 397.01,-189.35 397.01,-189.35"/>
</g>
<!-- Domain -->
<g id="node6" class="node">
<title>Domain</title>
<polygon fill="none" stroke="black" points="282.15,-417.54 282.15,-432.46 252.92,-443 211.58,-443 182.35,-432.46 182.35,-417.54 211.58,-407 252.92,-407 282.15,-417.54"/>
<polygon fill="none" stroke="black" points="286.15,-414.73 286.15,-435.27 253.62,-447 210.89,-447 178.36,-435.27 178.36,-414.73 210.89,-403 253.62,-403 286.15,-414.73"/>
<text text-anchor="middle" x="232.25" y="-421.3" font-family="TeX Gyre Pagella" font-size="14.00">Domain</text>
</g>
<!-- Domain&#45;&gt;Router -->
<g id="edge14" class="edge">
<title>Domain&#45;&gt;Router</title>
<path fill="none" stroke="#555555" stroke-dasharray="1,5" d="M243.42,-393.57C253.87,-369.5 271.85,-337.05 298.25,-319 335.9,-293.27 460.68,-276.38 534.38,-268.38"/>
<polygon fill="#555555" stroke="#555555" points="239.53,-402.98 239.19,-392.02 241.44,-398.36 243.35,-393.73 243.35,-393.73 243.35,-393.73 241.44,-398.36 247.51,-395.45 239.53,-402.98 239.53,-402.98"/>
<polygon fill="#555555" stroke="#555555" points="544.43,-267.32 534.96,-272.85 539.45,-267.85 534.48,-268.37 534.48,-268.37 534.48,-268.37 539.45,-267.85 534.01,-263.9 544.43,-267.32 544.43,-267.32"/>
</g>
<!-- Domain&#45;&gt;DomainRouting -->
<g id="edge10" class="edge">
<title>Domain&#45;&gt;DomainRouting</title>
<path fill="none" stroke="#555555" d="M270.82,-408.96C302.25,-396.7 346.92,-379.28 381.3,-365.87"/>
<polygon fill="#555555" stroke="#555555" points="390.71,-362.2 383.03,-370.03 386.05,-364.02 381.39,-365.84 381.39,-365.84 381.39,-365.84 386.05,-364.02 379.76,-361.64 390.71,-362.2 390.71,-362.2"/>
</g>
<!-- Topology&#45;&gt;Router -->
<g id="edge15" class="edge">
<title>Topology&#45;&gt;Router</title>
<path fill="none" stroke="#555555" stroke-dasharray="1,5" d="M296.4,-262C375.63,-262 454.86,-262 534.08,-262"/>
<polygon fill="#555555" stroke="#555555" points="286.33,-262 296.33,-257.5 291.33,-262 296.33,-262 296.33,-262 296.33,-262 291.33,-262 296.33,-266.5 286.33,-262 286.33,-262"/>
<polygon fill="#555555" stroke="#555555" points="544.25,-262 534.25,-266.5 539.25,-262 534.25,-262 534.25,-262 534.25,-262 539.25,-262 534.25,-257.5 544.25,-262 544.25,-262"/>
</g>
<!-- Topology&#45;&gt;NIDS -->
<g id="edge22" class="edge">
<title>Topology&#45;&gt;NIDS</title>
<path fill="none" stroke="#555555" d="M270.44,-246.47C309.02,-233.78 364.85,-215.42 404.24,-202.46"/>
<polygon fill="#555555" stroke="#555555" points="413.88,-199.29 405.79,-206.69 409.13,-200.85 404.38,-202.41 404.38,-202.41 404.38,-202.41 409.13,-200.85 402.98,-198.14 413.88,-199.29 413.88,-199.29"/>
</g>
<!-- PubSub&#45;&gt;Router -->
<g id="edge12" class="edge">
<title>PubSub&#45;&gt;Router</title>
<path fill="none" stroke="#555555" stroke-dasharray="1,5" d="M199.77,-331.94C216.11,-327.41 234.43,-322.52 251.25,-319 275.86,-313.85 282.4,-314.82 307.25,-311 388.28,-298.55 481.74,-282.97 538.48,-273"/>
<polygon fill="#555555" stroke="#555555" points="548.64,-271.21 539.57,-277.38 543.71,-272.08 538.79,-272.95 538.79,-272.95 538.79,-272.95 543.71,-272.08 538.01,-268.52 548.64,-271.21 548.64,-271.21"/>
</g>
<!-- PubSub&#45;&gt;Topology -->
<g id="edge11" class="edge">
<title>PubSub&#45;&gt;Topology</title>
<path fill="none" stroke="#555555" d="M171.7,-322.72C180.36,-313.23 190.7,-301.91 200.04,-291.69"/>
<polygon fill="#555555" stroke="#555555" points="206.94,-284.14 203.52,-294.56 203.57,-287.83 200.2,-291.52 200.2,-291.52 200.2,-291.52 203.57,-287.83 196.87,-288.49 206.94,-284.14 206.94,-284.14"/>
</g>
<!-- PubSub&#45;&gt;NIDS -->
<g id="edge23" class="edge">
<title>PubSub&#45;&gt;NIDS</title>
<path fill="none" stroke="#555555" d="M146.08,-322.91C140.19,-297.93 135.14,-256.62 157.25,-232 186.93,-198.96 309.48,-190 386.68,-187.68"/>
<polygon fill="#555555" stroke="#555555" points="396.8,-187.41 386.92,-192.18 391.8,-187.54 386.8,-187.68 386.8,-187.68 386.8,-187.68 391.8,-187.54 386.68,-183.18 396.8,-187.41 396.8,-187.41"/>
</g>
<!-- Storage -->
<g id="node9" class="node">
<title>Storage</title>
<polygon fill="none" stroke="black" points="160.46,-417.54 160.46,-432.46 130.47,-443 88.04,-443 58.04,-432.46 58.04,-417.54 88.04,-407 130.47,-407 160.46,-417.54"/>
<text text-anchor="middle" x="109.25" y="-421.3" font-family="TeX Gyre Pagella" font-size="14.00">Storage</text>
</g>
<!-- Storage&#45;&gt;Router -->
<g id="edge16" class="edge">
<title>Storage&#45;&gt;Router</title>
<path fill="none" stroke="#555555" stroke-dasharray="1,5" d="M151.15,-406.77C172.03,-396.97 196.88,-383.38 216.25,-367 236.82,-349.61 230.14,-332.83 253.25,-319 254.77,-318.09 441.22,-287.43 536.1,-271.87"/>
<polygon fill="#555555" stroke="#555555" points="141.87,-411 149.1,-402.76 146.42,-408.93 150.97,-406.85 150.97,-406.85 150.97,-406.85 146.42,-408.93 152.84,-410.94 141.87,-411 141.87,-411"/>
<polygon fill="#555555" stroke="#555555" points="546.09,-270.23 536.95,-276.29 541.16,-271.04 536.23,-271.85 536.23,-271.85 536.23,-271.85 541.16,-271.04 535.5,-267.41 546.09,-270.23 546.09,-270.23"/>
</g>
<!-- Storage&#45;&gt;PubSub -->
<g id="edge13" class="edge">
<title>Storage&#45;&gt;PubSub</title>
<path fill="none" stroke="#555555" d="M118.8,-406.69C123.77,-397.66 130,-386.37 135.73,-375.97"/>
<polygon fill="#555555" stroke="#555555" points="140.59,-367.15 139.7,-378.08 138.18,-371.53 135.76,-375.91 135.76,-375.91 135.76,-375.91 138.18,-371.53 131.82,-373.74 140.59,-367.15 140.59,-367.15"/>
</g>
<!-- Transport&#45;&gt;Router -->
<g id="edge29" class="edge">
<title>Transport&#45;&gt;Router</title>
<path fill="none" stroke="#555555" d="M587.61,-132.38C588.13,-157.5 589.09,-204.19 589.7,-233.87"/>
<polygon fill="#555555" stroke="#555555" points="589.9,-243.97 585.2,-234.06 589.8,-238.97 589.7,-233.97 589.7,-233.97 589.7,-233.97 589.8,-238.97 594.2,-233.88 589.9,-243.97 589.9,-243.97"/>
</g>
<!-- Transport&#45;&gt;Router -->
<g id="edge30" class="edge">
<title>Transport&#45;&gt;Router</title>
<path fill="none" stroke="#555555" stroke-dasharray="5,2" d="M596.73,-132.38C602.47,-157.5 603.98,-204.19 600.47,-233.87"/>
<polygon fill="#555555" stroke="#555555" points="598.95,-243.97 595.99,-233.41 599.7,-239.02 600.44,-234.08 600.44,-234.08 600.44,-234.08 599.7,-239.02 604.89,-234.75 598.95,-243.97 598.95,-243.97"/>
</g>
<!-- WebSocket -->
<g id="node12" class="node">
<title>WebSocket</title>
<polygon fill="none" stroke="black" points="427.75,-60 332.75,-60 332.75,-24 427.75,-24 427.75,-60"/>
<text text-anchor="middle" x="380.25" y="-38.3" font-family="TeX Gyre Pagella" font-size="14.00">WebSocket</text>
</g>
<!-- Transport&#45;&gt;WebSocket -->
<g id="edge25" class="edge">
<title>Transport&#45;&gt;WebSocket</title>
<path fill="none" stroke="#555555" d="M538.78,-96.61C508.55,-86.39 469.5,-73.18 437.72,-62.43"/>
<polygon fill="#555555" stroke="#555555" points="548.32,-99.83 537.4,-100.89 543.58,-98.23 538.84,-96.63 538.84,-96.63 538.84,-96.63 543.58,-98.23 540.29,-92.37 548.32,-99.83 548.32,-99.83"/>
<polygon fill="#555555" stroke="#555555" points="428.11,-59.18 439.03,-58.12 432.85,-60.79 437.58,-62.39 437.58,-62.39 437.58,-62.39 432.85,-60.79 436.14,-66.65 428.11,-59.18 428.11,-59.18"/>
</g>
<!-- Veilid -->
<g id="node13" class="node">
<title>Veilid</title>
<polygon fill="none" stroke="black" points="502.25,-60 446.25,-60 446.25,-24 502.25,-24 502.25,-60"/>
<text text-anchor="middle" x="474.25" y="-38.3" font-family="TeX Gyre Pagella" font-size="14.00">Veilid</text>
</g>
<!-- Transport&#45;&gt;Veilid -->
<g id="edge26" class="edge">
<title>Transport&#45;&gt;Veilid</title>
<path fill="none" stroke="#555555" d="M551.57,-90.9C538.53,-82.82 523.76,-73.67 510.65,-65.55"/>
<polygon fill="#555555" stroke="#555555" points="560.19,-96.23 549.32,-94.79 555.94,-93.6 551.69,-90.97 551.69,-90.97 551.69,-90.97 555.94,-93.6 554.06,-87.14 560.19,-96.23 560.19,-96.23"/>
<polygon fill="#555555" stroke="#555555" points="501.88,-60.12 512.75,-61.56 506.13,-62.75 510.38,-65.38 510.38,-65.38 510.38,-65.38 506.13,-62.75 508.01,-69.21 501.88,-60.12 501.88,-60.12"/>
</g>
<!-- Nym -->
<g id="node14" class="node">
<title>Nym</title>
<polygon fill="none" stroke="black" points="574.25,-60 520.25,-60 520.25,-24 574.25,-24 574.25,-60"/>
<text text-anchor="middle" x="547.25" y="-38.3" font-family="TeX Gyre Pagella" font-size="14.00">Nym</text>
</g>
<!-- Transport&#45;&gt;Nym -->
<g id="edge27" class="edge">
<title>Transport&#45;&gt;Nym</title>
<path fill="none" stroke="#555555" d="M572.28,-86.8C568.93,-80.94 565.38,-74.73 562.04,-68.89"/>
<polygon fill="#555555" stroke="#555555" points="577.37,-95.7 568.5,-89.25 574.88,-91.36 572.4,-87.01 572.4,-87.01 572.4,-87.01 574.88,-91.36 576.31,-84.78 577.37,-95.7 577.37,-95.7"/>
<polygon fill="#555555" stroke="#555555" points="557.03,-60.1 565.9,-66.55 559.51,-64.45 561.99,-68.79 561.99,-68.79 561.99,-68.79 559.51,-64.45 558.08,-71.02 557.03,-60.1 557.03,-60.1"/>
</g>
<!-- QUIC -->
<g id="node15" class="node">
<title>QUIC</title>
<polygon fill="none" stroke="black" points="648.25,-60 592.25,-60 592.25,-24 648.25,-24 648.25,-60"/>
<text text-anchor="middle" x="620.25" y="-38.3" font-family="TeX Gyre Pagella" font-size="14.00">QUIC</text>
</g>
<!-- Transport&#45;&gt;QUIC -->
<g id="edge28" class="edge">
<title>Transport&#45;&gt;QUIC</title>
<path fill="none" stroke="#555555" d="M599.74,-86.51C602.41,-80.85 605.23,-74.86 607.9,-69.2"/>
<polygon fill="#555555" stroke="#555555" points="595.41,-95.7 595.6,-84.73 597.54,-91.17 599.67,-86.65 599.67,-86.65 599.67,-86.65 597.54,-91.17 603.75,-88.57 595.41,-95.7 595.41,-95.7"/>
<polygon fill="#555555" stroke="#555555" points="612.19,-60.1 612,-71.07 610.06,-64.63 607.93,-69.15 607.93,-69.15 607.93,-69.15 610.06,-64.63 603.86,-67.23 612.19,-60.1 612.19,-60.1"/>
</g>
<!-- NIDS&#45;&gt;Router -->
<g id="edge24" class="edge">
<title>NIDS&#45;&gt;Router</title>
<path fill="none" stroke="#555555" stroke-dasharray="5,2" d="M482.96,-200.99C505.4,-212.14 535.26,-227.92 557.85,-240.49"/>
<polygon fill="#555555" stroke="#555555" points="566.73,-245.49 555.81,-244.51 562.37,-243.04 558.01,-240.59 558.01,-240.59 558.01,-240.59 562.37,-243.04 560.22,-236.66 566.73,-245.49 566.73,-245.49"/>
</g>
</g>
</svg>
