<?xml version="1.0" encoding="UTF-8"?>
<svg width="200.32mm" height="206.25mm" version="1.1" viewBox="0 0 200.32 206.25" xmlns="http://www.w3.org/2000/svg"><defs><marker id="a" overflow="visible" markerHeight="5.5999999" markerWidth="7.6999998" orient="auto-start-reverse" preserveAspectRatio="xMidYMid" viewBox="0 0 7.7 5.6"><path transform="scale(.7)" d="m-2-4 11 4-11 4c2-2.33 2-5.66 0-8z" fill="context-stroke" fill-rule="evenodd"/></marker></defs><g transform="translate(-1.9554 -55.422)"><g><rect x="-9.6863" y="44.971" width="215.64" height="222.38" fill="#ffffff" stroke="#000000" stroke-width=".945"/><rect x="20.108" y="77.523" width="30.162" height="18.918" fill="#0000c8"/><text x="34.924999" y="87.57708" fill="#ffffff" font-family="Arial" font-size="4.5861px" stroke-width=".945" text-align="center" text-anchor="middle" xml:space="preserve"><tspan x="34.924999" y="87.57708" fill="#ffffff" stroke-width=".945">mempool</tspan></text><rect x="82.947" y="76.2" width="30.162" height="18.918" fill="#c80000"/><text x="97.763542" y="86.254166" fill="#ffffff" font-family="Arial" font-size="4.5861px" stroke-width=".945" text-align="center" text-anchor="middle" xml:space="preserve"><tspan x="97.763542" y="86.254166" fill="#ffffff" stroke-width=".945">consensus</tspan></text><rect x="24.077" y="119.19" width="151.34" height="104.91" fill="#009600"/><text x="161.52812" y="126.47083" fill="#ffffff" font-family="Arial" font-size="4.5861px" stroke-width=".945" text-align="center" text-anchor="middle" xml:space="preserve"><tspan x="161.52812" y="126.47083" fill="#ffffff" stroke-width=".945">Execution</tspan></text></g><g fill="#000000"><rect x="32.279" y="138.24" width="43.127" height="15.478"/><rect x="31.75" y="160.6" width="42.598" height="15.478"/><rect x="31.618" y="182.3" width="43.789" height="15.478"/></g><g fill="#ffffff"><g font-family="Arial" font-size="4.5861px" stroke-width=".945" text-anchor="middle"><text x="53.445831" y="149.09271" text-align="center" xml:space="preserve"><tspan x="53.445831" y="149.09271" fill="#ffffff" stroke-width=".945">executor</tspan></text><text x="53.181248" y="171.18542" text-align="center" xml:space="preserve"><tspan x="53.181248" y="171.18542" fill="#ffffff" stroke-width=".945">executor</tspan></text><text x="53.710415" y="191.42606" text-align="center" xml:space="preserve"><tspan x="53.710415" y="191.42606" fill="#ffffff" stroke-width=".945">executor</tspan></text></g><rect x="115.89" y="140.1" width="53.314" height="17.33"/></g><g><text x="146.57916" y="150.41562" fill="#000000" font-family="Arial" font-size="4.5861px" stroke-width=".945" text-align="center" text-anchor="middle" xml:space="preserve"><tspan x="146.57916" y="150.41562" fill="#000000" stroke-width=".945">shard</tspan></text><rect x="116.15" y="187.99" width="53.314" height="17.33" fill="#ffffff"/><text x="146.84375" y="198.30521" fill="#000000" font-family="Arial" font-size="4.5861px" stroke-width=".945" text-align="center" text-anchor="middle" xml:space="preserve"><tspan x="146.84375" y="198.30521" fill="#000000" stroke-width=".945">shard</tspan></text><rect x="115.76" y="162.19" width="53.314" height="17.33" fill="#ffffff"/><text x="146.44687" y="172.50833" fill="#000000" font-family="Arial" font-size="4.5861px" stroke-width=".945" text-align="center" text-anchor="middle" xml:space="preserve"><tspan x="146.44687" y="172.50833" fill="#000000" stroke-width=".945">shard</tspan></text></g><path d="m23.812 96.837c-6.4382 12.7-12.876 25.4-12.678 33.602 0.19863 8.2023 7.0336 11.906 13.868 15.61" fill="none" marker-end="url(#a)" stroke="#000000" stroke-width=".945"/><g><text transform="rotate(-67.938)" x="-104.39008" y="55.732044" fill="#000000" font-family="Arial" font-size="4.5861px" stroke-width=".945" text-align="center" text-anchor="middle" xml:space="preserve"><tspan x="-104.39008" y="55.732044" fill="#000000" stroke-width=".945">ExecuteTransaction</tspan></text><rect x="12.303" y="242.76" width="30.162" height="18.918" fill="#0000c8"/><text x="27.119791" y="252.80937" fill="#ffffff" font-family="Arial" font-size="4.5861px" stroke-width=".945" text-align="center" text-anchor="middle" xml:space="preserve"><tspan x="27.119791" y="252.80937" fill="#ffffff" stroke-width=".945">ReadBackend</tspan></text></g><g stroke-width=".945"><path d="m24.871 243c-6.4382-12.7-12.876-25.4-12.678-33.602 0.19863-8.2023 7.0336-11.906 13.868-15.61" fill="none" marker-end="url(#a)" stroke="#000000"/><text transform="rotate(65.391)" x="212.59421" y="74.642036" fill="#000000" font-family="Arial" font-size="4.5861px" text-align="center" text-anchor="middle" xml:space="preserve"><tspan x="212.59421" y="74.642036" fill="#000000" stroke-width=".945">ExecuteTransaction</tspan></text><path d="m44.865 137.98c3.7924-7.4524 7.5842-14.904 7.8269-20.924 0.24269-6.0198-3.0645-10.606-6.3717-15.192" fill="none" marker-end="url(#a)" stroke="#000000"/><text transform="rotate(71.125)" x="127.70644" y="-15.078774" fill="#000000" font-family="Arial" font-size="4.5861px" text-align="center" text-anchor="middle" xml:space="preserve"><tspan x="127.70644" y="-15.078774" fill="#000000" stroke-width=".945">Executor Finished</tspan></text><path d="m41.161 198.72c3.7924 7.4524 7.5842 14.904 7.8269 20.924 0.24269 6.0198-3.0645 10.606-6.3717 15.192" fill="none" marker-end="url(#a)" stroke="#000000"/><text transform="rotate(71.125)" x="225.06593" y="21.98222" fill="#000000" font-family="Arial" font-size="4.5861px" text-align="center" text-anchor="middle" xml:space="preserve"><tspan x="225.06593" y="21.98222" fill="#000000" stroke-width=".945">Executor Finished</tspan></text></g><g transform="rotate(10.787 102.49 194.71)" stroke-width=".945"><path d="m114.18 197.51c-8.1142-0.0882-16.228-0.17639-21.63 0.0441-5.402 0.22053-8.0919 0.74968-10.782 1.2788" fill="none" marker-end="url(#a)" stroke="#000000"/><text transform="rotate(.73042)" x="98.994499" y="194.55847" fill="#000000" font-family="Arial" font-size="4.5861px" text-align="center" text-anchor="middle" xml:space="preserve"><tspan x="98.994499" y="194.55847" fill="#000000" stroke-width=".945">KVSRead</tspan></text><path d="m77.126 191.69c7.5849-1.1466 15.17-2.2931 20.682-2.3592 5.5123-0.0661 8.9518 0.94813 12.391 1.9623" fill="none" marker-end="url(#a)" stroke="#000000"/><text transform="rotate(-2.215)" x="87.410255" y="191.28049" fill="#000000" font-family="Arial" font-size="4.5861px" text-align="center" text-anchor="middle" xml:space="preserve"><tspan x="87.410255" y="191.28049" fill="#000000" stroke-width=".945">KVSReadRequest</tspan></text></g><g transform="rotate(-8.7778 98.671 147.81)" stroke-width=".945"><path d="m78.449 138.51c7.3204 1.1025 14.64 2.2049 19.646 3.0207 5.0051 0.81582 7.695 1.345 10.385 1.8741" fill="none" marker-end="url(#a)" stroke="#000000"/><text transform="rotate(7.9154)" x="114.8357" y="123.73884" fill="#000000" font-family="Arial" font-size="4.5861px" text-align="center" text-anchor="middle" xml:space="preserve"><tspan x="114.8357" y="123.73884" fill="#000000" stroke-width=".945">KVSAcquireLock</tspan></text><path d="m78.449 148.3c7.3204 1.1025 14.64 2.2049 19.646 3.0207 5.0052 0.81582 7.695 1.345 10.385 1.8741" fill="none" marker-end="url(#a)" stroke="#000000"/><text transform="rotate(7.9154)" x="115.73258" y="134.03215" fill="#000000" font-family="Arial" font-size="4.5861px" text-align="center" text-anchor="middle" xml:space="preserve"><tspan x="115.73258" y="134.03215" fill="#000000" stroke-width=".945">KVSWrite</tspan></text></g><path d="m51.197 78.184c26.679-11.642 53.357-23.283 78.625-14.199s49.124 38.893 61.074 57.987c11.95 19.094 11.995 27.473 9.7456 33.734-2.249 6.2618-6.7908 10.407-11.752 15.765-4.9611 5.3579-10.341 11.928-15.721 18.499" fill="none" marker-end="url(#a)" stroke="#000000" stroke-width=".945"/><text transform="rotate(1.7612)" x="112.91764" y="55.717892" fill="#000000" font-family="Arial" font-size="4.5861px" stroke-width=".945" text-align="center" text-anchor="middle" xml:space="preserve"><tspan x="112.91764" y="55.717892" fill="#000000" stroke-width=".945">UpdateSeenAll</tspan></text><g fill="none" stroke="#000000" stroke-width=".945"><path d="m51.197 78.184c26.679-11.642 53.357-23.283 78.625-14.199s49.124 38.893 61.074 57.987c11.95 19.094 11.995 27.473 9.7456 33.734-2.249 6.2618-6.7908 10.407-11.708 9.6572-4.9168-0.74952-10.208-6.3938-15.5-12.039" marker-end="url(#a)"/><path d="m51.197 78.184c26.679-11.642 53.357-23.283 78.625-14.199s49.124 38.893 61.074 57.987c11.95 19.094 11.995 27.473 9.7456 33.734-2.249 6.2618-6.7908 10.407-11.355 12.457-4.564 2.0506-9.15 2.0065-13.736 1.9624" marker-end="url(#a)"/><path d="m125.69 139.3c-9.5253-6.5266-19.048-13.051-30.978-20.66-11.931-7.6084-26.262-16.295-40.591-24.981" marker-end="url(#a)"/></g><g stroke-width=".945"><text transform="rotate(31.311)" x="126.38622" y="49.36372" fill="#000000" font-family="Arial" font-size="4.5861px" text-align="center" text-anchor="middle" xml:space="preserve"><tspan x="126.38622" y="49.36372" fill="#000000" stroke-width=".945">KVSLockAcquired</tspan></text><path d="m114.04 87.974c7.0118 1.2789 14.023 2.5577 28.818 10.01 14.795 7.4526 37.372 21.078 48.683 32.081 11.311 11.003 11.355 19.381 9.1061 25.642-2.249 6.2618-6.7908 10.407-11.355 12.457-4.564 2.0506-9.15 2.0065-13.736 1.9624" fill="none" marker-end="url(#a)" stroke="#000000"/><text transform="rotate(22.047)" x="160.87906" y="35.007202" fill="#000000" font-family="Arial" font-size="4.5861px" text-align="center" text-anchor="middle" xml:space="preserve"><tspan x="160.87906" y="35.007202" fill="#000000" stroke-width=".945">AnchorChosen</tspan></text></g></g></svg>
