<?xml version="1.0" encoding="UTF-8" standalone="no"?>
<!DOCTYPE svg PUBLIC "-//W3C//DTD SVG 1.1//EN"
 "http://www.w3.org/Graphics/SVG/1.1/DTD/svg11.dtd">
<!-- Generated by graphviz version 2.43.0 (0)
 -->
<!-- Title: %3 Pages: 1 -->
<svg width="537pt" height="527pt"
 viewBox="0.00 0.00 537.24 526.74" xmlns="http://www.w3.org/2000/svg" xmlns:xlink="http://www.w3.org/1999/xlink">
<g id="graph0" class="graph" transform="scale(1 1) rotate(0) translate(4 522.74)">
<title>%3</title>
<g id="clust1" class="cluster">
<title>cluster_a</title>
<polygon fill="transparent" stroke="#777777" points="0,0 0,-518.74 529.24,-518.74 529.24,0 0,0"/>
<text text-anchor="middle" x="264.62" y="-503.54" font-family="TeX Gyre Pagella" font-size="14.00">Node A</text>
</g>
<!-- A_R -->
<g id="node1" class="node">
<title>A_R</title>
<ellipse fill="none" stroke="black" stroke-width="2" cx="238.02" cy="-310.79" rx="28.68" ry="28.68"/>
<ellipse fill="none" stroke="black" stroke-width="2" cx="238.02" cy="-310.79" rx="32.7" ry="32.7"/>
<text text-anchor="middle" x="238.02" y="-307.09" font-family="TeX Gyre Pagella" font-size="14.00">A_R</text>
</g>
<!-- A_T -->
<g id="node2" class="node">
<title>A_T</title>
<ellipse fill="none" stroke="black" stroke-width="2" cx="305.92" cy="-257.65" rx="27.1" ry="27.1"/>
<text text-anchor="middle" x="305.92" y="-253.95" font-family="TeX Gyre Pagella" font-size="14.00">A_T</text>
</g>
<!-- A_R&#45;&gt;A_T -->
<g id="edge1" class="edge">
<title>A_R&#45;&gt;A_T</title>
<path fill="none" stroke="#555555" d="M263.69,-290.7C270.45,-285.41 277.68,-279.76 284.21,-274.65"/>
</g>
<!-- A_Y -->
<g id="node3" class="node">
<title>A_Y</title>
<ellipse fill="none" stroke="black" stroke-width="2" cx="139.03" cy="-27.3" rx="27.1" ry="27.1"/>
<text text-anchor="middle" x="139.03" y="-23.6" font-family="TeX Gyre Pagella" font-size="14.00">A_Y</text>
</g>
<!-- A_R&#45;&gt;A_Y -->
<g id="edge2" class="edge">
<title>A_R&#45;&gt;A_Y</title>
<path fill="none" stroke="#555555" d="M235.81,-278.13C222.46,-219.79 180.19,-99.35 155.33,-49.53"/>
</g>
<!-- A_R&#45;&gt;A_Y -->
<g id="edge6" class="edge">
<title>A_R&#45;&gt;A_Y</title>
<path fill="none" stroke="red" stroke-dasharray="5,2" d="M219.42,-283.85C195.02,-232.94 156.36,-122.75 142.36,-64.71"/>
<polygon fill="red" stroke="red" points="140.11,-54.85 146.72,-63.6 141.22,-59.72 142.33,-64.6 142.33,-64.6 142.33,-64.6 141.22,-59.72 137.95,-65.6 140.11,-54.85 140.11,-54.85"/>
<text text-anchor="middle" x="175.89" y="-178.08" font-family="Times,serif" font-size="14.00">Y</text>
</g>
<!-- A_R&#45;&gt;A_Y -->
<g id="edge8" class="edge">
<title>A_R&#45;&gt;A_Y</title>
<path fill="none" stroke="blue" stroke-dasharray="5,2" d="M227.24,-279.91C208.71,-226.85 170.93,-118.66 151.37,-62.65"/>
<polygon fill="blue" stroke="blue" points="148.06,-53.15 155.6,-61.11 149.71,-57.87 151.35,-62.59 151.35,-62.59 151.35,-62.59 149.71,-57.87 147.11,-64.08 148.06,-53.15 148.06,-53.15"/>
<text text-anchor="middle" x="184.31" y="-160.08" font-family="Times,serif" font-size="14.00">T</text>
</g>
<!-- A_X -->
<g id="node4" class="node">
<title>A_X</title>
<ellipse fill="none" stroke="black" stroke-width="2" cx="27.95" cy="-490.8" rx="27.9" ry="27.9"/>
<text text-anchor="middle" x="27.95" y="-487.1" font-family="TeX Gyre Pagella" font-size="14.00">A_X</text>
</g>
<!-- A_R&#45;&gt;A_X -->
<g id="edge3" class="edge">
<title>A_R&#45;&gt;A_X</title>
<path fill="none" stroke="#555555" d="M208.07,-324.62C162.33,-355.64 77.55,-428.55 42.87,-466.95"/>
</g>
<!-- A_R&#45;&gt;A_X -->
<g id="edge9" class="edge">
<title>A_R&#45;&gt;A_X</title>
<path fill="none" stroke="blue" stroke-dasharray="5,2" d="M219.77,-338.27C184.38,-376.27 107.19,-442.65 62.1,-474.08"/>
<polygon fill="blue" stroke="blue" points="53.8,-479.71 59.55,-470.37 57.94,-476.9 62.07,-474.1 62.07,-474.1 62.07,-474.1 57.94,-476.9 64.6,-477.82 53.8,-479.71 53.8,-479.71"/>
<text text-anchor="middle" x="135.93" y="-409.97" font-family="Times,serif" font-size="14.00">T</text>
</g>
<!-- A_Z -->
<g id="node5" class="node">
<title>A_Z</title>
<ellipse fill="none" stroke="black" stroke-width="2" cx="501.29" cy="-459.28" rx="27.9" ry="27.9"/>
<text text-anchor="middle" x="501.29" y="-455.58" font-family="TeX Gyre Pagella" font-size="14.00">A_Z</text>
</g>
<!-- A_R&#45;&gt;A_Z -->
<g id="edge4" class="edge">
<title>A_R&#45;&gt;A_Z</title>
<path fill="none" stroke="#555555" d="M264.05,-330.49C314.45,-362.66 424.67,-424.73 475.16,-449.25"/>
</g>
<!-- A_X&#45;&gt;A_R -->
<g id="edge5" class="edge">
<title>A_X&#45;&gt;A_R</title>
<path fill="none" stroke="red" stroke-dasharray="5,2" d="M49.25,-472.55C86.07,-440.99 161.86,-376.05 205.38,-338.77"/>
<polygon fill="red" stroke="red" points="213.11,-332.14 208.44,-342.06 209.31,-335.39 205.51,-338.65 205.51,-338.65 205.51,-338.65 209.31,-335.39 202.59,-335.23 213.11,-332.14 213.11,-332.14"/>
<text text-anchor="middle" x="122.31" y="-409.46" font-family="Times,serif" font-size="14.00">Y</text>
</g>
<!-- A_Z&#45;&gt;A_R -->
<g id="edge7" class="edge">
<title>A_Z&#45;&gt;A_R</title>
<path fill="none" stroke="blue" stroke-dasharray="5,2" d="M479.02,-442C434.4,-413.11 333.72,-356.03 277.61,-327.53"/>
<polygon fill="blue" stroke="blue" points="268.34,-322.88 279.3,-323.34 272.81,-325.12 277.28,-327.36 277.28,-327.36 277.28,-327.36 272.81,-325.12 275.26,-331.38 268.34,-322.88 268.34,-322.88"/>
<text text-anchor="middle" x="373.31" y="-388.56" font-family="Times,serif" font-size="14.00">T</text>
</g>
</g>
</svg>
