<svg version="1.1" xmlns="http://www.w3.org/2000/svg" viewBox="0 0 1208.67040556874 433.4026214205396" width="2417.34081113748" height="866.8052428410792">
  <!-- svg-source:excalidraw -->

  <defs>
    <style class="style-fonts">
      @font-face {
        font-family: "Virgil";
        src: url("https://excalidraw.com/Virgil.woff2");
      }
      @font-face {
        font-family: "Cascadia";
        src: url("https://excalidraw.com/Cascadia.woff2");
      }
      @font-face {
        font-family: "Assistant";
        src: url("https://app.excalidraw.com//dist/excalidraw-assets/Assistant-Regular.woff2");
      }
    </style>

  </defs>
  <rect x="0" y="0" width="1208.67040556874" height="433.4026214205396" fill="#ffffff"></rect><g stroke-linecap="round" transform="translate(625.7873134741108 217.08894613271104) rotate(0 157.22242825073363 94.53318444934825)"><path d="M0 0 L314.44 0 L314.44 189.07 L0 189.07" stroke="none" stroke-width="0" fill="#e9ecef"></path><path d="M0 0 C89.31 0, 178.61 0, 314.44 0 M0 0 C90.41 0, 180.83 0, 314.44 0 M314.44 0 C314.44 72.43, 314.44 144.85, 314.44 189.07 M314.44 0 C314.44 68.36, 314.44 136.71, 314.44 189.07 M314.44 189.07 C239.74 189.07, 165.04 189.07, 0 189.07 M314.44 189.07 C218.13 189.07, 121.81 189.07, 0 189.07 M0 189.07 C0 142.7, 0 96.33, 0 0 M0 189.07 C0 148.3, 0 107.54, 0 0" stroke="transparent" stroke-width="2" fill="none"></path></g><g transform="translate(799.996314909687 190.98508508573377) rotate(0 12.004302978515625 6.678491884957339)"><text x="0" y="9.360574225956077" font-family="Virgil, Segoe UI Emoji" font-size="10.685587015931594px" fill="#e03131" text-anchor="start" style="white-space: pre;" direction="ltr" dominant-baseline="alphabetic">label</text></g><g stroke-opacity="0.5" fill-opacity="0.5" transform="translate(799.770027052687 108.42668379000338) rotate(0 12.004302978515625 6.678491884957225)"><text x="0" y="9.360574225956077" font-family="Virgil, Segoe UI Emoji" font-size="10.685587015931594px" fill="#1e1e1e" text-anchor="start" style="white-space: pre;" direction="ltr" dominant-baseline="alphabetic">label</text></g><g stroke-opacity="0.5" fill-opacity="0.5" transform="translate(221.39546942120887 127.90297483469999) rotate(0 12.004302978515625 6.678491884957225)"><text x="0" y="9.360574225956077" font-family="Virgil, Segoe UI Emoji" font-size="10.685587015931594px" fill="#1e1e1e" text-anchor="start" style="white-space: pre;" direction="ltr" dominant-baseline="alphabetic">label</text></g><g transform="translate(189.77671457481983 228.40232149116764) rotate(0 12.004302978515625 6.678491884957339)"><text x="0" y="9.360574225956077" font-family="Virgil, Segoe UI Emoji" font-size="10.685587015931594px" fill="#e03131" text-anchor="start" style="white-space: pre;" direction="ltr" dominant-baseline="alphabetic">label</text></g><g transform="translate(1062.906093971244 134.15313362339066) rotate(0 12.004302978515625 6.678491884957225)"><text x="0" y="9.360574225956077" font-family="Virgil, Segoe UI Emoji" font-size="10.685587015931594px" fill="#1e1e1e" text-anchor="start" style="white-space: pre;" direction="ltr" dominant-baseline="alphabetic">label</text></g><g transform="translate(413.41051218942494 141.30474394181647) rotate(0 12.004302978515625 6.678491884957225)"><text x="0" y="9.360574225956077" font-family="Virgil, Segoe UI Emoji" font-size="10.685587015931594px" fill="#1e1e1e" text-anchor="start" style="white-space: pre;" direction="ltr" dominant-baseline="alphabetic">label</text></g><g transform="translate(1065.7940069483843 223.07505568961824) rotate(0 12.004302978515625 6.678491884957339)"><text x="0" y="9.360574225956077" font-family="Virgil, Segoe UI Emoji" font-size="10.685587015931594px" fill="#1e1e1e" text-anchor="start" style="white-space: pre;" direction="ltr" dominant-baseline="alphabetic">label</text></g><g transform="translate(416.2984251665662 230.22666600804405) rotate(0 12.004302978515625 6.678491884957339)"><text x="0" y="9.360574225956077" font-family="Virgil, Segoe UI Emoji" font-size="10.685587015931594px" fill="#1e1e1e" text-anchor="start" style="white-space: pre;" direction="ltr" dominant-baseline="alphabetic">label</text></g><g transform="translate(797.9922056904106 298.6164905679602) rotate(0 12.004302978515625 6.678491884957339)"><text x="0" y="9.360574225956077" font-family="Virgil, Segoe UI Emoji" font-size="10.685587015931594px" fill="#1e1e1e" text-anchor="start" style="white-space: pre;" direction="ltr" dominant-baseline="alphabetic">label</text></g><g transform="translate(798.0509352031299 382.7797251565944) rotate(0 12.004302978515625 6.678491884957339)"><text x="0" y="9.360574225956077" font-family="Virgil, Segoe UI Emoji" font-size="10.685587015931594px" fill="#1e1e1e" text-anchor="start" style="white-space: pre;" direction="ltr" dominant-baseline="alphabetic">label</text></g><g transform="translate(800.133054370202 163.5882119504347) rotate(0 13.713104248046875 6.678491884957225)"><text x="0" y="9.360574225956077" font-family="Virgil, Segoe UI Emoji" font-size="10.685587015931594px" fill="#e03131" text-anchor="start" style="white-space: pre;" direction="ltr" dominant-baseline="alphabetic">value</text></g><g stroke-opacity="0.5" fill-opacity="0.5" transform="translate(799.6158721078859 81.59660490836154) rotate(0 13.713104248046875 6.678491884957225)"><text x="0" y="9.360574225956077" font-family="Virgil, Segoe UI Emoji" font-size="10.685587015931594px" fill="#1e1e1e" text-anchor="start" style="white-space: pre;" direction="ltr" dominant-baseline="alphabetic">value</text></g><g stroke-opacity="0.5" fill-opacity="0.5" transform="translate(221.24131447640775 101.07289595305815) rotate(0 13.713104248046875 6.678491884957225)"><text x="0" y="9.360574225956077" font-family="Virgil, Segoe UI Emoji" font-size="10.685587015931594px" fill="#1e1e1e" text-anchor="start" style="white-space: pre;" direction="ltr" dominant-baseline="alphabetic">value</text></g><g transform="translate(178.83663068117903 201.38740778187457) rotate(0 26.02179718017578 6.678491884957339)"><text x="0" y="9.360574225956077" font-family="Virgil, Segoe UI Emoji" font-size="10.685587015931594px" fill="#1e1e1e" text-anchor="start" style="white-space: pre;" direction="ltr" dominant-baseline="alphabetic">value = 0</text></g><g transform="translate(1063.042833431759 106.75626048809181) rotate(0 13.713104248046875 6.678491884957225)"><text x="0" y="9.360574225956077" font-family="Virgil, Segoe UI Emoji" font-size="10.685587015931594px" fill="#1e1e1e" text-anchor="start" style="white-space: pre;" direction="ltr" dominant-baseline="alphabetic">value</text></g><g transform="translate(413.5472516499399 113.90787080651762) rotate(0 13.713104248046875 6.678491884957225)"><text x="0" y="9.360574225956077" font-family="Virgil, Segoe UI Emoji" font-size="10.685587015931594px" fill="#1e1e1e" text-anchor="start" style="white-space: pre;" direction="ltr" dominant-baseline="alphabetic">value</text></g><g transform="translate(1056.945701656437 195.2875284346469) rotate(0 23.837730407714844 6.678491884957339)"><text x="0" y="9.360574225956077" font-family="Virgil, Segoe UI Emoji" font-size="10.685587015931594px" fill="#1e1e1e" text-anchor="start" style="white-space: pre;" direction="ltr" dominant-baseline="alphabetic">value + 1</text></g><g transform="translate(407.45011987461794 202.4391387530727) rotate(0 23.837730407714844 6.678491884957339)"><text x="0" y="9.360574225956077" font-family="Virgil, Segoe UI Emoji" font-size="10.685587015931594px" fill="#1e1e1e" text-anchor="start" style="white-space: pre;" direction="ltr" dominant-baseline="alphabetic">value + 1</text></g><g transform="translate(798.3411975446156 277.1626844559519) rotate(0 13.713104248046875 6.678491884957339)"><text x="0" y="9.360574225956077" font-family="Virgil, Segoe UI Emoji" font-size="10.685587015931594px" fill="#e03131" text-anchor="start" style="white-space: pre;" direction="ltr" dominant-baseline="alphabetic">value</text></g><g transform="translate(789.4667405931045 360.87925972137464) rotate(0 23.837730407714844 6.678491884957339)"><text x="0" y="9.360574225956077" font-family="Virgil, Segoe UI Emoji" font-size="10.685587015931594px" fill="#1e1e1e" text-anchor="start" style="white-space: pre;" direction="ltr" dominant-baseline="alphabetic">value + 1</text></g><g stroke-linecap="round" transform="translate(794.086506321174 187.8265592325622) rotate(0 19.341191744221078 8.864712882768004)"><path d="M0 0 C10.9 0.15, 23.65 0.5, 38.68 0 M0 0 C14.25 -0.49, 28.74 0.47, 38.68 0 M38.68 0 C38.77 6.12, 38.06 13.71, 38.68 17.73 M38.68 0 C38.62 7.11, 38.8 13.49, 38.68 17.73 M38.68 17.73 C28.32 17.71, 19.47 17.46, 0 17.73 M38.68 17.73 C26.19 18, 13.88 17.24, 0 17.73 M0 17.73 C-0.42 10.43, 0.81 3.51, 0 0 M0 17.73 C-0.36 11.92, -0.43 5.23, 0 0" stroke="#e03131" stroke-width="2" fill="none"></path></g><g stroke-opacity="0.5" fill-opacity="0.5" stroke-linecap="round" transform="translate(793.8602184641741 105.26815793683159) rotate(0 19.341191744221078 8.864712882768117)"><path d="M0 0 C11.46 0.53, 21.69 -0.72, 38.68 0 M0 0 C12.88 -0.55, 26.49 -0.29, 38.68 0 M38.68 0 C38.28 5.31, 38.73 11.13, 38.68 17.73 M38.68 0 C38.73 4.06, 38.97 7.51, 38.68 17.73 M38.68 17.73 C29.28 16.81, 19.23 17.85, 0 17.73 M38.68 17.73 C26.84 17.51, 14.28 17.31, 0 17.73 M0 17.73 C-0.19 11.72, -0.75 5.14, 0 0 M0 17.73 C-0.02 14.51, 0.12 10.11, 0 0" stroke="#1e1e1e" stroke-width="2" fill="none"></path></g><g stroke-opacity="0.5" fill-opacity="0.5" stroke-linecap="round" transform="translate(215.48566083269588 124.7444489815282) rotate(0 19.341191744221078 8.864712882768117)"><path d="M0 0 C9.73 0.22, 21.13 -0.75, 38.68 0 M0 0 C8.04 0.45, 15.56 0.26, 38.68 0 M38.68 0 C38.12 6, 38.83 13.9, 38.68 17.73 M38.68 0 C39.06 6.84, 38.89 13.5, 38.68 17.73 M38.68 17.73 C26.92 16.97, 13.61 17.37, 0 17.73 M38.68 17.73 C28.01 18.29, 17.55 17.75, 0 17.73 M0 17.73 C-0.41 12.36, 0.27 6.82, 0 0 M0 17.73 C0.45 13.96, -0.05 9.9, 0 0" stroke="#1e1e1e" stroke-width="2" fill="none"></path></g><g stroke-linecap="round" transform="translate(183.8669059863073 225.2437956379963) rotate(0 19.341191744221078 8.864712882768117)"><path d="M0 0 C11.07 0.87, 21.45 0.59, 38.68 0 M0 0 C9.13 0.23, 18.34 0.04, 38.68 0 M38.68 0 C39.36 5.25, 38.2 11.97, 38.68 17.73 M38.68 0 C38.92 4.93, 39 10.31, 38.68 17.73 M38.68 17.73 C23.54 17.21, 10.96 16.94, 0 17.73 M38.68 17.73 C26.25 17.34, 14.1 17.79, 0 17.73 M0 17.73 C-0.9 14.35, 0 9.63, 0 0 M0 17.73 C-0.37 11, 0.51 4.65, 0 0" stroke="#e03131" stroke-width="2" fill="none"></path></g><g stroke-linecap="round" transform="translate(1056.9962853827305 130.99460777021932) rotate(0 19.341191744221305 8.864712882768117)"><path d="M0 0 C8.48 -1.1, 16.59 -0.73, 38.68 0 M0 0 C12.54 -0.31, 24.88 0.07, 38.68 0 M38.68 0 C38.61 3.81, 39.57 8.99, 38.68 17.73 M38.68 0 C38.83 6.57, 38.31 13.45, 38.68 17.73 M38.68 17.73 C22.38 17.32, 8.66 16.95, 0 17.73 M38.68 17.73 C28.46 17.26, 17.28 18.04, 0 17.73 M0 17.73 C0.39 13.16, -0.81 10.46, 0 0 M0 17.73 C-0.37 12.18, 0.13 6.62, 0 0" stroke="#1e1e1e" stroke-width="2" fill="none"></path></g><g stroke-linecap="round" transform="translate(407.50070360091195 138.14621808864513) rotate(0 19.341191744221078 8.864712882768117)"><path d="M0 0 C14.21 0.17, 27.2 -0.74, 38.68 0 M0 0 C15.1 0.12, 29.81 0.08, 38.68 0 M38.68 0 C38.24 4.6, 39.31 10, 38.68 17.73 M38.68 0 C38.51 6.65, 38.86 13.09, 38.68 17.73 M38.68 17.73 C30.26 18.43, 22.22 17.73, 0 17.73 M38.68 17.73 C24.6 17.52, 11.45 17.23, 0 17.73 M0 17.73 C0.36 11.39, -0.54 5.45, 0 0 M0 17.73 C-0.38 14.14, -0.37 9.97, 0 0" stroke="#1e1e1e" stroke-width="2" fill="none"></path></g><g stroke-linecap="round" transform="translate(1059.8841983598718 219.91652983644644) rotate(0 19.341191744221305 8.864712882768117)"><path d="M0 0 C15.97 -0.61, 31.42 0.4, 38.68 0 M0 0 C13.35 -0.49, 26.69 -0.21, 38.68 0 M38.68 0 C39.41 6.81, 37.93 12.08, 38.68 17.73 M38.68 0 C38.79 5.4, 38.83 11.72, 38.68 17.73 M38.68 17.73 C25.31 18.39, 12.5 17.99, 0 17.73 M38.68 17.73 C24.68 17.35, 9.61 17.67, 0 17.73 M0 17.73 C0.29 13.87, 0.48 9.58, 0 0 M0 17.73 C-0.04 11.7, 0.41 5.94, 0 0" stroke="#1e1e1e" stroke-width="2" fill="none"></path></g><g stroke-linecap="round" transform="translate(410.3886165780532 227.06814015487225) rotate(0 19.341191744221078 8.864712882768117)"><path d="M0 0 C13.39 0.48, 25.61 0.67, 38.68 0 M0 0 C10.91 -0.07, 21.64 -0.14, 38.68 0 M38.68 0 C38.28 4.9, 38.61 8.97, 38.68 17.73 M38.68 0 C38.98 4.21, 39.03 7.49, 38.68 17.73 M38.68 17.73 C25.13 16.67, 10.02 18.12, 0 17.73 M38.68 17.73 C25.02 17.51, 11.19 17.85, 0 17.73 M0 17.73 C0.14 10.25, 0.6 3.02, 0 0 M0 17.73 C0.53 12.14, 0.39 7.39, 0 0" stroke="#1e1e1e" stroke-width="2" fill="none"></path></g><g stroke-linecap="round" transform="translate(792.0823971018981 295.4579647147889) rotate(0 19.341191744221078 8.864712882768117)"><path d="M0 0 C11.17 -0.07, 22.44 -0.4, 38.68 0 M0 0 C14.25 -0.18, 29.53 -0.3, 38.68 0 M38.68 0 C39.07 6.9, 38.72 12.79, 38.68 17.73 M38.68 0 C38.73 6.42, 38.26 12.88, 38.68 17.73 M38.68 17.73 C25.32 17.03, 10.91 17.62, 0 17.73 M38.68 17.73 C30.05 17.11, 21.13 18.1, 0 17.73 M0 17.73 C-0.6 11.36, -0.85 5.25, 0 0 M0 17.73 C0.43 13.35, 0.4 9.21, 0 0" stroke="#1e1e1e" stroke-width="2" fill="none"></path></g><g stroke-linecap="round" transform="translate(792.1411266146174 379.6211993034226) rotate(0 19.341191744221078 8.864712882768117)"><path d="M0 0 C7.91 0.28, 18.3 -0.14, 38.68 0 M0 0 C12.55 0.08, 24.64 -0.02, 38.68 0 M38.68 0 C39.35 4.25, 38.52 8.93, 38.68 17.73 M38.68 0 C38.82 6.55, 38.29 13.87, 38.68 17.73 M38.68 17.73 C30.49 18.02, 20.89 18.55, 0 17.73 M38.68 17.73 C30 17.83, 22.3 17.93, 0 17.73 M0 17.73 C0.1 12.62, -0.8 7.29, 0 0 M0 17.73 C-0.31 12, -0.09 5.93, 0 0" stroke="#1e1e1e" stroke-width="2" fill="none"></path></g><g stroke-linecap="round" transform="translate(794.2232457816899 160.42968609726336) rotate(0 19.341191744221078 8.864712882768117)"><path d="M0 0 C11.78 -0.36, 25.25 0.97, 38.68 0 M0 0 C9.47 0.29, 18.22 0.16, 38.68 0 M38.68 0 C38.44 3.86, 38.27 7.92, 38.68 17.73 M38.68 0 C38.7 3.63, 39.1 7.41, 38.68 17.73 M38.68 17.73 C30.01 17.29, 19.05 18.55, 0 17.73 M38.68 17.73 C28.2 18.4, 18.62 18.4, 0 17.73 M0 17.73 C0.43 11.29, -0.35 5.95, 0 0 M0 17.73 C0.22 13.26, -0.05 8.86, 0 0" stroke="#e03131" stroke-width="2" fill="none"></path></g><g stroke-opacity="0.5" fill-opacity="0.5" stroke-linecap="round" transform="translate(793.7060635193739 78.4380790551902) rotate(0 19.341191744221078 8.864712882768117)"><path d="M0 0 C13.27 -0.11, 26.69 -0.12, 38.68 0 M0 0 C14.59 -0.09, 29.22 -0.47, 38.68 0 M38.68 0 C39.37 5.74, 39.27 12.48, 38.68 17.73 M38.68 0 C38.72 6.63, 38.95 13.3, 38.68 17.73 M38.68 17.73 C26.86 17.51, 15.34 18.43, 0 17.73 M38.68 17.73 C25.31 17.5, 12 17.88, 0 17.73 M0 17.73 C-0.9 11.71, 0.69 5.51, 0 0 M0 17.73 C0.05 13.77, 0.32 10.41, 0 0" stroke="#1e1e1e" stroke-width="2" fill="none"></path></g><g stroke-opacity="0.5" fill-opacity="0.5" stroke-linecap="round" transform="translate(215.33150588789567 97.91437009988681) rotate(0 19.341191744221078 8.864712882768117)"><path d="M0 0 C14.91 0.81, 28.71 -0.84, 38.68 0 M0 0 C9.32 -0.45, 18.17 0.39, 38.68 0 M38.68 0 C37.88 4.17, 39.03 8.71, 38.68 17.73 M38.68 0 C38.61 4.32, 38.39 8.16, 38.68 17.73 M38.68 17.73 C24.81 17.26, 12.28 17.52, 0 17.73 M38.68 17.73 C29.15 17.35, 18.68 17.58, 0 17.73 M0 17.73 C-0.16 13.63, -0.56 8.33, 0 0 M0 17.73 C0.02 13.3, -0.27 8.64, 0 0" stroke="#1e1e1e" stroke-width="2" fill="none"></path></g><g stroke-linecap="round" transform="translate(172.9268220926665 198.22888192870323) rotate(0 29.27213682036131 8.864712882768117)"><path d="M0 0 C22.45 0.66, 45.98 -0.14, 58.54 0 M0 0 C19.87 -0.07, 39.25 0.39, 58.54 0 M58.54 0 C58.35 5.08, 57.82 9.47, 58.54 17.73 M58.54 0 C58.91 4.47, 58.92 9.44, 58.54 17.73 M58.54 17.73 C44.98 17.97, 31.6 17.05, 0 17.73 M58.54 17.73 C46.19 18.01, 35.17 17.23, 0 17.73 M0 17.73 C0.51 10.87, -0.06 4.45, 0 0 M0 17.73 C0.21 14.02, -0.05 10.13, 0 0" stroke="#1e1e1e" stroke-width="2" fill="none"></path></g><g stroke-linecap="round" transform="translate(1057.1330248432464 103.59773463492002) rotate(0 19.341191744221305 8.864712882768117)"><path d="M0 0 C14.54 -0.4, 29.34 0.82, 38.68 0 M0 0 C9.9 0.14, 19.95 0.54, 38.68 0 M38.68 0 C39.49 5.41, 39.29 11.59, 38.68 17.73 M38.68 0 C38.3 7.38, 39.14 14.14, 38.68 17.73 M38.68 17.73 C28.38 16.9, 16.14 16.86, 0 17.73 M38.68 17.73 C28.67 17.99, 19 18.04, 0 17.73 M0 17.73 C-0.77 11.78, 0.12 5.75, 0 0 M0 17.73 C0.24 10.93, 0.23 4.15, 0 0" stroke="#1e1e1e" stroke-width="2" fill="none"></path></g><g stroke-linecap="round" transform="translate(407.63744306142735 110.74934495334628) rotate(0 19.341191744221078 8.864712882768117)"><path d="M0 0 C13.48 -0.09, 25.31 0.5, 38.68 0 M0 0 C12.57 -0.35, 25.67 -0.25, 38.68 0 M38.68 0 C39.29 3.7, 39.13 8.55, 38.68 17.73 M38.68 0 C38.29 6.7, 38.36 12.46, 38.68 17.73 M38.68 17.73 C24.25 18.26, 8.38 16.8, 0 17.73 M38.68 17.73 C28.36 18.05, 16.95 17.82, 0 17.73 M0 17.73 C-0.6 12.25, -0.81 6.11, 0 0 M0 17.73 C0.15 10.68, 0.05 3.53, 0 0" stroke="#1e1e1e" stroke-width="2" fill="none"></path></g><g stroke-linecap="round" transform="translate(1051.0358930679245 192.12900258147556) rotate(0 27.74025531717598 8.864712882768117)"><path d="M0 0 C18.72 0.44, 39.09 0.27, 55.48 0 M0 0 C16.63 0.16, 33.97 0.19, 55.48 0 M55.48 0 C56.05 5.98, 55.11 13.85, 55.48 17.73 M55.48 0 C55.05 4.77, 55.56 9.4, 55.48 17.73 M55.48 17.73 C35.27 18.66, 13.95 18.47, 0 17.73 M55.48 17.73 C35.99 17.4, 17.18 17.44, 0 17.73 M0 17.73 C-0.19 11.46, -0.77 4.36, 0 0 M0 17.73 C-0.1 14.24, 0.02 9.64, 0 0" stroke="#1e1e1e" stroke-width="2" fill="none"></path></g><g stroke-linecap="round" transform="translate(401.5403112861054 199.28061289990137) rotate(0 27.74025531717598 8.864712882768117)"><path d="M0 0 C20.12 -0.18, 41.04 0.03, 55.48 0 M0 0 C16.34 0.43, 33.09 -0.23, 55.48 0 M55.48 0 C54.79 7.07, 55.26 13.91, 55.48 17.73 M55.48 0 C55.86 5.92, 55.25 12.97, 55.48 17.73 M55.48 17.73 C44.49 17.47, 31.55 17.62, 0 17.73 M55.48 17.73 C39.7 17.42, 23.19 17.93, 0 17.73 M0 17.73 C-0.11 12.45, -0.82 9.78, 0 0 M0 17.73 C-0.02 13.9, -0.09 9.68, 0 0" stroke="#1e1e1e" stroke-width="2" fill="none"></path></g><g stroke-linecap="round" transform="translate(792.4313889561026 274.0041586027801) rotate(0 19.341191744221078 8.864712882768117)"><path d="M0 0 C14.38 0.19, 28.47 0.75, 38.68 0 M0 0 C7.4 0.54, 15.05 0.32, 38.68 0 M38.68 0 C39.48 6.08, 39.35 12.76, 38.68 17.73 M38.68 0 C38.54 4.63, 38.47 10.32, 38.68 17.73 M38.68 17.73 C22.86 17.64, 8.18 17.04, 0 17.73 M38.68 17.73 C22.74 17.35, 8.28 17.96, 0 17.73 M0 17.73 C-0.13 12.1, -0.05 7.68, 0 0 M0 17.73 C-0.09 14.05, 0.01 9.62, 0 0" stroke="#e03131" stroke-width="2" fill="none"></path></g><g stroke-linecap="round" transform="translate(783.556932004592 357.7207338682033) rotate(0 28.051048546845777 8.418053559556483)"><path d="M0 0 C19.19 1.04, 37.56 0.44, 56.1 0 M0 0 C14.49 -0.23, 28.71 -0.26, 56.1 0 M56.1 0 C55.63 3.9, 55.6 8.75, 56.1 16.84 M56.1 0 C55.79 3.99, 56.18 8.32, 56.1 16.84 M56.1 16.84 C40.54 16.25, 25.22 16.09, 0 16.84 M56.1 16.84 C33.95 16.87, 11.7 16.63, 0 16.84 M0 16.84 C0.14 9.65, 0.15 4.03, 0 0 M0 16.84 C-0.08 10.79, -0.4 4.46, 0 0" stroke="#1e1e1e" stroke-width="2" fill="none"></path></g><g stroke-linecap="round" transform="translate(772.2075951674287 140.6669903960526) rotate(0 41.59042026557131 35.39610235367775)"><path d="M0 0 C21.61 -0.57, 45.77 -2.37, 83.18 0 M0 0 C31.58 1.29, 62.33 1.14, 83.18 0 M83.18 0 C81.66 23.08, 81.96 45.27, 83.18 70.79 M83.18 0 C82.42 24.65, 82.94 48.21, 83.18 70.79 M83.18 70.79 C60.09 71.86, 39.69 70.28, 0 70.79 M83.18 70.79 C50.5 71.51, 18.02 71.09, 0 70.79 M0 70.79 C-0.9 51.77, -1.12 33.32, 0 0 M0 70.79 C-0.41 50.64, 0.29 30.87, 0 0" stroke="#1e1e1e" stroke-width="2" fill="none"></path></g><g stroke-opacity="0.5" fill-opacity="0.5" stroke-linecap="round" transform="translate(771.9813073104287 58.10858910032198) rotate(0 41.59042026557131 35.39610235367775)"><path d="M0 0 C31.25 0.92, 62.67 -0.83, 83.18 0 M0 0 C18.93 1.1, 36.99 -0.36, 83.18 0 M83.18 0 C81.24 19.06, 84.7 37.23, 83.18 70.79 M83.18 0 C83.14 28.14, 83.69 56.7, 83.18 70.79 M83.18 70.79 C66.4 70.5, 48.93 72.72, 0 70.79 M83.18 70.79 C62.75 69.14, 40.74 69.78, 0 70.79 M0 70.79 C-1.25 44.19, 2.18 17.86, 0 0 M0 70.79 C-0.53 43.44, -0.52 15.44, 0 0" stroke="#1e1e1e" stroke-width="2" fill="none"></path></g><g stroke-opacity="0.5" fill-opacity="0.5" stroke-linecap="round" transform="translate(193.60674967895056 77.58488014501859) rotate(0 41.59042026557131 35.39610235367775)"><path d="M0 0 C23.44 -1.75, 42.11 -1.45, 83.18 0 M0 0 C16.9 -0.28, 36.33 -1.23, 83.18 0 M83.18 0 C83.26 17.29, 84.55 31.31, 83.18 70.79 M83.18 0 C84.51 18.06, 84.05 37.63, 83.18 70.79 M83.18 70.79 C49 68.92, 16.46 69.14, 0 70.79 M83.18 70.79 C50.48 71.15, 18.83 70.88, 0 70.79 M0 70.79 C0.85 53.74, -1.38 38.42, 0 0 M0 70.79 C-0.85 50.79, -1.57 32.96, 0 0" stroke="#1e1e1e" stroke-width="2" fill="none"></path></g><g stroke-linecap="round" transform="translate(161.98799483256198 178.08422680148647) rotate(0 41.59042026557131 35.39610235367775)"><path d="M0 0 C32.81 0.49, 64.11 0.32, 83.18 0 M0 0 C23.36 -1.18, 48.37 -0.81, 83.18 0 M83.18 0 C82.17 26.7, 83.74 52.41, 83.18 70.79 M83.18 0 C83.04 15.08, 82.77 28.59, 83.18 70.79 M83.18 70.79 C52.01 69.95, 24.56 68.77, 0 70.79 M83.18 70.79 C53.67 70.06, 22.64 70.58, 0 70.79 M0 70.79 C-1.68 56.69, -1.66 39.96, 0 0 M0 70.79 C-0.13 47.33, 0.81 26.83, 0 0" stroke="#1e1e1e" stroke-width="2" fill="none"></path></g><g stroke-linecap="round" transform="translate(1035.1173742289861 83.83503893370926) rotate(0 41.59042026557108 35.39610235367775)"><path d="M0 0 C17.48 1.75, 33.21 0.51, 83.18 0 M0 0 C18.13 0.8, 37.25 -0.15, 83.18 0 M83.18 0 C85.25 15.62, 85.81 30.32, 83.18 70.79 M83.18 0 C83.52 21.26, 82.41 41.64, 83.18 70.79 M83.18 70.79 C60.87 68.57, 38.66 71.29, 0 70.79 M83.18 70.79 C63.53 72.38, 46.13 72, 0 70.79 M0 70.79 C0.95 57.01, 2.48 39.63, 0 0 M0 70.79 C0.1 48.88, -0.77 25.35, 0 0" stroke="#1e1e1e" stroke-width="2" fill="none"></path></g><g stroke-linecap="round" transform="translate(385.6217924471666 90.98664925213507) rotate(0 41.59042026557131 35.39610235367775)"><path d="M0 0 C23.71 -0.31, 46.71 -0.59, 83.18 0 M0 0 C19.26 1.14, 39.42 0.97, 83.18 0 M83.18 0 C84.67 16.93, 84.87 29.68, 83.18 70.79 M83.18 0 C83.45 25.45, 82.74 53.28, 83.18 70.79 M83.18 70.79 C53.57 69.86, 23.29 71.21, 0 70.79 M83.18 70.79 C50.25 70.7, 17.77 70.48, 0 70.79 M0 70.79 C2.68 48.28, 2.05 29.54, 0 0 M0 70.79 C-0.96 49.77, 1.01 26.68, 0 0" stroke="#1e1e1e" stroke-width="2" fill="none"></path></g><g stroke-linecap="round" transform="translate(1038.0052872061274 172.75696099993684) rotate(0 41.59042026557108 35.39610235367786)"><path d="M0 0 C24.91 1.28, 48.29 0.69, 83.18 0 M0 0 C27.89 0.41, 55.41 1.56, 83.18 0 M83.18 0 C81.84 17.73, 84.26 36.17, 83.18 70.79 M83.18 0 C83.82 19.74, 83.91 39.81, 83.18 70.79 M83.18 70.79 C62.64 72.03, 39.93 72.29, 0 70.79 M83.18 70.79 C58.55 70.16, 34.99 71.06, 0 70.79 M0 70.79 C0.97 43.84, 0.34 18.44, 0 0 M0 70.79 C0.93 54.46, -0.82 38.6, 0 0" stroke="#1e1e1e" stroke-width="2" fill="none"></path></g><g stroke-linecap="round" transform="translate(388.50970542430787 179.90857131836265) rotate(0 41.59042026557131 35.39610235367786)"><path d="M0 0 C25.4 0.14, 50.51 -1.46, 83.18 0 M0 0 C32.2 0.28, 63.45 -0.32, 83.18 0 M83.18 0 C84.11 25.63, 81.03 49.93, 83.18 70.79 M83.18 0 C81.79 15.41, 83.23 31, 83.18 70.79 M83.18 70.79 C61.46 68.89, 41.23 72.52, 0 70.79 M83.18 70.79 C65.65 71.42, 48.41 70.78, 0 70.79 M0 70.79 C-1.1 57.78, 0.96 42.23, 0 0 M0 70.79 C0.91 50.88, -0.28 28.85, 0 0" stroke="#1e1e1e" stroke-width="2" fill="none"></path></g><g stroke-linecap="round" transform="translate(770.5190052961643 247.23180424280645) rotate(0 41.59042026557131 35.39610235367786)"><path d="M0 0 C27.09 -0.7, 54.91 -1.96, 83.18 0 M0 0 C17.69 -0.36, 34.08 1.04, 83.18 0 M83.18 0 C83.46 17.54, 84.82 31.46, 83.18 70.79 M83.18 0 C82.35 17.84, 83.84 37.4, 83.18 70.79 M83.18 70.79 C64.64 70.43, 45.25 72.32, 0 70.79 M83.18 70.79 C62.6 70.94, 43.97 69.65, 0 70.79 M0 70.79 C-1.47 54.45, -0.71 37.16, 0 0 M0 70.79 C0.17 52.28, -0.79 32.89, 0 0" stroke="#1e1e1e" stroke-width="2" fill="none"></path></g><g stroke-linecap="round" transform="translate(770.5777348088836 331.39503883144016) rotate(0 41.59042026557131 35.39610235367786)"><path d="M0 0 C31.67 -0.37, 60.53 -1.23, 83.18 0 M0 0 C28.89 -0.14, 58.01 -0.92, 83.18 0 M83.18 0 C83.52 18.32, 85.55 38.06, 83.18 70.79 M83.18 0 C82.65 23.81, 82.67 47.23, 83.18 70.79 M83.18 70.79 C57.32 72.71, 32.52 73.01, 0 70.79 M83.18 70.79 C62.92 71.72, 41.69 71.98, 0 70.79 M0 70.79 C-1.77 43.61, 0.32 16.5, 0 0 M0 70.79 C0.32 42.7, -0.42 15.28, 0 0" stroke="#1e1e1e" stroke-width="2" fill="none"></path></g><g transform="translate(790.8257859643841 144.01849562581197) rotate(0 22.008216857910156 7.293571436161415)"><text x="0" y="10.222669724923824" font-family="Virgil, Segoe UI Emoji" font-size="11.669714297858246px" fill="#1e1e1e" text-anchor="start" style="white-space: pre;" direction="ltr" dominant-baseline="alphabetic">Counter</text></g><g stroke-opacity="0.5" fill-opacity="0.5" transform="translate(790.5994981073841 61.46009433008135) rotate(0 22.008216857910156 7.293571436161415)"><text x="0" y="10.222669724923824" font-family="Virgil, Segoe UI Emoji" font-size="11.669714297858246px" fill="#1e1e1e" text-anchor="start" style="white-space: pre;" direction="ltr" dominant-baseline="alphabetic">Counter</text></g><g stroke-opacity="0.5" fill-opacity="0.5" transform="translate(205.40445339955113 80.79900064484491) rotate(0 28.502830505371094 7.293571436161415)"><text x="0" y="10.222669724923824" font-family="Virgil, Segoe UI Emoji" font-size="11.669714297858246px" fill="#1e1e1e" text-anchor="start" style="white-space: pre;" direction="ltr" dominant-baseline="alphabetic">CounterId</text></g><g transform="translate(172.8151419126675 181.6661838362952) rotate(0 28.502830505371094 7.293571436161301)"><text x="0" y="10.222669724923824" font-family="Virgil, Segoe UI Emoji" font-size="11.669714297858246px" fill="#1e1e1e" text-anchor="start" style="white-space: pre;" direction="ltr" dominant-baseline="alphabetic">CounterId</text></g><g transform="translate(1053.735565025941 87.18654416346862) rotate(0 22.008216857910156 7.293571436161415)"><text x="0" y="10.222669724923824" font-family="Virgil, Segoe UI Emoji" font-size="11.669714297858246px" fill="#1e1e1e" text-anchor="start" style="white-space: pre;" direction="ltr" dominant-baseline="alphabetic">Counter</text></g><g transform="translate(404.23998324412196 94.33815448189443) rotate(0 28.502830505371094 7.293571436161415)"><text x="0" y="10.222669724923824" font-family="Virgil, Segoe UI Emoji" font-size="11.669714297858246px" fill="#1e1e1e" text-anchor="start" style="white-space: pre;" direction="ltr" dominant-baseline="alphabetic">CounterId</text></g><g transform="translate(1056.6234780030823 176.1084662296962) rotate(0 22.008216857910156 7.293571436161301)"><text x="0" y="10.222669724923824" font-family="Virgil, Segoe UI Emoji" font-size="11.669714297858246px" fill="#1e1e1e" text-anchor="start" style="white-space: pre;" direction="ltr" dominant-baseline="alphabetic">Counter</text></g><g transform="translate(407.1278962212632 183.26007654812202) rotate(0 28.502830505371094 7.293571436161301)"><text x="0" y="10.222669724923824" font-family="Virgil, Segoe UI Emoji" font-size="11.669714297858246px" fill="#1e1e1e" text-anchor="start" style="white-space: pre;" direction="ltr" dominant-baseline="alphabetic">CounterId</text></g><g transform="translate(788.8216767451081 251.56939516822376) rotate(0 28.502830505371094 7.293571436161301)"><text x="0" y="10.222669724923824" font-family="Virgil, Segoe UI Emoji" font-size="11.669714297858246px" fill="#1e1e1e" text-anchor="start" style="white-space: pre;" direction="ltr" dominant-baseline="alphabetic">CounterId</text></g><g transform="translate(784.0293595454964 337.70723850709555) rotate(0 28.502830505371094 7.293571436161301)"><text x="0" y="10.222669724923824" font-family="Virgil, Segoe UI Emoji" font-size="11.669714297858246px" fill="#1e1e1e" text-anchor="start" style="white-space: pre;" direction="ltr" dominant-baseline="alphabetic">CounterId</text></g><g stroke-linecap="round"><g transform="translate(858.6378579776856 174.01559519496755) rotate(0 29.3185150985787 0.04293445974133192)"><path d="M0 0 C21.85 0.71, 39.83 -0.56, 58.64 0.02 M0 0 C14.18 -0.11, 26.7 0.53, 58.64 0.02" stroke="#1e1e1e" stroke-width="2" fill="none"></path></g><g transform="translate(858.6378579776856 174.01559519496755) rotate(0 29.3185150985787 0.04293445974133192)"><path d="M35.22 8.77 C44.92 6.11, 50.7 1.8, 58.64 0.02 M35.22 8.77 C41.19 6.5, 45.6 5.12, 58.64 0.02" stroke="#1e1e1e" stroke-width="2" fill="none"></path></g><g transform="translate(858.6378579776856 174.01559519496755) rotate(0 29.3185150985787 0.04293445974133192)"><path d="M35.07 -8.33 C44.7 -5.06, 50.53 -3.44, 58.64 0.02 M35.07 -8.33 C41.25 -6.65, 45.69 -4.1, 58.64 0.02" stroke="#1e1e1e" stroke-width="2" fill="none"></path></g></g><mask></mask><g stroke-linecap="round"><g stroke-opacity="0.5" fill-opacity="0.5" transform="translate(722.6276662916061 94.7539230948953) rotate(0 22.890402735972884 -0.1658699942502153)"><path d="M0 0 C11.93 -0.74, 21.29 0.02, 45.78 -0.13 M0 0 C12.48 -0.52, 25.28 -0.3, 45.78 -0.13" stroke="#1e1e1e" stroke-width="2" fill="none"></path></g><g stroke-opacity="0.5" fill-opacity="0.5" transform="translate(722.6276662916061 94.7539230948953) rotate(0 22.890402735972884 -0.1658699942502153)"><path d="M24.2 7.51 C30.3 4.98, 33.83 3.94, 45.78 -0.13 M24.2 7.51 C29.95 5.01, 36.01 3.14, 45.78 -0.13" stroke="#1e1e1e" stroke-width="2" fill="none"></path></g><g stroke-opacity="0.5" fill-opacity="0.5" transform="translate(722.6276662916061 94.7539230948953) rotate(0 22.890402735972884 -0.1658699942502153)"><path d="M24.34 -8.15 C30.43 -6.91, 33.93 -4.18, 45.78 -0.13 M24.34 -8.15 C30.06 -6.29, 36.09 -3.81, 45.78 -0.13" stroke="#1e1e1e" stroke-width="2" fill="none"></path></g></g><mask></mask><g stroke-linecap="round"><g stroke-opacity="0.5" fill-opacity="0.5" transform="translate(144.25310866012796 114.23021413959191) rotate(0 22.890402735972884 -0.1753202033951311)"><path d="M0 0 C13.48 -0.52, 27.97 0.18, 45.78 -0.13 M0 0 C16.7 -0.47, 32.26 -0.42, 45.78 -0.13" stroke="#1e1e1e" stroke-width="2" fill="none"></path></g><g stroke-opacity="0.5" fill-opacity="0.5" transform="translate(144.25310866012796 114.23021413959191) rotate(0 22.890402735972884 -0.1753202033951311)"><path d="M24.16 7.38 C30.01 4.44, 36.89 2.82, 45.78 -0.13 M24.16 7.38 C32.29 4.3, 39.25 1.73, 45.78 -0.13" stroke="#1e1e1e" stroke-width="2" fill="none"></path></g><g stroke-opacity="0.5" fill-opacity="0.5" transform="translate(144.25310866012796 114.23021413959191) rotate(0 22.890402735972884 -0.1753202033951311)"><path d="M24.39 -8.28 C30.22 -6.29, 37.03 -2.98, 45.78 -0.13 M24.39 -8.28 C32.37 -5.78, 39.24 -2.78, 45.78 -0.13" stroke="#1e1e1e" stroke-width="2" fill="none"></path></g></g><mask></mask><g stroke-linecap="round"><g transform="translate(246.16883536370506 211.19253253735133) rotate(0 24.11891074796972 -0.2171070778695139)"><path d="M0 0 C10.95 0.69, 22.79 0.33, 48.24 -0.79 M0 0 C11.09 0.15, 21.93 -0.79, 48.24 -0.79" stroke="#1e1e1e" stroke-width="2" fill="none"></path></g><g transform="translate(246.16883536370506 211.19253253735133) rotate(0 24.11891074796972 -0.2171070778695139)"><path d="M47.33 -0.41 L34.47 5.65 L35.06 -7.21 L47.43 -0.51" stroke="none" stroke-width="0" fill="#1e1e1e" fill-rule="evenodd"></path><path d="M48.24 -0.79 C44.65 1.3, 41.7 2.72, 34.71 5.69 M48.24 -0.79 C45.45 0.85, 42.46 1.72, 34.71 5.69 M34.71 5.69 C35.26 0.37, 34.77 -3.44, 34.58 -6.99 M34.71 5.69 C34.61 1.23, 34.38 -2.99, 34.58 -6.99 M34.58 -6.99 C40.01 -4.95, 45.82 -2.65, 48.24 -0.79 M34.58 -6.99 C38.94 -5.43, 42.83 -3.22, 48.24 -0.79 M48.24 -0.79 C48.24 -0.79, 48.24 -0.79, 48.24 -0.79 M48.24 -0.79 C48.24 -0.79, 48.24 -0.79, 48.24 -0.79" stroke="#1e1e1e" stroke-width="2" fill="none"></path></g></g><mask></mask><g stroke-linecap="round"><g transform="translate(981.9473064237 124.18807708982513) rotate(0 26.72601041019675 -0.02083399252808249)"><path d="M0 0 C17.88 -0.78, 38.82 -0.91, 53.45 -0.13 M0 0 C19.37 0.96, 40.28 0.69, 53.45 -0.13" stroke="#1e1e1e" stroke-width="2" fill="none"></path></g><g transform="translate(981.9473064237 124.18807708982513) rotate(0 26.72601041019675 -0.02083399252808249)"><path d="M30.34 9.39 C37.23 5.21, 47.15 1.66, 53.45 -0.13 M30.34 9.39 C38.19 6.74, 47.6 2.91, 53.45 -0.13" stroke="#1e1e1e" stroke-width="2" fill="none"></path></g><g transform="translate(981.9473064237 124.18807708982513) rotate(0 26.72601041019675 -0.02083399252808249)"><path d="M29.62 -7.69 C36.71 -5.67, 46.89 -3.01, 53.45 -0.13 M29.62 -7.69 C37.77 -3.86, 47.45 -1.22, 53.45 -0.13" stroke="#1e1e1e" stroke-width="2" fill="none"></path></g></g><mask></mask><g stroke-linecap="round"><g transform="translate(331.75199120749176 130.8210680881) rotate(0 23.9154155191668 0.384269809710986)"><path d="M0 0 C18.84 0.25, 36.74 -0.06, 47.83 0.77 M0 0 C16.65 0.47, 32.25 0.75, 47.83 0.77" stroke="#1e1e1e" stroke-width="2" fill="none"></path></g><g transform="translate(331.75199120749176 130.8210680881) rotate(0 23.9154155191668 0.384269809710986)"><path d="M48.21 0.53 L34.16 7.5 L34.06 -6.46 L48.1 0.54" stroke="none" stroke-width="0" fill="#1e1e1e" fill-rule="evenodd"></path><path d="M47.83 0.77 C43.25 2.97, 37.97 4.89, 34.2 7.02 M47.83 0.77 C43.36 3.21, 38.12 5.36, 34.2 7.02 M34.2 7.02 C33.67 4.39, 34.6 1.88, 34.28 -5.65 M34.2 7.02 C34.26 3.47, 34.49 0.75, 34.28 -5.65 M34.28 -5.65 C36.68 -3.91, 39.3 -3.08, 47.83 0.77 M34.28 -5.65 C36.68 -4.16, 39.82 -3.08, 47.83 0.77 M47.83 0.77 C47.83 0.77, 47.83 0.77, 47.83 0.77 M47.83 0.77 C47.83 0.77, 47.83 0.77, 47.83 0.77" stroke="#1e1e1e" stroke-width="2" fill="none"></path></g></g><mask></mask><g stroke-linecap="round"><g transform="translate(1122.2863205024382 208.64181186975293) rotate(0 28.94036686009713 0.5968544892314185)"><path d="M0 0 C14.5 0.18, 27.91 0.72, 57.88 1.05 M0 0 C12.85 1.24, 24.31 1.36, 57.88 1.05" stroke="#1e1e1e" stroke-width="2" fill="none"></path></g><g transform="translate(1122.2863205024382 208.64181186975293) rotate(0 28.94036686009713 0.5968544892314185)"><path d="M34.44 9.74 C40.76 7.75, 46.04 6, 57.88 1.05 M34.44 9.74 C39.9 8.79, 44.01 6.84, 57.88 1.05" stroke="#1e1e1e" stroke-width="2" fill="none"></path></g><g transform="translate(1122.2863205024382 208.64181186975293) rotate(0 28.94036686009713 0.5968544892314185)"><path d="M34.34 -7.36 C40.78 -5.32, 46.09 -3.04, 57.88 1.05 M34.34 -7.36 C39.9 -4.66, 44.03 -2.97, 57.88 1.05" stroke="#1e1e1e" stroke-width="2" fill="none"></path></g></g><mask></mask><g stroke-linecap="round"><g transform="translate(477.0672990190151 229.51138837295048) rotate(0 28.116519013743073 -0.40333269183611264)"><path d="M0 0 C14.09 0.66, 27.31 0.18, 56.23 -0.45 M0 0 C16.25 -1.42, 31.84 -1.4, 56.23 -0.45" stroke="#1e1e1e" stroke-width="2" fill="none"></path></g><g transform="translate(477.0672990190151 229.51138837295048) rotate(0 28.116519013743073 -0.40333269183611264)"><path d="M55.76 -0.52 L43.41 5.05 L41.22 -6.64 L55.78 0.49" stroke="none" stroke-width="0" fill="#1e1e1e" fill-rule="evenodd"></path><path d="M56.23 -0.45 C52.43 2.08, 47.99 3.33, 42.45 5.48 M56.23 -0.45 C52.98 0.52, 49.19 2.27, 42.45 5.48 M42.45 5.48 C42.64 3.17, 43.16 -0.97, 42.83 -7.19 M42.45 5.48 C42.03 3.29, 43.25 -0.29, 42.83 -7.19 M42.83 -7.19 C48.4 -5.85, 52.13 -3.85, 56.23 -0.45 M42.83 -7.19 C46.28 -5.5, 48.7 -4.23, 56.23 -0.45 M56.23 -0.45 C56.23 -0.45, 56.23 -0.45, 56.23 -0.45 M56.23 -0.45 C56.23 -0.45, 56.23 -0.45, 56.23 -0.45" stroke="#1e1e1e" stroke-width="2" fill="none"></path></g></g><mask></mask><g stroke-linecap="round"><g transform="translate(856.5589161683124 366.794006205183) rotate(0 24.93686846528726 -0.4128570774578293)"><path d="M0 0 C17.13 -0.72, 34.37 -0.24, 49.87 -0.83 M0 0 C16.56 -0.63, 33.34 -0.19, 49.87 -0.83" stroke="#1e1e1e" stroke-width="2" fill="none"></path></g><g transform="translate(856.5589161683124 366.794006205183) rotate(0 24.93686846528726 -0.4128570774578293)"><path d="M26.64 8.24 C34.69 4.71, 42.89 2.4, 49.87 -0.83 M26.64 8.24 C34.28 4.87, 42.11 2.55, 49.87 -0.83" stroke="#1e1e1e" stroke-width="2" fill="none"></path></g><g transform="translate(856.5589161683124 366.794006205183) rotate(0 24.93686846528726 -0.4128570774578293)"><path d="M26.25 -8.82 C34.51 -6.55, 42.83 -3.08, 49.87 -0.83 M26.25 -8.82 C33.99 -6.47, 41.96 -3.07, 49.87 -0.83" stroke="#1e1e1e" stroke-width="2" fill="none"></path></g></g><mask></mask><g stroke-linecap="round"><g transform="translate(717.0228450873942 282.3871276424293) rotate(0 26.24808010438528 0.04928187798464023)"><path d="M0 0 C17.74 -1.81, 37.38 1.47, 52.5 -0.13 M0 0 C20.25 0.35, 40.51 1.37, 52.5 -0.13" stroke="#1e1e1e" stroke-width="2" fill="none"></path></g><g transform="translate(717.0228450873942 282.3871276424293) rotate(0 26.24808010438528 0.04928187798464023)"><path d="M29.55 9.79 C37.13 4.55, 46.69 4.5, 52.5 -0.13 M29.55 9.79 C38.58 6.15, 47.65 3.46, 52.5 -0.13" stroke="#1e1e1e" stroke-width="2" fill="none"></path></g><g transform="translate(717.0228450873942 282.3871276424293) rotate(0 26.24808010438528 0.04928187798464023)"><path d="M28.54 -7.28 C36.61 -6.7, 46.52 -0.93, 52.5 -0.13 M28.54 -7.28 C37.99 -4.44, 47.44 -0.66, 52.5 -0.13" stroke="#1e1e1e" stroke-width="2" fill="none"></path></g></g><mask></mask><g stroke-linecap="round" transform="translate(635.8045342973478 249.80170165263053) rotate(0 32.141965536687394 30.802716972658573)"><path d="M0 0 C17.02 0.19, 33.14 0.05, 64.28 0 M0 0 C21.96 -0.86, 44.68 -0.6, 64.28 0 M64.28 0 C65.93 13.8, 64.07 28.6, 64.28 61.61 M64.28 0 C65.41 19.34, 64.53 38.96, 64.28 61.61 M64.28 61.61 C41.82 63.04, 19.64 60.65, 0 61.61 M64.28 61.61 C49.51 60.98, 35.28 61.51, 0 61.61 M0 61.61 C-0.07 48.57, -1.94 34.39, 0 0 M0 61.61 C0.92 46.36, -0.72 31.81, 0 0" stroke="#1e1e1e" stroke-width="2" fill="none"></path></g><g stroke-linecap="round" transform="translate(17.19466358241516 166.38937868215703) rotate(0 32.141965536687394 30.802716972658686)"><path d="M0 0 C15.57 1.25, 30.15 -1.83, 64.28 0 M0 0 C24.82 -0.51, 48.07 0.94, 64.28 0 M64.28 0 C63.53 21.42, 62.35 44.32, 64.28 61.61 M64.28 0 C63.76 23.93, 64.28 48.15, 64.28 61.61 M64.28 61.61 C47.39 59.34, 27.87 61.4, 0 61.61 M64.28 61.61 C43.41 62.44, 25.49 61.25, 0 61.61 M0 61.61 C-1.97 45.52, 0.01 26.77, 0 0 M0 61.61 C-0.27 49.19, -0.45 35.01, 0 0" stroke="#1e1e1e" stroke-width="2" fill="none"></path></g><g transform="translate(641.1615285534635 253.14982306270258) rotate(0 27.075523376464844 7.175650201219696)"><text x="0" y="10.057391322029586" font-family="Virgil, Segoe UI Emoji" font-size="11.481040321951582px" fill="#1e1e1e" text-anchor="start" style="white-space: pre;" direction="ltr" dominant-baseline="alphabetic">Controller</text></g><g transform="translate(22.551657838530446 169.73750009222863) rotate(0 27.075523376464844 7.175650201219696)"><text x="0" y="10.057391322029586" font-family="Virgil, Segoe UI Emoji" font-size="11.481040321951582px" fill="#1e1e1e" text-anchor="start" style="white-space: pre;" direction="ltr" dominant-baseline="alphabetic">Controller</text></g><g stroke-linecap="round" transform="translate(653.2147656297207 275.2474243691745) rotate(0 15.4013584863294 15.4013584863294)"><path d="M0 0 C6.83 0.34, 14.68 0.97, 30.8 0 M0 0 C9.06 0.46, 17.2 -0.19, 30.8 0 M30.8 0 C31.26 8.13, 31.36 17.14, 30.8 30.8 M30.8 0 C30.41 10.57, 30.7 21.79, 30.8 30.8 M30.8 30.8 C18.43 30.15, 7.04 31.74, 0 30.8 M30.8 30.8 C19.05 30.68, 6.7 30.4, 0 30.8 M0 30.8 C0.85 18.8, -0.02 8.26, 0 0 M0 30.8 C0.41 23.61, -0.32 15.95, 0 0" stroke="#1e1e1e" stroke-width="2" fill="none"></path></g><g stroke-linecap="round" transform="translate(34.604894914787565 191.83510139870123) rotate(0 15.4013584863294 15.4013584863294)"><path d="M0 0 C9.22 -1.08, 17.77 -0.93, 30.8 0 M0 0 C7.3 0.4, 14.69 -0.06, 30.8 0 M30.8 0 C29.92 6.89, 31.73 11.6, 30.8 30.8 M30.8 0 C31.1 10.43, 30.78 21.1, 30.8 30.8 M30.8 30.8 C24.9 30.84, 17.73 30.62, 0 30.8 M30.8 30.8 C22.23 30.78, 12.6 31.2, 0 30.8 M0 30.8 C0.3 20.93, -0.78 11.53, 0 0 M0 30.8 C-0.1 21.88, 0.14 13.65, 0 0" stroke="#1e1e1e" stroke-width="2" fill="none"></path></g><g transform="translate(658.5717598858355 278.438387796622) rotate(0 10.147895812988281 12.946035589653548)"><text x="0" y="18.145163482458567" font-family="Virgil, Segoe UI Emoji" font-size="20.71365694344585px" fill="#1e1e1e" text-anchor="start" style="white-space: pre;" direction="ltr" dominant-baseline="alphabetic">pk</text></g><g transform="translate(39.961889170902396 195.02606482614829) rotate(0 10.147895812988281 12.946035589653548)"><text x="0" y="18.145163482458567" font-family="Virgil, Segoe UI Emoji" font-size="20.71365694344585px" fill="#1e1e1e" text-anchor="start" style="white-space: pre;" direction="ltr" dominant-baseline="alphabetic">pk</text></g><g stroke-linecap="round" transform="translate(711.6291415117776 46.85942380289589) rotate(0 117.89470472279572 182.38290726470086)"><path d="M0 0 C91.24 2.05, 182.06 3.13, 235.79 0 M235.79 0 C234 131.11, 234.07 263.64, 235.79 364.77 M235.79 364.77 C163.45 367.35, 88.56 365.31, 0 364.77 M0 364.77 C0.47 239.23, 0.98 111.83, 0 0" stroke="#1e1e1e" stroke-width="2.5" fill="none" stroke-dasharray="8 10"></path></g><g stroke-linecap="round" transform="translate(136.60840655852326 53.56403153713063) rotate(0 83.75605212304777 101.31457563022491)"><path d="M0 0 C60.9 -0.03, 117.58 3.39, 167.51 0 M167.51 0 C168.7 41.23, 166.08 83.45, 167.51 202.63 M167.51 202.63 C120.33 201.74, 70.28 203.77, 0 202.63 M0 202.63 C-1.17 150.41, -2.6 103.45, 0 0" stroke="#1e1e1e" stroke-width="2.5" fill="none" stroke-dasharray="8 10"></path></g><g stroke-linecap="round" transform="translate(968.1561706088496 46.8766514196509) rotate(0 108.6528011730245 107.24040241062835)"><path d="M0 0 C61.25 -0.52, 124 -0.03, 217.31 0 M217.31 0 C218.53 71.65, 217.31 139.63, 217.31 214.48 M217.31 214.48 C169.78 215.56, 123.5 215.16, 0 214.48 M0 214.48 C2.82 136.46, 2.98 62.39, 0 0" stroke="#1e1e1e" stroke-width="2.5" fill="none" stroke-dasharray="8 10"></path></g><g stroke-linecap="round" transform="translate(317.47148151049623 54.02826173807625) rotate(0 109.44694938129055 107.24040241062835)"><path d="M0 0 C79.42 -2.52, 163.28 -3, 218.89 0 M218.89 0 C219.15 66.13, 219.42 135.51, 218.89 214.48 M218.89 214.48 C170.04 217.19, 124.6 215.43, 0 214.48 M0 214.48 C-0.33 136.15, 3.11 59.35, 0 0" stroke="#1e1e1e" stroke-width="2.5" fill="none" stroke-dasharray="8 10"></path></g><g transform="translate(717.2074700750077 52.279852240947775) rotate(0 11.745826721191406 8.180086624241198)"><text x="0" y="11.465209412536543" font-family="Virgil, Segoe UI Emoji" font-size="13.088138598786008px" fill="#1e1e1e" text-anchor="start" style="white-space: pre;" direction="ltr" dominant-baseline="alphabetic">Init</text></g><g transform="translate(143.22070752202353 58.546860612103956) rotate(0 11.745826721191406 8.180086624241312)"><text x="0" y="11.465209412536543" font-family="Virgil, Segoe UI Emoji" font-size="13.088138598786008px" fill="#1e1e1e" text-anchor="start" style="white-space: pre;" direction="ltr" dominant-baseline="alphabetic">Init</text></g><g transform="translate(974.4998985291281 52.63172356579207) rotate(0 23.249679565429688 8.180086624241312)"><text x="0" y="11.465209412536543" font-family="Virgil, Segoe UI Emoji" font-size="13.088138598786008px" fill="#1e1e1e" text-anchor="start" style="white-space: pre;" direction="ltr" dominant-baseline="alphabetic">Update</text></g><g transform="translate(330.51273776250036 60.52847015315888) rotate(0 23.249679565429688 8.180086624241198)"><text x="0" y="11.465209412536543" font-family="Virgil, Segoe UI Emoji" font-size="13.088138598786008px" fill="#1e1e1e" text-anchor="start" style="white-space: pre;" direction="ltr" dominant-baseline="alphabetic">Update</text></g><g transform="translate(812.8466441683354 13.741613475518989) rotate(0 89.8790512084961 12.912264528710239)"><text x="0" y="18.09782996344026" font-family="Virgil, Segoe UI Emoji" font-size="20.65962324593637px" fill="#1e1e1e" text-anchor="start" style="white-space: pre;" direction="ltr" dominant-baseline="alphabetic">Counter interface</text></g><g transform="translate(177.28470258039079 18.303849146765742) rotate(0 101.38109588623047 12.912264528710239)"><text x="0" y="18.097829963440255" font-family="Virgil, Segoe UI Emoji" font-size="20.659623245936366px" fill="#1e1e1e" text-anchor="start" style="white-space: pre;" direction="ltr" dominant-baseline="alphabetic">CounterId interface</text></g><g stroke-linecap="round" transform="translate(617.5466183590884 10) rotate(0 290.56189360482585 206.7013107102698)"><path d="M0 0 C221.06 -1.87, 442.98 -1.52, 581.12 0 M581.12 0 C579.11 86.92, 579.04 172.56, 581.12 413.4 M581.12 413.4 C450.85 414.25, 318.69 414.6, 0 413.4 M0 413.4 C-0.97 329.09, -1 244.75, 0 0" stroke="#1e1e1e" stroke-width="2.5" fill="none" stroke-dasharray="8 10"></path></g><g stroke-linecap="round" transform="translate(10 14.99747513552802) rotate(0 280.6762357028449 198.18187372372336)"><path d="M0 0 C177.16 -1.89, 354.77 -1.17, 561.35 0 M561.35 0 C561.64 86.05, 562.8 170.36, 561.35 396.36 M561.35 396.36 C359.52 395.54, 160.04 395.54, 0 396.36 M0 396.36 C-0.45 250.28, -1.53 105.34, 0 0" stroke="#1e1e1e" stroke-width="2.5" fill="none" stroke-dasharray="8 10"></path></g><g transform="translate(62.60358088710336 265.87454470350167) rotate(0 69.54380765814699 13.859175266584543)"><text x="69.54380765814697" y="9.712510026822393" font-family="Virgil, Segoe UI Emoji" font-size="11.087340213267572px" fill="#e03131" text-anchor="middle" style="white-space: pre;" direction="ltr" dominant-baseline="alphabetic">resource label contains </text><text x="69.54380765814697" y="23.57168529340686" font-family="Virgil, Segoe UI Emoji" font-size="11.087340213267572px" fill="#e03131" text-anchor="middle" style="white-space: pre;" direction="ltr" dominant-baseline="alphabetic">the controller's public key</text></g><g stroke-linecap="round"><g transform="translate(207.6214853756769 243.00523702533656) rotate(0 -74.60819970114994 20.41588942628573)"><path d="M0 0 C0 20.26, 0 40.52, -0.01 57.17 M0 0 C0 12.97, 0 25.93, -0.01 57.17 M-0.01 57.17 C-42.72 57.12, -85.44 57.07, -148.84 56.99 M-0.01 57.17 C-55.57 57.1, -111.13 57.03, -148.84 56.99 M-148.84 56.99 C-148.96 33.56, -149.08 10.13, -149.22 -16.34 M-148.84 56.99 C-148.93 39.02, -149.02 21.05, -149.22 -16.34" stroke="#e03131" stroke-width="2" fill="none"></path></g><g transform="translate(207.6214853756769 243.00523702533656) rotate(0 -74.60819970114994 20.41588942628573)"><path d="M-149.22 -16.34 L-142.81 -2.78 L-155.49 -2.71 L-149.22 -16.34" stroke="none" stroke-width="0" fill="#e03131" fill-rule="evenodd"></path><path d="M-149.22 -16.34 C-146.95 -11.54, -144.67 -6.73, -142.81 -2.78 M-149.22 -16.34 C-147.76 -13.27, -146.31 -10.19, -142.81 -2.78 M-142.81 -2.78 C-146.45 -2.76, -150.08 -2.74, -155.49 -2.71 M-142.81 -2.78 C-147.54 -2.76, -152.27 -2.73, -155.49 -2.71 M-155.49 -2.71 C-153.48 -7.07, -151.48 -11.42, -149.22 -16.34 M-155.49 -2.71 C-153.95 -6.05, -152.41 -9.39, -149.22 -16.34 M-149.22 -16.34 C-149.22 -16.34, -149.22 -16.34, -149.22 -16.34 M-149.22 -16.34 C-149.22 -16.34, -149.22 -16.34, -149.22 -16.34" stroke="#e03131" stroke-width="2" fill="none"></path></g></g><mask></mask><g transform="translate(256.90891690234866 358.79359405106607) rotate(0 15.535987854003906 10)"><text x="15.535987854003906" y="14.016" font-family="Virgil, Segoe UI Emoji" font-size="16px" fill="#1e1e1e" text-anchor="middle" style="white-space: pre;" direction="ltr" dominant-baseline="alphabetic">SIG</text></g><g transform="translate(649.1628974518339 342.3555402325446) rotate(0 9.986790289734017 6.42816561365953)"><text x="9.986790289734026" y="9.009716924105218" font-family="Virgil, Segoe UI Emoji" font-size="10.285064981855273px" fill="#1e1e1e" text-anchor="middle" style="white-space: pre;" direction="ltr" dominant-baseline="alphabetic">SIG</text></g><g stroke-linecap="round" transform="translate(232.39020609713089 345.23907242733367) rotate(0 41.02598523546794 23.7675274888868)"><path d="M0 0 C17.29 0, 34.57 0, 82.05 0 M0 0 C32.12 0, 64.24 0, 82.05 0 M82.05 0 C82.05 10.37, 82.05 20.73, 82.05 47.54 M82.05 0 C82.05 16.21, 82.05 32.41, 82.05 47.54 M82.05 47.54 C52.48 47.54, 22.92 47.54, 0 47.54 M82.05 47.54 C55.71 47.54, 29.36 47.54, 0 47.54 M0 47.54 C0 30.81, 0 14.08, 0 0 M0 47.54 C0 28.83, 0 10.13, 0 0" stroke="#1e1e1e" stroke-width="2" fill="none"></path></g><g stroke-linecap="round" transform="translate(633.4018640828976 333.6424692514165) rotate(0 26.372182755713993 15.278160292577013)"><path d="M0 0 C18.41 0, 36.82 0, 52.74 0 M0 0 C17.2 0, 34.41 0, 52.74 0 M52.74 0 C52.74 11.25, 52.74 22.5, 52.74 30.56 M52.74 0 C52.74 6.97, 52.74 13.95, 52.74 30.56 M52.74 30.56 C38.18 30.56, 23.61 30.56, 0 30.56 M52.74 30.56 C41.4 30.56, 30.06 30.56, 0 30.56 M0 30.56 C0 19.67, 0 8.78, 0 0 M0 30.56 C0 23.03, 0 15.5, 0 0" stroke="#1e1e1e" stroke-width="2" fill="none"></path></g><g stroke-linecap="round"><g transform="translate(315.09679996299974 361.518985186799) rotate(0 38.51051821045985 -46.06067217389341)"><path d="M0 0 C29.32 -0.11, 58.65 -0.22, 77.02 -0.29 M0 0 C21.83 -0.08, 43.67 -0.17, 77.02 -0.29 M77.02 -0.29 C76.91 -27.69, 76.8 -55.09, 76.65 -92.12 M77.02 -0.29 C76.88 -35.13, 76.74 -69.96, 76.65 -92.12" stroke="#1e1e1e" stroke-width="2" fill="none"></path></g><g transform="translate(315.09679996299974 361.518985186799) rotate(0 38.51051821045985 -46.06067217389341)"><path d="M76.65 -92.12 L83.04 -78.55 L70.36 -78.5 L76.65 -92.12" stroke="none" stroke-width="0" fill="#1e1e1e" fill-rule="evenodd"></path><path d="M76.65 -92.12 C79.08 -86.96, 81.52 -81.79, 83.04 -78.55 M76.65 -92.12 C78.46 -88.27, 80.27 -84.43, 83.04 -78.55 M83.04 -78.55 C79.26 -78.54, 75.48 -78.52, 70.36 -78.5 M83.04 -78.55 C78.23 -78.53, 73.42 -78.51, 70.36 -78.5 M70.36 -78.5 C72.59 -83.32, 74.81 -88.14, 76.65 -92.12 M70.36 -78.5 C72 -82.06, 73.64 -85.61, 76.65 -92.12 M76.65 -92.12 C76.65 -92.12, 76.65 -92.12, 76.65 -92.12 M76.65 -92.12 C76.65 -92.12, 76.65 -92.12, 76.65 -92.12" stroke="#1e1e1e" stroke-width="2" fill="none"></path></g></g><mask></mask><g stroke-linecap="round"><g transform="translate(686.8766428051272 349.1005823186306) rotate(0 10.872235769034432 -0.4682616833792963)"><path d="M0 0 C4.79 -0.21, 9.58 -0.41, 21.74 -0.94 M0 0 C6.27 -0.27, 12.55 -0.54, 21.74 -0.94" stroke="#1e1e1e" stroke-width="2" fill="none"></path></g><g transform="translate(686.8766428051272 349.1005823186306) rotate(0 10.872235769034432 -0.4682616833792963)"><path d="M21.74 -0.94 L12.09 4.08 L11.69 -5.11 L21.74 -0.94" stroke="none" stroke-width="0" fill="#1e1e1e" fill-rule="evenodd"></path><path d="M21.74 -0.94 C19.62 0.17, 17.49 1.28, 12.09 4.08 M21.74 -0.94 C18.96 0.51, 16.17 1.96, 12.09 4.08 M12.09 4.08 C11.98 1.56, 11.87 -0.96, 11.69 -5.11 M12.09 4.08 C11.94 0.73, 11.8 -2.62, 11.69 -5.11 M11.69 -5.11 C15.08 -3.7, 18.46 -2.3, 21.74 -0.94 M11.69 -5.11 C13.72 -4.27, 15.74 -3.43, 21.74 -0.94 M21.74 -0.94 C21.74 -0.94, 21.74 -0.94, 21.74 -0.94 M21.74 -0.94 C21.74 -0.94, 21.74 -0.94, 21.74 -0.94" stroke="#1e1e1e" stroke-width="2" fill="none"></path></g></g><mask></mask><g stroke-linecap="round"><g transform="translate(267.1601631435119 343.53452723919054) rotate(0 -0.8172535952351154 -43.1554128667392)"><path d="M0 0 C-0.5 -26.52, -1 -53.03, -1.63 -86.31 M0 0 C-0.58 -30.59, -1.16 -61.19, -1.63 -86.31" stroke="#1e1e1e" stroke-width="2" fill="none"></path></g><g transform="translate(267.1601631435119 343.53452723919054) rotate(0 -0.8172535952351154 -43.1554128667392)"><path d="M-1.63 -86.31 L4.96 -72.84 L-7.72 -72.6 L-1.63 -86.31" stroke="none" stroke-width="0" fill="#1e1e1e" fill-rule="evenodd"></path><path d="M-1.63 -86.31 C0.39 -82.17, 2.42 -78.03, 4.96 -72.84 M-1.63 -86.31 C0.7 -81.54, 3.04 -76.76, 4.96 -72.84 M4.96 -72.84 C0.65 -72.76, -3.67 -72.68, -7.72 -72.6 M4.96 -72.84 C0.77 -72.76, -3.41 -72.68, -7.72 -72.6 M-7.72 -72.6 C-6.48 -75.4, -5.23 -78.19, -1.63 -86.31 M-7.72 -72.6 C-5.42 -77.76, -3.13 -82.93, -1.63 -86.31 M-1.63 -86.31 C-1.63 -86.31, -1.63 -86.31, -1.63 -86.31 M-1.63 -86.31 C-1.63 -86.31, -1.63 -86.31, -1.63 -86.31" stroke="#1e1e1e" stroke-width="2" fill="none"></path></g></g><mask></mask><g stroke-linecap="round"><g transform="translate(230.23106697099274 379.2663212152743) rotate(0 -93.36874958711246 -76.63549608354765)"><path d="M0 0 C-68.55 -0.29, -137.1 -0.59, -186.11 -0.8 M0 0 C-69.41 -0.3, -138.83 -0.6, -186.11 -0.8 M-186.11 -0.8 C-186.29 -45.44, -186.48 -90.07, -186.74 -153.27 M-186.11 -0.8 C-186.32 -52.31, -186.53 -103.81, -186.74 -153.27" stroke="#e03131" stroke-width="2" fill="none"></path></g><g transform="translate(230.23106697099274 379.2663212152743) rotate(0 -93.36874958711246 -76.63549608354765)"><path d="M-186.74 -153.27 L-180.34 -139.7 L-193.02 -139.65 L-186.74 -153.27" stroke="none" stroke-width="0" fill="#e03131" fill-rule="evenodd"></path><path d="M-186.74 -153.27 C-184.38 -148.27, -182.03 -143.28, -180.34 -139.7 M-186.74 -153.27 C-184.35 -148.21, -181.97 -143.15, -180.34 -139.7 M-180.34 -139.7 C-184.05 -139.69, -187.77 -139.67, -193.02 -139.65 M-180.34 -139.7 C-184.62 -139.68, -188.91 -139.67, -193.02 -139.65 M-193.02 -139.65 C-190.99 -144.05, -188.96 -148.46, -186.74 -153.27 M-193.02 -139.65 C-190.76 -144.56, -188.49 -149.47, -186.74 -153.27 M-186.74 -153.27 C-186.74 -153.27, -186.74 -153.27, -186.74 -153.27 M-186.74 -153.27 C-186.74 -153.27, -186.74 -153.27, -186.74 -153.27" stroke="#e03131" stroke-width="2" fill="none"></path></g></g><mask></mask><g transform="translate(60.548412785568416 313.2968706243664) rotate(0 82.38599084124053 29.007595486577657)"><text x="82.38599084124054" y="10.164261458496801" font-family="Virgil, Segoe UI Emoji" font-size="11.60303819463105px" fill="#e03131" text-anchor="middle" style="white-space: pre;" direction="ltr" dominant-baseline="alphabetic">CounterID logic requires </text><text x="82.38599084124054" y="24.668059201785617" font-family="Virgil, Segoe UI Emoji" font-size="11.60303819463105px" fill="#e03131" text-anchor="middle" style="white-space: pre;" direction="ltr" dominant-baseline="alphabetic">the controller to approve </text><text x="82.38599084124054" y="39.17185694507443" font-family="Virgil, Segoe UI Emoji" font-size="11.60303819463105px" fill="#e03131" text-anchor="middle" style="white-space: pre;" direction="ltr" dominant-baseline="alphabetic">the transaction by providing </text><text x="82.38599084124054" y="53.675654688363245" font-family="Virgil, Segoe UI Emoji" font-size="11.60303819463105px" fill="#e03131" text-anchor="middle" style="white-space: pre;" direction="ltr" dominant-baseline="alphabetic">a signature</text></g><g transform="translate(448.3589909246448 346.95240339122165) rotate(0 77.26245519665008 14.17348616700383)"><text x="77.26245519665008" y="9.932779105836296" font-family="Virgil, Segoe UI Emoji" font-size="11.338788933603077px" fill="#e03131" text-anchor="middle" style="white-space: pre;" direction="ltr" dominant-baseline="alphabetic">Initialising a new counter</text><text x="77.26245519665008" y="24.10626527284014" font-family="Virgil, Segoe UI Emoji" font-size="11.338788933603077px" fill="#e03131" text-anchor="middle" style="white-space: pre;" direction="ltr" dominant-baseline="alphabetic"> requires CounterId update</text></g><g stroke-linecap="round"><g transform="translate(441.66827929319015 271.03383130998736) rotate(0 91.6948181849848 54.75825003001205)"><path d="M0 0 C-0.08 29.77, -0.16 59.55, -0.29 109.52 M0 0 C-0.12 43.75, -0.23 87.51, -0.29 109.52 M-0.29 109.52 C55.92 109.43, 112.14 109.35, 183.68 109.25 M-0.29 109.52 C48.57 109.45, 97.44 109.37, 183.68 109.25" stroke="#e03131" stroke-width="2" fill="none"></path></g><g transform="translate(441.66827929319015 271.03383130998736) rotate(0 91.6948181849848 54.75825003001205)"><path d="M183.68 109.25 L170.1 115.61 L170.08 102.93 L183.68 109.25" stroke="none" stroke-width="0" fill="#e03131" fill-rule="evenodd"></path><path d="M183.68 109.25 C179.99 110.98, 176.29 112.71, 170.1 115.61 M183.68 109.25 C178.25 111.79, 172.83 114.33, 170.1 115.61 M170.1 115.61 C170.09 111.73, 170.08 107.86, 170.08 102.93 M170.1 115.61 C170.09 112.24, 170.09 108.87, 170.08 102.93 M170.08 102.93 C174.13 104.81, 178.19 106.7, 183.68 109.25 M170.08 102.93 C174.22 104.85, 178.36 106.78, 183.68 109.25 M183.68 109.25 C183.68 109.25, 183.68 109.25, 183.68 109.25 M183.68 109.25 C183.68 109.25, 183.68 109.25, 183.68 109.25" stroke="#e03131" stroke-width="2" fill="none"></path></g></g><mask></mask><g transform="translate(860.3814257951244 72.60198149408984) rotate(0 41.90649947724228 16.131130299034453)"><text x="41.906499477242235" y="7.536464075708887" font-family="Virgil, Segoe UI Emoji" font-size="8.603269492818365px" fill="#e03131" text-anchor="middle" style="white-space: pre;" direction="ltr" dominant-baseline="alphabetic">ephemeral resource </text><text x="41.906499477242235" y="18.290550941731844" font-family="Virgil, Segoe UI Emoji" font-size="8.603269492818365px" fill="#e03131" text-anchor="middle" style="white-space: pre;" direction="ltr" dominant-baseline="alphabetic">to balance </text><text x="41.906499477242235" y="29.044637807754796" font-family="Virgil, Segoe UI Emoji" font-size="8.603269492818365px" fill="#e03131" text-anchor="middle" style="white-space: pre;" direction="ltr" dominant-baseline="alphabetic">counter resources</text></g><g transform="translate(68.42686121471206 74.34350247257362) rotate(0 42.61724853515625 16.131130299034453)"><text x="42.61724853515625" y="7.536464075708887" font-family="Virgil, Segoe UI Emoji" font-size="8.603269492818365px" fill="#e03131" text-anchor="middle" style="white-space: pre;" direction="ltr" dominant-baseline="alphabetic">ephemeral resource </text><text x="42.61724853515625" y="18.290550941731844" font-family="Virgil, Segoe UI Emoji" font-size="8.603269492818365px" fill="#e03131" text-anchor="middle" style="white-space: pre;" direction="ltr" dominant-baseline="alphabetic">to balance </text><text x="42.61724853515625" y="29.044637807754796" font-family="Virgil, Segoe UI Emoji" font-size="8.603269492818365px" fill="#e03131" text-anchor="middle" style="white-space: pre;" direction="ltr" dominant-baseline="alphabetic">counterId resources</text></g><g stroke-linecap="round"><g transform="translate(664.4222411549003 312.15165954846543) rotate(0 -0.04694085008100046 10.220991549867449)"><path d="M0 0 C-0.02 5.32, -0.05 10.65, -0.09 20.44 M0 0 C-0.02 4.53, -0.04 9.06, -0.09 20.44" stroke="#1e1e1e" stroke-width="2" fill="none"></path></g><g transform="translate(664.4222411549003 312.15165954846543) rotate(0 -0.04694085008100046 10.220991549867449)"><path d="M-0.09 20.44 L-4.37 11.16 L4.27 11.2 L-0.09 20.44" stroke="none" stroke-width="0" fill="#1e1e1e" fill-rule="evenodd"></path><path d="M-0.09 20.44 C-1.21 18.02, -2.32 15.61, -4.37 11.16 M-0.09 20.44 C-1.04 18.39, -1.99 16.33, -4.37 11.16 M-4.37 11.16 C-1.26 11.17, 1.86 11.19, 4.27 11.2 M-4.37 11.16 C-1.25 11.17, 1.88 11.19, 4.27 11.2 M4.27 11.2 C3.34 13.18, 2.4 15.15, -0.09 20.44 M4.27 11.2 C3.02 13.83, 1.78 16.47, -0.09 20.44 M-0.09 20.44 C-0.09 20.44, -0.09 20.44, -0.09 20.44 M-0.09 20.44 C-0.09 20.44, -0.09 20.44, -0.09 20.44" stroke="#1e1e1e" stroke-width="2" fill="none"></path></g></g><mask></mask><g stroke-linecap="round"><g transform="translate(832.1137724445448 284.3102167154493) rotate(0 54.698244323629524 -45.32881576411319)"><path d="M0 0 C41.48 -0.22, 82.96 -0.45, 109.4 -0.59 M0 0 C21.96 -0.12, 43.92 -0.24, 109.4 -0.59 M109.4 -0.59 C109.17 -31.57, 108.95 -62.55, 108.74 -90.66 M109.4 -0.59 C109.2 -27.81, 109 -55.03, 108.74 -90.66 M108.74 -90.66 C79.89 -90.46, 51.04 -90.27, 0.34 -89.93 M108.74 -90.66 C77.42 -90.45, 46.11 -90.24, 0.34 -89.93" stroke="#e03131" stroke-width="2" fill="none"></path></g><g transform="translate(832.1137724445448 284.3102167154493) rotate(0 54.698244323629524 -45.32881576411319)"><path d="M0.34 -89.93 L13.89 -96.36 L13.98 -83.69 L0.34 -89.93" stroke="none" stroke-width="0" fill="#e03131" fill-rule="evenodd"></path><path d="M0.34 -89.93 C5.48 -92.37, 10.62 -94.81, 13.89 -96.36 M0.34 -89.93 C3.06 -91.22, 5.78 -92.52, 13.89 -96.36 M13.89 -96.36 C13.92 -92, 13.95 -87.64, 13.98 -83.69 M13.89 -96.36 C13.92 -92.53, 13.95 -88.7, 13.98 -83.69 M13.98 -83.69 C10.35 -85.35, 6.72 -87.01, 0.34 -89.93 M13.98 -83.69 C10.04 -85.49, 6.1 -87.3, 0.34 -89.93 M0.34 -89.93 C0.34 -89.93, 0.34 -89.93, 0.34 -89.93 M0.34 -89.93 C0.34 -89.93, 0.34 -89.93, 0.34 -89.93" stroke="#e03131" stroke-width="2" fill="none"></path></g></g><mask></mask><g transform="translate(860.9570867260077 225.83859593304987) rotate(0 39.005088806152344 27.46366995821063)"><text x="39.005088806152344" y="7.698615962685597" font-family="Virgil, Segoe UI Emoji" font-size="8.788374386627394px" fill="#e03131" text-anchor="middle" style="white-space: pre;" direction="ltr" dominant-baseline="alphabetic">the value of the </text><text x="39.005088806152344" y="18.68408394596984" font-family="Virgil, Segoe UI Emoji" font-size="8.788374386627394px" fill="#e03131" text-anchor="middle" style="white-space: pre;" direction="ltr" dominant-baseline="alphabetic">CounterId </text><text x="39.005088806152344" y="29.669551929254084" font-family="Virgil, Segoe UI Emoji" font-size="8.788374386627394px" fill="#e03131" text-anchor="middle" style="white-space: pre;" direction="ltr" dominant-baseline="alphabetic">resource goes to </text><text x="39.005088806152344" y="40.65501991253832" font-family="Virgil, Segoe UI Emoji" font-size="8.788374386627394px" fill="#e03131" text-anchor="middle" style="white-space: pre;" direction="ltr" dominant-baseline="alphabetic">the new counter </text><text x="39.005088806152344" y="51.640487895822574" font-family="Virgil, Segoe UI Emoji" font-size="8.788374386627394px" fill="#e03131" text-anchor="middle" style="white-space: pre;" direction="ltr" dominant-baseline="alphabetic">label and value</text></g><g stroke-linecap="round"><g transform="translate(850.7362371853178 193.94311200282164) rotate(0 -8.32523085377943 -13.318218375192373)"><path d="M0 0 C0.07 -7.25, 0.15 -14.5, 0.27 -26.64 M0 0 C0.06 -5.5, 0.11 -11, 0.27 -26.64 M0.27 -26.64 C-5.51 -26.52, -11.3 -26.4, -16.92 -26.29 M0.27 -26.64 C-3.61 -26.56, -7.49 -26.48, -16.92 -26.29" stroke="#e03131" stroke-width="2" fill="none"></path></g><g transform="translate(850.7362371853178 193.94311200282164) rotate(0 -8.32523085377943 -13.318218375192373)"><path d="M-16.92 -26.29 L-9.21 -30.08 L-9.06 -22.81 L-16.92 -26.29" stroke="none" stroke-width="0" fill="#e03131" fill-rule="evenodd"></path><path d="M-16.92 -26.29 C-14.82 -27.32, -12.72 -28.35, -9.21 -30.08 M-16.92 -26.29 C-15.33 -27.07, -13.73 -27.85, -9.21 -30.08 M-9.21 -30.08 C-9.16 -27.63, -9.11 -25.19, -9.06 -22.81 M-9.21 -30.08 C-9.17 -28.44, -9.14 -26.8, -9.06 -22.81 M-9.06 -22.81 C-11.64 -23.95, -14.23 -25.09, -16.92 -26.29 M-9.06 -22.81 C-11.2 -23.76, -13.35 -24.71, -16.92 -26.29 M-16.92 -26.29 C-16.92 -26.29, -16.92 -26.29, -16.92 -26.29 M-16.92 -26.29 C-16.92 -26.29, -16.92 -26.29, -16.92 -26.29" stroke="#e03131" stroke-width="2" fill="none"></path></g></g><mask></mask></svg>