<svg version="1.1" xmlns="http://www.w3.org/2000/svg" viewBox="0 0 717.7503236338935 460.13465165868956" width="1435.500647267787" height="920.2693033173791">
  <!-- svg-source:excalidraw -->
  <defs>
    <style class="style-fonts">
      @font-face {
        font-family: "Virgil";
        src: url("https://excalidraw.com/Virgil.woff2");
      }
      @font-face {
        font-family: "Cascadia";
        src: url("https://excalidraw.com/Cascadia.woff2");
      }
      @font-face {
        font-family: "Assistant";
        src: url("https://app.excalidraw.com//dist/excalidraw-assets/Assistant-Regular.woff2");
      }
    </style>
  </defs>
  <rect x="0" y="0" width="717.7503236338935" height="460.13465165868956" fill="#ffffff"></rect><g transform="translate(362.2309163422051 423.5197042540767) rotate(0 4.698822021484375 8.331806759918436)"><text x="0" y="11.677860354701604" font-family="Virgil, Segoe UI Emoji" font-size="13.330890815869413px" fill="#1e1e1e" text-anchor="start" style="white-space: pre;" direction="ltr" dominant-baseline="alphabetic">Q</text></g><g stroke-linecap="round" transform="translate(361.6687982565918 423.8920154284915) rotate(0 5.457462931449754 7.189867534600353)"><path d="M0 0 L10.91 0 L10.91 14.38 L0 14.38" stroke="none" stroke-width="0" fill="#ffffff"></path><path d="M0 0 C2.97 0, 5.95 0, 10.91 0 M0 0 C3.17 0, 6.34 0, 10.91 0 M10.91 0 C10.91 5.15, 10.91 10.29, 10.91 14.38 M10.91 0 C10.91 5.29, 10.91 10.58, 10.91 14.38 M10.91 14.38 C7.62 14.38, 4.32 14.38, 0 14.38 M10.91 14.38 C8.51 14.38, 6.1 14.38, 0 14.38 M0 14.38 C0 9.45, 0 4.52, 0 0 M0 14.38 C0 11.3, 0 8.22, 0 0" stroke="transparent" stroke-width="2" fill="none"></path></g><g stroke-linecap="round" transform="translate(360.4368699286242 401.745512428095) rotate(0 19.76882379198514 19.121061599534187)"><path d="M0 0 L39.54 0 L39.54 38.24 L0 38.24" stroke="none" stroke-width="0" fill="#ffffff"></path><path d="M0 0 C10.47 0, 20.93 0, 39.54 0 M0 0 C8.32 0, 16.63 0, 39.54 0 M39.54 0 C39.54 11.72, 39.54 23.45, 39.54 38.24 M39.54 0 C39.54 12.64, 39.54 25.27, 39.54 38.24 M39.54 38.24 C28 38.24, 16.46 38.24, 0 38.24 M39.54 38.24 C26.29 38.24, 13.04 38.24, 0 38.24 M0 38.24 C0 30.21, 0 22.17, 0 0 M0 38.24 C0 30.18, 0 22.11, 0 0" stroke="#1e1e1e" stroke-width="2" fill="none"></path></g><g transform="translate(364.0960107587307 405.5449408434829) rotate(0 16.75189208984375 9.040242770544182)"><text x="0" y="12.670804267194761" font-family="Virgil, Segoe UI Emoji" font-size="14.464388432870733px" fill="#1e1e1e" text-anchor="start" style="white-space: pre;" direction="ltr" dominant-baseline="alphabetic">Bond</text></g><g stroke-linecap="round"><g transform="translate(360.8238259525697 422.6017801971889) rotate(0 19.703792450317906 -0.10150975295960052)"><path d="M0 0 C13.31 -0.07, 26.63 -0.14, 39.41 -0.2 M0 0 C8.42 -0.04, 16.85 -0.09, 39.41 -0.2" stroke="#1e1e1e" stroke-width="1" fill="none"></path></g></g><mask></mask><g stroke-linecap="round"><g transform="translate(373.991986451495 423.10319750039935) rotate(0 0.05858952184280497 7.95659332090645)"><path d="M0 0 C0.03 3.54, 0.05 7.07, 0.12 15.91 M0 0 C0.04 4.94, 0.07 9.88, 0.12 15.91" stroke="#1e1e1e" stroke-width="1" fill="none"></path></g></g><mask></mask><g stroke-linecap="round"><g transform="translate(386.558889963856 423.18887015841165) rotate(0 0.05858952184280497 7.95659332090645)"><path d="M0 0 C0.03 3.81, 0.06 7.63, 0.12 15.91 M0 0 C0.03 4.47, 0.07 8.95, 0.12 15.91" stroke="#1e1e1e" stroke-width="1" fill="none"></path></g></g><mask></mask><g transform="translate(375.2470180614928 423.3504520170104) rotate(0 4.135993957519531 10)"><text x="4.135993957519531" y="14.016" font-family="Virgil, Segoe UI Emoji" font-size="16px" fill="#1e1e1e" text-anchor="middle" style="white-space: pre;" direction="ltr" dominant-baseline="alphabetic">V</text></g><g transform="translate(387.38144485383873 423.21680641490275) rotate(0 5.8079986572265625 10)"><text x="5.8079986572265625" y="14.016" font-family="Virgil, Segoe UI Emoji" font-size="16px" fill="#1e1e1e" text-anchor="middle" style="white-space: pre;" direction="ltr" dominant-baseline="alphabetic">O</text></g><g transform="translate(361.5904001591134 422.392052771263) rotate(0 5.257001126956311 9.320924992660593)"><text x="5.2570011269564585" y="13.06420846971308" font-family="Virgil, Segoe UI Emoji" font-size="14.913479988256942px" fill="#1e1e1e" text-anchor="middle" style="white-space: pre;" direction="ltr" dominant-baseline="alphabetic">Q</text></g><g transform="translate(352.2309163422051 413.5197042540767) rotate(0 4.698822021484375 8.331806759918436)"><text x="0" y="11.677860354701604" font-family="Virgil, Segoe UI Emoji" font-size="13.330890815869413px" fill="#1e1e1e" text-anchor="start" style="white-space: pre;" direction="ltr" dominant-baseline="alphabetic">Q</text></g><g stroke-linecap="round" transform="translate(351.6687982565918 413.8920154284915) rotate(0 5.457462931449754 7.189867534600353)"><path d="M0 0 L10.91 0 L10.91 14.38 L0 14.38" stroke="none" stroke-width="0" fill="#ffffff"></path><path d="M0 0 C3.29 0, 6.57 0, 10.91 0 M0 0 C2.54 0, 5.07 0, 10.91 0 M10.91 0 C10.91 3.32, 10.91 6.65, 10.91 14.38 M10.91 0 C10.91 3.92, 10.91 7.83, 10.91 14.38 M10.91 14.38 C7.75 14.38, 4.58 14.38, 0 14.38 M10.91 14.38 C7.01 14.38, 3.1 14.38, 0 14.38 M0 14.38 C0 9.09, 0 3.8, 0 0 M0 14.38 C0 10.03, 0 5.69, 0 0" stroke="transparent" stroke-width="2" fill="none"></path></g><g stroke-linecap="round" transform="translate(350.4368699286242 391.745512428095) rotate(0 19.76882379198514 19.121061599534187)"><path d="M0 0 L39.54 0 L39.54 38.24 L0 38.24" stroke="none" stroke-width="0" fill="#ffffff"></path><path d="M0 0 C8.03 0, 16.05 0, 39.54 0 M0 0 C15.11 0, 30.22 0, 39.54 0 M39.54 0 C39.54 10.52, 39.54 21.04, 39.54 38.24 M39.54 0 C39.54 10.12, 39.54 20.25, 39.54 38.24 M39.54 38.24 C31.22 38.24, 22.91 38.24, 0 38.24 M39.54 38.24 C27.42 38.24, 15.3 38.24, 0 38.24 M0 38.24 C0 25.61, 0 12.97, 0 0 M0 38.24 C0 27.08, 0 15.92, 0 0" stroke="#1e1e1e" stroke-width="2" fill="none"></path></g><g transform="translate(354.0960107587307 395.5449408434829) rotate(0 16.75189208984375 9.040242770544182)"><text x="0" y="12.670804267194761" font-family="Virgil, Segoe UI Emoji" font-size="14.464388432870733px" fill="#1e1e1e" text-anchor="start" style="white-space: pre;" direction="ltr" dominant-baseline="alphabetic">Bond</text></g><g stroke-linecap="round"><g transform="translate(350.8238259525697 412.6017801971889) rotate(0 19.703792450317906 -0.10150975295960052)"><path d="M0 0 C14.73 -0.08, 29.46 -0.15, 39.41 -0.2 M0 0 C10.94 -0.06, 21.88 -0.11, 39.41 -0.2" stroke="#1e1e1e" stroke-width="1" fill="none"></path></g></g><mask></mask><g stroke-linecap="round"><g transform="translate(363.991986451495 413.10319750039935) rotate(0 0.05858952184280497 7.95659332090645)"><path d="M0 0 C0.03 4.6, 0.07 9.19, 0.12 15.91 M0 0 C0.04 6, 0.09 12, 0.12 15.91" stroke="#1e1e1e" stroke-width="1" fill="none"></path></g></g><mask></mask><g stroke-linecap="round"><g transform="translate(376.558889963856 413.18887015841165) rotate(0 0.05858952184280497 7.95659332090645)"><path d="M0 0 C0.03 4.75, 0.07 9.49, 0.12 15.91 M0 0 C0.05 6.25, 0.09 12.51, 0.12 15.91" stroke="#1e1e1e" stroke-width="1" fill="none"></path></g></g><mask></mask><g transform="translate(365.2470180614928 413.3504520170104) rotate(0 4.135993957519531 10)"><text x="4.135993957519531" y="14.016" font-family="Virgil, Segoe UI Emoji" font-size="16px" fill="#1e1e1e" text-anchor="middle" style="white-space: pre;" direction="ltr" dominant-baseline="alphabetic">V</text></g><g transform="translate(377.38144485383873 413.21680641490275) rotate(0 5.8079986572265625 10)"><text x="5.8079986572265625" y="14.016" font-family="Virgil, Segoe UI Emoji" font-size="16px" fill="#1e1e1e" text-anchor="middle" style="white-space: pre;" direction="ltr" dominant-baseline="alphabetic">O</text></g><g transform="translate(351.5904001591134 412.392052771263) rotate(0 5.257001126956311 9.320924992660593)"><text x="5.2570011269564585" y="13.06420846971308" font-family="Virgil, Segoe UI Emoji" font-size="14.913479988256942px" fill="#1e1e1e" text-anchor="middle" style="white-space: pre;" direction="ltr" dominant-baseline="alphabetic">Q</text></g><g stroke-linecap="round"><g transform="translate(320.2758800215879 152.13987285444773) rotate(0 14.434069239073779 -22.386637752738125)"><path d="M0 0 C-0.02 1.46, -0.03 2.91, -0.05 5.11 M0 0 C-0.02 1.87, -0.04 3.75, -0.05 5.11 M-0.05 5.11 C10.24 5.33, 20.54 5.54, 28.92 5.72 M-0.05 5.11 C10.97 5.34, 22 5.57, 28.92 5.72 M28.92 5.72 C28.84 -8.85, 28.75 -23.42, 28.64 -43.26 M28.92 5.72 C28.84 -7.55, 28.77 -20.83, 28.64 -43.26 M28.64 -43.26 C19.09 -43.26, 9.55 -43.25, 2.96 -43.25 M28.64 -43.26 C19.84 -43.26, 11.04 -43.25, 2.96 -43.25 M2.96 -43.25 C2.82 -46.01, 2.69 -48.77, 2.6 -50.49 M2.96 -43.25 C2.87 -45.06, 2.78 -46.87, 2.6 -50.49" stroke="#e03131" stroke-width="2" fill="none"></path></g><g transform="translate(320.2758800215879 152.13987285444773) rotate(0 14.434069239073779 -22.386637752738125)"><path d="M2.6 -50.49 L4.3 -47.28 L1.23 -47.13 L2.6 -50.49" stroke="none" stroke-width="0" fill="#e03131" fill-rule="evenodd"></path><path d="M2.6 -50.49 C3.09 -49.58, 3.57 -48.66, 4.3 -47.28 M2.6 -50.49 C3.22 -49.32, 3.84 -48.14, 4.3 -47.28 M4.3 -47.28 C3.21 -47.23, 2.12 -47.18, 1.23 -47.13 M4.3 -47.28 C3.13 -47.23, 1.97 -47.17, 1.23 -47.13 M1.23 -47.13 C1.64 -48.13, 2.05 -49.13, 2.6 -50.49 M1.23 -47.13 C1.61 -48.04, 1.98 -48.95, 2.6 -50.49 M2.6 -50.49 C2.6 -50.49, 2.6 -50.49, 2.6 -50.49 M2.6 -50.49 C2.6 -50.49, 2.6 -50.49, 2.6 -50.49" stroke="#e03131" stroke-width="2" fill="none"></path></g></g><mask></mask><g stroke-linecap="round" transform="translate(286.1113822385496 134.20505487063792) rotate(0 6.068035449594845 8.053105808040073)"><path d="M0 0 L12.14 0 L12.14 16.11 L0 16.11" stroke="none" stroke-width="0" fill="#ced4da"></path><path d="M0 0 C3.2 0, 6.39 0, 12.14 0 M0 0 C3.34 0, 6.68 0, 12.14 0 M12.14 0 C12.14 4.82, 12.14 9.63, 12.14 16.11 M12.14 0 C12.14 4.8, 12.14 9.61, 12.14 16.11 M12.14 16.11 C8.75 16.11, 5.36 16.11, 0 16.11 M12.14 16.11 C7.6 16.11, 3.07 16.11, 0 16.11 M0 16.11 C0 11.27, 0 6.44, 0 0 M0 16.11 C0 11.22, 0 6.34, 0 0" stroke="transparent" stroke-width="2" fill="none"></path></g><g stroke-linecap="round" transform="translate(586.6781146697058 137.51480887396383) rotate(0 6.068035449594845 8.053105808040073)"><path d="M0 0 L12.14 0 L12.14 16.11 L0 16.11" stroke="none" stroke-width="0" fill="#ced4da"></path><path d="M0 0 C3.4 0, 6.8 0, 12.14 0 M0 0 C3.55 0, 7.1 0, 12.14 0 M12.14 0 C12.14 4.74, 12.14 9.47, 12.14 16.11 M12.14 0 C12.14 5.11, 12.14 10.23, 12.14 16.11 M12.14 16.11 C9.32 16.11, 6.5 16.11, 0 16.11 M12.14 16.11 C8.72 16.11, 5.31 16.11, 0 16.11 M0 16.11 C0 12.43, 0 8.75, 0 0 M0 16.11 C0 11.56, 0 7.02, 0 0" stroke="transparent" stroke-width="2" fill="none"></path></g><g stroke-linecap="round" transform="translate(524.7389160889179 54.814662758152735) rotate(0 88.09888137073449 54.80777258957232)"><path d="M0 0 C58.88 0, 117.76 0, 176.2 0 M176.2 0 C176.2 25.18, 176.2 50.35, 176.2 109.62 M176.2 109.62 C122.07 109.62, 67.95 109.62, 0 109.62 M0 109.62 C0 66.15, 0 22.69, 0 0" stroke="#1e1e1e" stroke-width="1.5" fill="none" stroke-dasharray="1.5 7"></path></g><g stroke-linecap="round" transform="translate(427.62713771374456 383.3971005167118) rotate(0 39.20817826208258 28.170628757921804)"><path d="M0 0 C16.14 0, 32.29 0, 78.42 0 M78.42 0 C78.42 16.67, 78.42 33.33, 78.42 56.34 M78.42 56.34 C53.59 56.34, 28.76 56.34, 0 56.34 M0 56.34 C0 43.44, 0 30.54, 0 0" stroke="#1e1e1e" stroke-width="1.5" fill="none" stroke-dasharray="1.5 7"></path></g><g stroke-linecap="round" transform="translate(433.52643537926724 85.46446433811525) rotate(0 18.71123133228366 18.098123119129923)"><path d="M0 0 L37.42 0 L37.42 36.2 L0 36.2" stroke="none" stroke-width="0" fill="#ffffff"></path><path d="M0 0 C14.16 0, 28.31 0, 37.42 0 M0 0 C7.82 0, 15.63 0, 37.42 0 M37.42 0 C37.42 11.58, 37.42 23.17, 37.42 36.2 M37.42 0 C37.42 12.62, 37.42 25.24, 37.42 36.2 M37.42 36.2 C25.15 36.2, 12.88 36.2, 0 36.2 M37.42 36.2 C26.2 36.2, 14.97 36.2, 0 36.2 M0 36.2 C0 26.46, 0 16.73, 0 0 M0 36.2 C0 25.22, 0 14.25, 0 0" stroke="#1e1e1e" stroke-width="2" fill="none"></path></g><g transform="translate(448.50714455578964 95.00597955990315) rotate(0 3.7305221557617188 8.556607897341792)"><text x="3.7305221557617188" y="11.992941628914249" font-family="Virgil, Segoe UI Emoji" font-size="13.690572635746861px" fill="#1e1e1e" text-anchor="middle" style="white-space: pre;" direction="ltr" dominant-baseline="alphabetic">I</text></g><g stroke-linecap="round" transform="translate(435.042108459098 108.78695746833546) rotate(0 4.333759844270844 6.021033670810084)"><path d="M0 0 L8.67 0 L8.67 12.04 L0 12.04" stroke="none" stroke-width="0" fill="#ffffff"></path><path d="M0 0 C2.94 0, 5.87 0, 8.67 0 M0 0 C2.19 0, 4.39 0, 8.67 0 M8.67 0 C8.67 3.17, 8.67 6.35, 8.67 12.04 M8.67 0 C8.67 3.27, 8.67 6.55, 8.67 12.04 M8.67 12.04 C5.68 12.04, 2.69 12.04, 0 12.04 M8.67 12.04 C6.9 12.04, 5.14 12.04, 0 12.04 M0 12.04 C0 9.55, 0 7.06, 0 0 M0 12.04 C0 7.39, 0 2.74, 0 0" stroke="transparent" stroke-width="2" fill="none"></path></g><g transform="translate(436.15191317082827 108.53301669266648) rotate(0 15.609764099121094 6.510619323653373)"><text x="0" y="9.12528404403259" font-family="Virgil, Segoe UI Emoji" font-size="10.416990917845421px" fill="#1e1e1e" text-anchor="start" style="white-space: pre;" direction="ltr" dominant-baseline="alphabetic">V T R</text></g><g stroke-linecap="round"><g transform="translate(433.6763281868507 107.88608681880532) rotate(0 18.839316737818535 -0.04672271311221721)"><path d="M0 0 C9.21 -0.02, 18.41 -0.05, 37.68 -0.09 M0 0 C12.51 -0.03, 25.02 -0.06, 37.68 -0.09" stroke="#1e1e1e" stroke-width="1" fill="none"></path></g></g><mask></mask><g stroke-linecap="round"><g transform="translate(444.89838615424196 107.7937735875521) rotate(0 -0.07525552633524057 6.343560515634408)"><path d="M0 0 C-0.05 4.57, -0.11 9.15, -0.15 12.69 M0 0 C-0.05 4.29, -0.1 8.58, -0.15 12.69" stroke="#1e1e1e" stroke-width="1" fill="none"></path></g></g><mask></mask><g stroke-linecap="round"><g transform="translate(458.9753326505943 107.7937735875521) rotate(0 -0.008005907056940487 6.367258000522952)"><path d="M0 0 C0 2.69, -0.01 5.37, -0.02 12.73 M0 0 C-0.01 5.08, -0.01 10.16, -0.02 12.73" stroke="#1e1e1e" stroke-width="1" fill="none"></path></g></g><mask></mask><g stroke-linecap="round" transform="translate(443.52643537926724 95.53614104127746) rotate(0 18.71123133228366 18.098123119129923)"><path d="M0 0 L37.42 0 L37.42 36.2 L0 36.2" stroke="none" stroke-width="0" fill="#ffffff"></path><path d="M0 0 C13.59 0, 27.19 0, 37.42 0 M0 0 C13.43 0, 26.86 0, 37.42 0 M37.42 0 C37.42 8.58, 37.42 17.16, 37.42 36.2 M37.42 0 C37.42 13.56, 37.42 27.13, 37.42 36.2 M37.42 36.2 C25.28 36.2, 13.13 36.2, 0 36.2 M37.42 36.2 C28.26 36.2, 19.11 36.2, 0 36.2 M0 36.2 C0 22.13, 0 8.06, 0 0 M0 36.2 C0 24.04, 0 11.89, 0 0" stroke="#1e1e1e" stroke-width="2" fill="none"></path></g><g transform="translate(458.50714455578964 105.07765626306536) rotate(0 3.7305221557617188 8.556607897341792)"><text x="3.7305221557617188" y="11.992941628914249" font-family="Virgil, Segoe UI Emoji" font-size="13.690572635746861px" fill="#1e1e1e" text-anchor="middle" style="white-space: pre;" direction="ltr" dominant-baseline="alphabetic">I</text></g><g stroke-linecap="round" transform="translate(445.042108459098 118.85863417149767) rotate(0 4.333759844270844 6.021033670810084)"><path d="M0 0 L8.67 0 L8.67 12.04 L0 12.04" stroke="none" stroke-width="0" fill="#ffffff"></path><path d="M0 0 C2.78 0, 5.55 0, 8.67 0 M0 0 C2.43 0, 4.86 0, 8.67 0 M8.67 0 C8.67 4.79, 8.67 9.58, 8.67 12.04 M8.67 0 C8.67 3.37, 8.67 6.75, 8.67 12.04 M8.67 12.04 C5.3 12.04, 1.93 12.04, 0 12.04 M8.67 12.04 C5.81 12.04, 2.95 12.04, 0 12.04 M0 12.04 C0 7.75, 0 3.45, 0 0 M0 12.04 C0 9.04, 0 6.03, 0 0" stroke="transparent" stroke-width="2" fill="none"></path></g><g transform="translate(446.15191317082827 118.60469339582869) rotate(0 15.609764099121094 6.510619323653373)"><text x="0" y="9.12528404403259" font-family="Virgil, Segoe UI Emoji" font-size="10.416990917845421px" fill="#1e1e1e" text-anchor="start" style="white-space: pre;" direction="ltr" dominant-baseline="alphabetic">V T R</text></g><g stroke-linecap="round"><g transform="translate(443.6763281868507 117.95776352196754) rotate(0 18.839316737818535 -0.04672271311221721)"><path d="M0 0 C8.93 -0.02, 17.86 -0.04, 37.68 -0.09 M0 0 C8.43 -0.02, 16.86 -0.04, 37.68 -0.09" stroke="#1e1e1e" stroke-width="1" fill="none"></path></g></g><mask></mask><g stroke-linecap="round"><g transform="translate(454.89838615424196 117.8654502907143) rotate(0 -0.07525552633524057 6.343560515634408)"><path d="M0 0 C-0.04 3.07, -0.07 6.15, -0.15 12.69 M0 0 C-0.03 2.94, -0.07 5.88, -0.15 12.69" stroke="#1e1e1e" stroke-width="1" fill="none"></path></g></g><mask></mask><g stroke-linecap="round"><g transform="translate(468.9753326505943 117.8654502907143) rotate(0 -0.008005907056940487 6.367258000522952)"><path d="M0 0 C0 3.95, -0.01 7.89, -0.02 12.73 M0 0 C0 2.73, -0.01 5.46, -0.02 12.73" stroke="#1e1e1e" stroke-width="1" fill="none"></path></g></g><mask></mask><g stroke-linecap="round" transform="translate(453.52643537926724 105.53614104127746) rotate(0 18.71123133228366 18.098123119129923)"><path d="M0 0 L37.42 0 L37.42 36.2 L0 36.2" stroke="none" stroke-width="0" fill="#ffffff"></path><path d="M0 0 C10.73 0, 21.47 0, 37.42 0 M0 0 C10.66 0, 21.33 0, 37.42 0 M37.42 0 C37.42 7.6, 37.42 15.19, 37.42 36.2 M37.42 0 C37.42 14.07, 37.42 28.15, 37.42 36.2 M37.42 36.2 C25.04 36.2, 12.67 36.2, 0 36.2 M37.42 36.2 C26.2 36.2, 14.99 36.2, 0 36.2 M0 36.2 C0 26.75, 0 17.3, 0 0 M0 36.2 C0 24.33, 0 12.46, 0 0" stroke="#1e1e1e" stroke-width="2" fill="none"></path></g><g transform="translate(468.50714455578964 115.07765626306536) rotate(0 3.7305221557617188 8.556607897341792)"><text x="3.7305221557617188" y="11.992941628914249" font-family="Virgil, Segoe UI Emoji" font-size="13.690572635746861px" fill="#1e1e1e" text-anchor="middle" style="white-space: pre;" direction="ltr" dominant-baseline="alphabetic">I</text></g><g stroke-linecap="round" transform="translate(455.042108459098 128.85863417149767) rotate(0 4.333759844270844 6.021033670810084)"><path d="M0 0 L8.67 0 L8.67 12.04 L0 12.04" stroke="none" stroke-width="0" fill="#ffffff"></path><path d="M0 0 C2.68 0, 5.37 0, 8.67 0 M0 0 C2.04 0, 4.07 0, 8.67 0 M8.67 0 C8.67 3.24, 8.67 6.48, 8.67 12.04 M8.67 0 C8.67 4.49, 8.67 8.97, 8.67 12.04 M8.67 12.04 C6.66 12.04, 4.65 12.04, 0 12.04 M8.67 12.04 C5.83 12.04, 3 12.04, 0 12.04 M0 12.04 C0 7.87, 0 3.71, 0 0 M0 12.04 C0 8.71, 0 5.38, 0 0" stroke="transparent" stroke-width="2" fill="none"></path></g><g stroke-linecap="round"><g transform="translate(453.6763281868507 127.95776352196754) rotate(0 18.839316737818535 -0.046722713112330894)"><path d="M0 0 C8.38 -0.02, 16.76 -0.04, 37.68 -0.09 M0 0 C9.77 -0.02, 19.54 -0.05, 37.68 -0.09" stroke="#1e1e1e" stroke-width="1" fill="none"></path></g></g><mask></mask><g stroke-linecap="round"><g transform="translate(464.89838615424196 127.8654502907143) rotate(0 -0.07525552633524057 6.343560515634408)"><path d="M0 0 C-0.04 3.56, -0.08 7.11, -0.15 12.69 M0 0 C-0.06 4.93, -0.12 9.86, -0.15 12.69" stroke="#1e1e1e" stroke-width="1" fill="none"></path></g></g><mask></mask><g stroke-linecap="round"><g transform="translate(478.9753326505943 127.8654502907143) rotate(0 -0.008005907056940487 6.367258000522952)"><path d="M0 0 C-0.01 4.4, -0.01 8.79, -0.02 12.73 M0 0 C0 3.89, -0.01 7.78, -0.02 12.73" stroke="#1e1e1e" stroke-width="1" fill="none"></path></g></g><mask></mask><g stroke-linecap="round" transform="translate(230.56138241142526 53.192162845894245) rotate(0 83.17736408449446 54.80777258957244)"><path d="M0 0 C59.96 0, 119.91 0, 166.35 0 M166.35 0 C166.35 31.05, 166.35 62.1, 166.35 109.62 M166.35 109.62 C100.4 109.62, 34.45 109.62, 0 109.62 M0 109.62 C0 73.35, 0 37.09, 0 0" stroke="#1e1e1e" stroke-width="1.5" fill="none" stroke-dasharray="1.5 7"></path></g><g stroke-linecap="round" transform="translate(18.080618685915397 52.36804371164271) rotate(0 83.17736408449446 54.80777258957232)"><path d="M0 0 C49.89 0, 99.77 0, 166.35 0 M166.35 0 C166.35 23.65, 166.35 47.3, 166.35 109.62 M166.35 109.62 C121.01 109.62, 75.67 109.62, 0 109.62 M0 109.62 C0 69.42, 0 29.23, 0 0" stroke="#1e1e1e" stroke-width="1.5" fill="none" stroke-dasharray="1.5 7"></path></g><g stroke-linecap="round" transform="translate(229.33543359827127 336.4604513545537) rotate(0 36.47429270009661 51.875666580955794)"><path d="M0 0 C23.85 0, 47.7 0, 72.95 0 M72.95 0 C72.95 34.8, 72.95 69.6, 72.95 103.75 M72.95 103.75 C51.25 103.75, 29.55 103.75, 0 103.75 M0 103.75 C0 79.07, 0 54.39, 0 0" stroke="#1e1e1e" stroke-width="1.5" fill="none" stroke-dasharray="1.5 7"></path></g><g stroke-linecap="round" transform="translate(109.01309769879754 64.23526829651564) rotate(0 17.56704358636398 16.68577977884115)"><path d="M0 0 L35.13 0 L35.13 33.37 L0 33.37" stroke="none" stroke-width="0" fill="#b2f2bb"></path><path d="M0 0 C9 0, 18 0, 35.13 0 M35.13 0 C35.13 10.51, 35.13 21.01, 35.13 33.37 M35.13 33.37 C22.9 33.37, 10.66 33.37, 0 33.37 M0 33.37 C0 26.45, 0 19.52, 0 0" stroke="transparent" stroke-width="1.5" fill="none" stroke-dasharray="1.5 7"></path></g><g stroke-linecap="round" transform="translate(58.19036154362402 64.08693707808243) rotate(0 17.56704358636398 16.68577977884115)"><path d="M0 0 L35.13 0 L35.13 33.37 L0 33.37" stroke="none" stroke-width="0" fill="#b2f2bb"></path><path d="M0 0 C10.82 0, 21.63 0, 35.13 0 M35.13 0 C35.13 8.52, 35.13 17.04, 35.13 33.37 M35.13 33.37 C27.55 33.37, 19.97 33.37, 0 33.37 M0 33.37 C0 20.56, 0 7.76, 0 0" stroke="transparent" stroke-width="1.5" fill="none" stroke-dasharray="1.5 7"></path></g><g stroke-linecap="round" transform="translate(83.96688285977325 87.39606386862533) rotate(0 4.71032504672894 5.230818008213191)"><path d="M0 0 L9.42 0 L9.42 10.46 L0 10.46" stroke="none" stroke-width="0" fill="#ffc9c9"></path><path d="M0 0 C2.99 0, 5.98 0, 9.42 0 M0 0 C3.66 0, 7.31 0, 9.42 0 M9.42 0 C9.42 3.78, 9.42 7.56, 9.42 10.46 M9.42 0 C9.42 2.62, 9.42 5.24, 9.42 10.46 M9.42 10.46 C6.38 10.46, 3.35 10.46, 0 10.46 M9.42 10.46 C7.38 10.46, 5.33 10.46, 0 10.46 M0 10.46 C0 6.56, 0 2.66, 0 0 M0 10.46 C0 7.95, 0 5.44, 0 0" stroke="transparent" stroke-width="1" fill="none"></path></g><g stroke-linecap="round" transform="translate(55.872063060264736 61.283365291603786) rotate(0 19.76882379198514 19.121061599534073)"><path d="M0 0 L39.54 0 L39.54 38.24 L0 38.24" stroke="none" stroke-width="0" fill="#ced4da"></path><path d="M0 0 C8.53 0, 17.06 0, 39.54 0 M0 0 C10.78 0, 21.55 0, 39.54 0 M39.54 0 C39.54 14.02, 39.54 28.04, 39.54 38.24 M39.54 0 C39.54 9.39, 39.54 18.77, 39.54 38.24 M39.54 38.24 C29.36 38.24, 19.17 38.24, 0 38.24 M39.54 38.24 C28.08 38.24, 16.62 38.24, 0 38.24 M0 38.24 C0 27.52, 0 16.79, 0 0 M0 38.24 C0 28.76, 0 19.27, 0 0" stroke="#1e1e1e" stroke-width="2" fill="none"></path></g><g transform="translate(69.8279672355502 71.36418412059356) rotate(0 5.812919616699219 9.040242770544182)"><text x="5.812919616699219" y="12.670804267194761" font-family="Virgil, Segoe UI Emoji" font-size="14.46438843287073px" fill="#1e1e1e" text-anchor="middle" style="white-space: pre;" direction="ltr" dominant-baseline="alphabetic">T</text></g><g stroke-linecap="round" transform="translate(434.8265787534201 395.48200701436235) rotate(0 19.76882379198514 19.121061599534187)"><path d="M0 0 C11.42 0, 22.84 0, 39.54 0 M0 0 C11.2 0, 22.4 0, 39.54 0 M39.54 0 C39.54 10.46, 39.54 20.92, 39.54 38.24 M39.54 0 C39.54 13.93, 39.54 27.86, 39.54 38.24 M39.54 38.24 C27.68 38.24, 15.81 38.24, 0 38.24 M39.54 38.24 C30.05 38.24, 20.55 38.24, 0 38.24 M0 38.24 C0 27.78, 0 17.32, 0 0 M0 38.24 C0 26.75, 0 15.27, 0 0" stroke="#1e1e1e" stroke-width="2" fill="none"></path></g><g transform="translate(446.0784652895454 405.56282584335213) rotate(0 8.516937255859375 9.040242770544182)"><text x="8.516937255859375" y="12.670804267194761" font-family="Virgil, Segoe UI Emoji" font-size="14.46438843287073px" fill="#1e1e1e" text-anchor="middle" style="white-space: pre;" direction="ltr" dominant-baseline="alphabetic">VP</text></g><g stroke-linecap="round" transform="translate(109.72894919399641 365.4763070641079) rotate(0 48.62146430548273 23.08800398650078)"><path d="M0 0 C36.07 0, 72.14 0, 97.24 0 M0 0 C25.89 0, 51.77 0, 97.24 0 M97.24 0 C97.24 10.05, 97.24 20.11, 97.24 46.18 M97.24 0 C97.24 17.55, 97.24 35.11, 97.24 46.18 M97.24 46.18 C71.83 46.18, 46.42 46.18, 0 46.18 M97.24 46.18 C77.52 46.18, 57.79 46.18, 0 46.18 M0 46.18 C0 36.54, 0 26.89, 0 0 M0 46.18 C0 32.54, 0 18.9, 0 0" stroke="#1e1e1e" stroke-width="2" fill="none"></path></g><g transform="translate(115.65731352389321 370.4838255095201) rotate(0 42.69309997558594 18.080485541088365)"><text x="42.69309997558594" y="12.670804267194761" font-family="Virgil, Segoe UI Emoji" font-size="14.46438843287073px" fill="#1e1e1e" text-anchor="middle" style="white-space: pre;" direction="ltr" dominant-baseline="alphabetic">proof of  </text><text x="42.69309997558594" y="30.751289808283175" font-family="Virgil, Segoe UI Emoji" font-size="14.46438843287073px" fill="#1e1e1e" text-anchor="middle" style="white-space: pre;" direction="ltr" dominant-baseline="alphabetic">misbehaviour</text></g><g stroke-linecap="round" transform="translate(106.83524785581358 61.07201235279899) rotate(0 19.76882379198514 19.121061599534073)"><path d="M0 0 L39.54 0 L39.54 38.24 L0 38.24" stroke="none" stroke-width="0" fill="#ced4da"></path><path d="M0 0 C12.45 0, 24.89 0, 39.54 0 M0 0 C13.77 0, 27.55 0, 39.54 0 M39.54 0 C39.54 7.94, 39.54 15.87, 39.54 38.24 M39.54 0 C39.54 8.69, 39.54 17.37, 39.54 38.24 M39.54 38.24 C25.82 38.24, 12.1 38.24, 0 38.24 M39.54 38.24 C28.72 38.24, 17.91 38.24, 0 38.24 M0 38.24 C0 27.31, 0 16.37, 0 0 M0 38.24 C0 23.95, 0 9.65, 0 0" stroke="#1e1e1e" stroke-width="2" fill="none"></path></g><g transform="translate(120.79115203109905 71.15283118178877) rotate(0 5.812919616699219 9.040242770544182)"><text x="5.812919616699219" y="12.670804267194761" font-family="Virgil, Segoe UI Emoji" font-size="14.46438843287073px" fill="#1e1e1e" text-anchor="middle" style="white-space: pre;" direction="ltr" dominant-baseline="alphabetic">T</text></g><g stroke-linecap="round" transform="translate(284.6508911407991 113.3620496507192) rotate(0 28.083972765154158 19.121061599534187)"><path d="M0 0 C16.92 0, 33.83 0, 56.17 0 M0 0 C18.47 0, 36.95 0, 56.17 0 M56.17 0 C56.17 13.86, 56.17 27.73, 56.17 38.24 M56.17 0 C56.17 9.97, 56.17 19.93, 56.17 38.24 M56.17 38.24 C41.89 38.24, 27.61 38.24, 0 38.24 M56.17 38.24 C36.08 38.24, 16 38.24, 0 38.24 M0 38.24 C0 28.71, 0 19.19, 0 0 M0 38.24 C0 23.5, 0 8.76, 0 0" stroke="#1e1e1e" stroke-width="2" fill="none"></path></g><g stroke-linecap="round" transform="translate(585.2176235719553 116.6718036540451) rotate(0 28.083972765154158 19.121061599534187)"><path d="M0 0 C20.65 0, 41.31 0, 56.17 0 M0 0 C12.43 0, 24.86 0, 56.17 0 M56.17 0 C56.17 10.31, 56.17 20.63, 56.17 38.24 M56.17 0 C56.17 10.74, 56.17 21.48, 56.17 38.24 M56.17 38.24 C39.64 38.24, 23.11 38.24, 0 38.24 M56.17 38.24 C34 38.24, 11.84 38.24, 0 38.24 M0 38.24 C0 25.17, 0 12.09, 0 0 M0 38.24 C0 27.41, 0 16.59, 0 0" stroke="#1e1e1e" stroke-width="2" fill="none"></path></g><g stroke-linecap="round"><g transform="translate(22.0125114135908 80.14955054845586) rotate(0 15.529858543231512 -0.19752956867705507)"><path d="M0 0 C9.26 -0.12, 18.53 -0.24, 31.06 -0.4 M0 0 C7.01 -0.09, 14.03 -0.18, 31.06 -0.4" stroke="#1e1e1e" stroke-width="2" fill="none"></path></g><g transform="translate(22.0125114135908 80.14955054845586) rotate(0 15.529858543231512 -0.19752956867705507)"><path d="M31.06 -0.4 L17.55 6.12 L17.39 -6.56 L31.06 -0.4" stroke="none" stroke-width="0" fill="#1e1e1e" fill-rule="evenodd"></path><path d="M31.06 -0.4 C27.03 1.55, 23 3.49, 17.55 6.12 M31.06 -0.4 C28.01 1.08, 24.96 2.55, 17.55 6.12 M17.55 6.12 C17.5 2.13, 17.45 -1.85, 17.39 -6.56 M17.55 6.12 C17.5 2.63, 17.46 -0.86, 17.39 -6.56 M17.39 -6.56 C20.17 -5.31, 22.95 -4.05, 31.06 -0.4 M17.39 -6.56 C21.61 -4.65, 25.84 -2.75, 31.06 -0.4 M31.06 -0.4 C31.06 -0.4, 31.06 -0.4, 31.06 -0.4 M31.06 -0.4 C31.06 -0.4, 31.06 -0.4, 31.06 -0.4" stroke="#1e1e1e" stroke-width="2" fill="none"></path></g></g><mask></mask><g stroke-linecap="round"><g transform="translate(537.2407401105347 87.47265527213563) rotate(0 15.79036422674153 0.18119711382189507)"><path d="M0 0 C10.26 0.12, 20.52 0.24, 31.58 0.36 M0 0 C9.89 0.11, 19.77 0.23, 31.58 0.36" stroke="#1e1e1e" stroke-width="2" fill="none"></path></g><g transform="translate(537.2407401105347 87.47265527213563) rotate(0 15.79036422674153 0.18119711382189507)"><path d="M31.58 0.36 L17.91 6.55 L18.06 -6.13 L31.58 0.36" stroke="none" stroke-width="0" fill="#1e1e1e" fill-rule="evenodd"></path><path d="M31.58 0.36 C27.14 2.37, 22.7 4.38, 17.91 6.55 M31.58 0.36 C27.3 2.3, 23.02 4.23, 17.91 6.55 M17.91 6.55 C17.97 1.55, 18.03 -3.45, 18.06 -6.13 M17.91 6.55 C17.97 1.68, 18.03 -3.18, 18.06 -6.13 M18.06 -6.13 C22.65 -3.93, 27.24 -1.72, 31.58 0.36 M18.06 -6.13 C22.6 -3.95, 27.13 -1.77, 31.58 0.36 M31.58 0.36 C31.58 0.36, 31.58 0.36, 31.58 0.36 M31.58 0.36 C31.58 0.36, 31.58 0.36, 31.58 0.36" stroke="#1e1e1e" stroke-width="2" fill="none"></path></g></g><mask></mask><g stroke-linecap="round"><g transform="translate(148.4968816588289 79.76140449559261) rotate(0 16.49170191174653 -0.26180768111146335)"><path d="M0 0 C12.8 -0.2, 25.6 -0.41, 32.98 -0.52 M0 0 C11.92 -0.19, 23.83 -0.38, 32.98 -0.52" stroke="#1e1e1e" stroke-width="2" fill="none"></path></g><g transform="translate(148.4968816588289 79.76140449559261) rotate(0 16.49170191174653 -0.26180768111146335)"><path d="M32.98 -0.52 L19.49 6.03 L19.29 -6.65 L32.98 -0.52" stroke="none" stroke-width="0" fill="#1e1e1e" fill-rule="evenodd"></path><path d="M32.98 -0.52 C27.75 2.02, 22.51 4.56, 19.49 6.03 M32.98 -0.52 C28.11 1.84, 23.24 4.21, 19.49 6.03 M19.49 6.03 C19.44 2.86, 19.39 -0.32, 19.29 -6.65 M19.49 6.03 C19.43 1.94, 19.36 -2.14, 19.29 -6.65 M19.29 -6.65 C22.26 -5.32, 25.23 -3.99, 32.98 -0.52 M19.29 -6.65 C24.4 -4.36, 29.51 -2.08, 32.98 -0.52 M32.98 -0.52 C32.98 -0.52, 32.98 -0.52, 32.98 -0.52 M32.98 -0.52 C32.98 -0.52, 32.98 -0.52, 32.98 -0.52" stroke="#1e1e1e" stroke-width="2" fill="none"></path></g></g><mask></mask><g stroke-linecap="round"><g transform="translate(669.678196125712 85.27308253340152) rotate(0 13.943229222898026 -0.06456993071014949)"><path d="M0 0 C9.33 -0.04, 18.66 -0.09, 27.89 -0.13 M0 0 C9.69 -0.04, 19.38 -0.09, 27.89 -0.13" stroke="#1e1e1e" stroke-width="2" fill="none"></path></g><g transform="translate(669.678196125712 85.27308253340152) rotate(0 13.943229222898026 -0.06456993071014949)"><path d="M27.89 -0.13 L15.28 5.82 L15.22 -5.96 L27.89 -0.13" stroke="none" stroke-width="0" fill="#1e1e1e" fill-rule="evenodd"></path><path d="M27.89 -0.13 C23.67 1.86, 19.45 3.85, 15.28 5.82 M27.89 -0.13 C23.5 1.94, 19.12 4.01, 15.28 5.82 M15.28 5.82 C15.26 2.71, 15.25 -0.39, 15.22 -5.96 M15.28 5.82 C15.26 1.24, 15.23 -3.35, 15.22 -5.96 M15.22 -5.96 C19.35 -4.06, 23.47 -2.16, 27.89 -0.13 M15.22 -5.96 C19.64 -3.93, 24.05 -1.9, 27.89 -0.13 M27.89 -0.13 C27.89 -0.13, 27.89 -0.13, 27.89 -0.13 M27.89 -0.13 C27.89 -0.13, 27.89 -0.13, 27.89 -0.13" stroke="#1e1e1e" stroke-width="2" fill="none"></path></g></g><mask></mask><g stroke-linecap="round"><g transform="translate(553.2306169832282 141.5708528709256) rotate(0 14.765885087437255 -0.21871917986709377)"><path d="M0 0 C8.98 -0.13, 17.97 -0.27, 29.53 -0.44 M0 0 C10.27 -0.15, 20.54 -0.3, 29.53 -0.44" stroke="#1e1e1e" stroke-width="2" fill="none"></path></g><g transform="translate(553.2306169832282 141.5708528709256) rotate(0 14.765885087437255 -0.21871917986709377)"><path d="M29.53 -0.44 L16.24 6 L16.06 -6.48 L29.53 -0.44" stroke="none" stroke-width="0" fill="#1e1e1e" fill-rule="evenodd"></path><path d="M29.53 -0.44 C25.49 1.52, 21.45 3.48, 16.24 6 M29.53 -0.44 C24.91 1.8, 20.29 4.04, 16.24 6 M16.24 6 C16.2 3.08, 16.16 0.17, 16.06 -6.48 M16.24 6 C16.19 2.78, 16.15 -0.44, 16.06 -6.48 M16.06 -6.48 C19.39 -4.98, 22.72 -3.49, 29.53 -0.44 M16.06 -6.48 C19.01 -5.15, 21.97 -3.83, 29.53 -0.44 M29.53 -0.44 C29.53 -0.44, 29.53 -0.44, 29.53 -0.44 M29.53 -0.44 C29.53 -0.44, 29.53 -0.44, 29.53 -0.44" stroke="#1e1e1e" stroke-width="2" fill="none"></path></g></g><mask></mask><g stroke-linecap="round"><g transform="translate(492.5894509511909 116.67962331097056) rotate(0 13.86874842594625 0.3041914347434158)"><path d="M0 0 C7.85 0.17, 15.7 0.34, 27.74 0.61 M0 0 C8.92 0.2, 17.84 0.39, 27.74 0.61" stroke="#1e1e1e" stroke-width="2" fill="none"></path></g><g transform="translate(492.5894509511909 116.67962331097056) rotate(0 13.86874842594625 0.3041914347434158)"><path d="M27.74 0.61 L15.04 6.19 L15.3 -5.53 L27.74 0.61" stroke="none" stroke-width="0" fill="#1e1e1e" fill-rule="evenodd"></path><path d="M27.74 0.61 C24.14 2.19, 20.55 3.77, 15.04 6.19 M27.74 0.61 C23.65 2.4, 19.57 4.2, 15.04 6.19 M15.04 6.19 C15.13 2.28, 15.21 -1.62, 15.3 -5.53 M15.04 6.19 C15.11 3.15, 15.17 0.11, 15.3 -5.53 M15.3 -5.53 C18.97 -3.72, 22.64 -1.9, 27.74 0.61 M15.3 -5.53 C17.81 -4.29, 20.32 -3.05, 27.74 0.61 M27.74 0.61 C27.74 0.61, 27.74 0.61, 27.74 0.61 M27.74 0.61 C27.74 0.61, 27.74 0.61, 27.74 0.61" stroke="#1e1e1e" stroke-width="2" fill="none"></path></g></g><mask></mask><g stroke-linecap="round"><g transform="translate(404.56058373080396 411.36610151852574) rotate(0 10.336522602752666 0.14490479009509727)"><path d="M0 0 C7.45 0.1, 14.89 0.21, 20.67 0.29 M0 0 C6.68 0.09, 13.36 0.19, 20.67 0.29" stroke="#1e1e1e" stroke-width="2" fill="none"></path></g><g transform="translate(404.56058373080396 411.36610151852574) rotate(0 10.336522602752666 0.14490479009509727)"><path d="M20.67 0.29 L11.24 4.53 L11.37 -4.21 L20.67 0.29" stroke="none" stroke-width="0" fill="#1e1e1e" fill-rule="evenodd"></path><path d="M20.67 0.29 C17.28 1.82, 13.88 3.34, 11.24 4.53 M20.67 0.29 C17.63 1.66, 14.58 3.03, 11.24 4.53 M11.24 4.53 C11.28 1.77, 11.32 -0.98, 11.37 -4.21 M11.24 4.53 C11.28 2.16, 11.31 -0.2, 11.37 -4.21 M11.37 -4.21 C14.72 -2.59, 18.07 -0.97, 20.67 0.29 M11.37 -4.21 C13.79 -3.04, 16.21 -1.87, 20.67 0.29 M20.67 0.29 C20.67 0.29, 20.67 0.29, 20.67 0.29 M20.67 0.29 C20.67 0.29, 20.67 0.29, 20.67 0.29" stroke="#1e1e1e" stroke-width="2" fill="none"></path></g></g><mask></mask><g stroke-linecap="round"><g transform="translate(477.13203343976875 415.3822528803321) rotate(0 10.336522602752666 0.14490479009509727)"><path d="M0 0 C7.39 0.1, 14.79 0.21, 20.67 0.29 M0 0 C7.15 0.1, 14.3 0.2, 20.67 0.29" stroke="#1e1e1e" stroke-width="2" fill="none"></path></g><g transform="translate(477.13203343976875 415.3822528803321) rotate(0 10.336522602752666 0.14490479009509727)"><path d="M20.67 0.29 L11.24 4.53 L11.37 -4.21 L20.67 0.29" stroke="none" stroke-width="0" fill="#1e1e1e" fill-rule="evenodd"></path><path d="M20.67 0.29 C17.3 1.81, 13.93 3.32, 11.24 4.53 M20.67 0.29 C17.41 1.76, 14.15 3.22, 11.24 4.53 M11.24 4.53 C11.29 1.52, 11.33 -1.48, 11.37 -4.21 M11.24 4.53 C11.27 2.31, 11.31 0.09, 11.37 -4.21 M11.37 -4.21 C13.46 -3.2, 15.56 -2.18, 20.67 0.29 M11.37 -4.21 C14.67 -2.61, 17.97 -1.02, 20.67 0.29 M20.67 0.29 C20.67 0.29, 20.67 0.29, 20.67 0.29 M20.67 0.29 C20.67 0.29, 20.67 0.29, 20.67 0.29" stroke="#1e1e1e" stroke-width="2" fill="none"></path></g></g><mask></mask><g stroke-linecap="round"><g transform="translate(254.3678434162075 79.056396029604) rotate(0 17.926875986302093 0.08369060870552403)"><path d="M0 0 C8.41 0.04, 16.82 0.08, 35.85 0.17 M0 0 C9.32 0.04, 18.65 0.09, 35.85 0.17" stroke="#1e1e1e" stroke-width="2" fill="none"></path></g><g transform="translate(254.3678434162075 79.056396029604) rotate(0 17.926875986302093 0.08369060870552403)"><path d="M35.85 0.17 L22.23 6.44 L22.29 -6.24 L35.85 0.17" stroke="none" stroke-width="0" fill="#1e1e1e" fill-rule="evenodd"></path><path d="M35.85 0.17 C32.66 1.64, 29.46 3.11, 22.23 6.44 M35.85 0.17 C32.31 1.8, 28.77 3.43, 22.23 6.44 M22.23 6.44 C22.25 2.85, 22.26 -0.75, 22.29 -6.24 M22.23 6.44 C22.25 3.11, 22.26 -0.23, 22.29 -6.24 M22.29 -6.24 C25.14 -4.89, 28 -3.54, 35.85 0.17 M22.29 -6.24 C25.95 -4.51, 29.61 -2.78, 35.85 0.17 M35.85 0.17 C35.85 0.17, 35.85 0.17, 35.85 0.17 M35.85 0.17 C35.85 0.17, 35.85 0.17, 35.85 0.17" stroke="#1e1e1e" stroke-width="2" fill="none"></path></g></g><mask></mask><g stroke-linecap="round"><g transform="translate(340.4626477560096 130.13786492560985) rotate(0 14.44786753736571 0.2614467232554034)"><path d="M0 0 C7.67 0.14, 15.34 0.28, 28.9 0.52 M0 0 C5.91 0.11, 11.81 0.21, 28.9 0.52" stroke="#1e1e1e" stroke-width="2" fill="none"></path></g><g transform="translate(340.4626477560096 130.13786492560985) rotate(0 14.44786753736571 0.2614467232554034)"><path d="M28.9 0.52 L15.69 6.39 L15.91 -5.82 L28.9 0.52" stroke="none" stroke-width="0" fill="#1e1e1e" fill-rule="evenodd"></path><path d="M28.9 0.52 C25.39 2.08, 21.88 3.64, 15.69 6.39 M28.9 0.52 C26.2 1.72, 23.5 2.92, 15.69 6.39 M15.69 6.39 C15.78 1.6, 15.86 -3.19, 15.91 -5.82 M15.69 6.39 C15.77 2.02, 15.85 -2.34, 15.91 -5.82 M15.91 -5.82 C19.44 -4.09, 22.98 -2.37, 28.9 0.52 M15.91 -5.82 C19.44 -4.09, 22.98 -2.37, 28.9 0.52 M28.9 0.52 C28.9 0.52, 28.9 0.52, 28.9 0.52 M28.9 0.52 C28.9 0.52, 28.9 0.52, 28.9 0.52" stroke="#1e1e1e" stroke-width="2" fill="none"></path></g></g><mask></mask><g transform="translate(107.80422228592852 136.60265429984884) rotate(0 4.698822021484375 8.331806759918436)"><text x="0" y="11.677860354701604" font-family="Virgil, Segoe UI Emoji" font-size="13.330890815869413px" fill="#1e1e1e" text-anchor="start" style="white-space: pre;" direction="ltr" dominant-baseline="alphabetic">Q</text></g><g stroke-linecap="round" transform="translate(107.24210420031523 136.97496547426363) rotate(0 5.457462931449754 7.189867534600353)"><path d="M0 0 L10.91 0 L10.91 14.38 L0 14.38" stroke="none" stroke-width="0" fill="#ced4da"></path><path d="M0 0 C2.43 0, 4.86 0, 10.91 0 M0 0 C2.96 0, 5.92 0, 10.91 0 M10.91 0 C10.91 5.53, 10.91 11.07, 10.91 14.38 M10.91 0 C10.91 5.46, 10.91 10.92, 10.91 14.38 M10.91 14.38 C7.3 14.38, 3.69 14.38, 0 14.38 M10.91 14.38 C8.07 14.38, 5.23 14.38, 0 14.38 M0 14.38 C0 8.65, 0 2.92, 0 0 M0 14.38 C0 8.75, 0 3.13, 0 0" stroke="transparent" stroke-width="2" fill="none"></path></g><g stroke-linecap="round" transform="translate(106.01017587234765 114.82846247386715) rotate(0 19.76882379198514 19.121061599534187)"><path d="M0 0 C10.32 0, 20.63 0, 39.54 0 M0 0 C8.07 0, 16.14 0, 39.54 0 M39.54 0 C39.54 9.61, 39.54 19.22, 39.54 38.24 M39.54 0 C39.54 9.89, 39.54 19.78, 39.54 38.24 M39.54 38.24 C30.79 38.24, 22.04 38.24, 0 38.24 M39.54 38.24 C25.36 38.24, 11.18 38.24, 0 38.24 M0 38.24 C0 25.1, 0 11.96, 0 0 M0 38.24 C0 29.64, 0 21.04, 0 0" stroke="#1e1e1e" stroke-width="2" fill="none"></path></g><g stroke-linecap="round"><g transform="translate(148.07374035440353 133.74862641747904) rotate(0 16.752059102566818 -0.17811061218480972)"><path d="M0 0 C9.13 -0.1, 18.26 -0.19, 33.5 -0.36 M0 0 C12.28 -0.13, 24.57 -0.26, 33.5 -0.36" stroke="#1e1e1e" stroke-width="2" fill="none"></path></g><g transform="translate(148.07374035440353 133.74862641747904) rotate(0 16.752059102566818 -0.17811061218480972)"><path d="M33.5 -0.36 L19.98 6.13 L19.84 -6.55 L33.5 -0.36" stroke="none" stroke-width="0" fill="#1e1e1e" fill-rule="evenodd"></path><path d="M33.5 -0.36 C29.82 1.41, 26.13 3.18, 19.98 6.13 M33.5 -0.36 C28.54 2.02, 23.58 4.4, 19.98 6.13 M19.98 6.13 C19.94 3.02, 19.91 -0.1, 19.84 -6.55 M19.98 6.13 C19.94 2.86, 19.91 -0.4, 19.84 -6.55 M19.84 -6.55 C23.8 -4.76, 27.76 -2.96, 33.5 -0.36 M19.84 -6.55 C23.67 -4.81, 27.5 -3.08, 33.5 -0.36 M33.5 -0.36 C33.5 -0.36, 33.5 -0.36, 33.5 -0.36 M33.5 -0.36 C33.5 -0.36, 33.5 -0.36, 33.5 -0.36" stroke="#1e1e1e" stroke-width="2" fill="none"></path></g></g><mask></mask><g transform="translate(109.66931670245413 118.62789088925501) rotate(0 16.75189208984375 9.040242770544182)"><text x="0" y="12.670804267194761" font-family="Virgil, Segoe UI Emoji" font-size="14.464388432870733px" fill="#1e1e1e" text-anchor="start" style="white-space: pre;" direction="ltr" dominant-baseline="alphabetic">Bond</text></g><g stroke-linecap="round"><g transform="translate(106.3971318962931 135.684730242961) rotate(0 19.703792450317906 -0.10150975295960052)"><path d="M0 0 C8.59 -0.04, 17.17 -0.09, 39.41 -0.2 M0 0 C8.77 -0.05, 17.53 -0.09, 39.41 -0.2" stroke="#1e1e1e" stroke-width="1" fill="none"></path></g></g><mask></mask><g stroke-linecap="round"><g transform="translate(119.56529239521842 136.18614754617147) rotate(0 0.05858952184280497 7.95659332090645)"><path d="M0 0 C0.02 3.3, 0.05 6.6, 0.12 15.91 M0 0 C0.03 3.61, 0.05 7.23, 0.12 15.91" stroke="#1e1e1e" stroke-width="1" fill="none"></path></g></g><mask></mask><g stroke-linecap="round"><g transform="translate(132.13219590757944 136.27182020418377) rotate(0 0.05858952184280497 7.95659332090645)"><path d="M0 0 C0.04 6.11, 0.09 12.21, 0.12 15.91 M0 0 C0.04 5.82, 0.09 11.64, 0.12 15.91" stroke="#1e1e1e" stroke-width="1" fill="none"></path></g></g><mask></mask><g transform="translate(120.82032400521621 136.43340206278253) rotate(0 4.135993957519531 10)"><text x="4.135993957519531" y="14.016" font-family="Virgil, Segoe UI Emoji" font-size="16px" fill="#1e1e1e" text-anchor="middle" style="white-space: pre;" direction="ltr" dominant-baseline="alphabetic">V</text></g><g transform="translate(132.95475079756216 136.29975646067487) rotate(0 5.8079986572265625 10)"><text x="5.8079986572265625" y="14.016" font-family="Virgil, Segoe UI Emoji" font-size="16px" fill="#1e1e1e" text-anchor="middle" style="white-space: pre;" direction="ltr" dominant-baseline="alphabetic">O</text></g><g transform="translate(308.5647445566283 115.18430243243256) rotate(0 5.393577575683594 9.040242770544182)"><text x="0" y="12.670804267194761" font-family="Virgil, Segoe UI Emoji" font-size="14.464388432870733px" fill="#1e1e1e" text-anchor="start" style="white-space: pre;" direction="ltr" dominant-baseline="alphabetic">W</text></g><g transform="translate(609.1314769877845 118.49405643575847) rotate(0 5.393577575683594 9.040242770544182)"><text x="0" y="12.670804267194761" font-family="Virgil, Segoe UI Emoji" font-size="14.464388432870733px" fill="#1e1e1e" text-anchor="start" style="white-space: pre;" direction="ltr" dominant-baseline="alphabetic">W</text></g><g stroke-linecap="round"><g transform="translate(272.5369941744548 388.5278140557698) rotate(0 13.331883518181712 -0.1803596673244101)"><path d="M0 0 C9.91 -0.13, 19.83 -0.27, 26.66 -0.36 M0 0 C6.14 -0.08, 12.27 -0.17, 26.66 -0.36" stroke="#1e1e1e" stroke-width="2" fill="none"></path></g><g transform="translate(272.5369941744548 388.5278140557698) rotate(0 13.331883518181712 -0.1803596673244101)"><path d="M26.66 -0.36 L14.66 5.44 L14.5 -5.83 L26.66 -0.36" stroke="none" stroke-width="0" fill="#1e1e1e" fill-rule="evenodd"></path><path d="M26.66 -0.36 C22.2 1.79, 17.74 3.95, 14.66 5.44 M26.66 -0.36 C23.9 0.97, 21.14 2.31, 14.66 5.44 M14.66 5.44 C14.61 1.94, 14.56 -1.56, 14.5 -5.83 M14.66 5.44 C14.62 2.32, 14.57 -0.8, 14.5 -5.83 M14.5 -5.83 C19.17 -3.73, 23.83 -1.64, 26.66 -0.36 M14.5 -5.83 C19.32 -3.67, 24.13 -1.5, 26.66 -0.36 M26.66 -0.36 C26.66 -0.36, 26.66 -0.36, 26.66 -0.36 M26.66 -0.36 C26.66 -0.36, 26.66 -0.36, 26.66 -0.36" stroke="#1e1e1e" stroke-width="2" fill="none"></path></g></g><mask></mask><g stroke-linecap="round"><g transform="translate(209.40898345800542 387.0601989937404) rotate(0 9.281662452231103 -0.16092037013754634)"><path d="M0 0 C5.99 -0.1, 11.99 -0.21, 18.56 -0.32 M0 0 C6.62 -0.11, 13.24 -0.23, 18.56 -0.32" stroke="#1e1e1e" stroke-width="2" fill="none"></path></g><g transform="translate(209.40898345800542 387.0601989937404) rotate(0 9.281662452231103 -0.16092037013754634)"><path d="M18.56 -0.32 L10.22 3.75 L10.08 -4.1 L18.56 -0.32" stroke="none" stroke-width="0" fill="#1e1e1e" fill-rule="evenodd"></path><path d="M18.56 -0.32 C15.87 0.99, 13.17 2.31, 10.22 3.75 M18.56 -0.32 C15.59 1.13, 12.61 2.58, 10.22 3.75 M10.22 3.75 C10.19 2.06, 10.16 0.38, 10.08 -4.1 M10.22 3.75 C10.19 2.04, 10.16 0.33, 10.08 -4.1 M10.08 -4.1 C13.03 -2.79, 15.98 -1.47, 18.56 -0.32 M10.08 -4.1 C13.02 -2.79, 15.96 -1.48, 18.56 -0.32 M18.56 -0.32 C18.56 -0.32, 18.56 -0.32, 18.56 -0.32 M18.56 -0.32 C18.56 -0.32, 18.56 -0.32, 18.56 -0.32" stroke="#1e1e1e" stroke-width="2" fill="none"></path></g></g><mask></mask><g transform="translate(341.7506268929037 336.09763916404927) rotate(0 89.18394470214844 10)"><text x="89.18394470214844" y="14.016" font-family="Virgil, Segoe UI Emoji" font-size="16px" fill="#1e1e1e" text-anchor="middle" style="white-space: pre;" direction="ltr" dominant-baseline="alphabetic">Calculate voting power</text></g><g transform="translate(107.17684515280962 334.26615535557585) rotate(0 20.59998321533203 10)"><text x="20.59998321533203" y="14.016" font-family="Virgil, Segoe UI Emoji" font-size="16px" fill="#1e1e1e" text-anchor="middle" style="white-space: pre;" direction="ltr" dominant-baseline="alphabetic">Slash</text></g><g transform="translate(17.06949038566654 17.928008504733725) rotate(0 35.33598327636719 10)"><text x="35.33598327636719" y="14.016" font-family="Virgil, Segoe UI Emoji" font-size="16px" fill="#1e1e1e" text-anchor="middle" style="white-space: pre;" direction="ltr" dominant-baseline="alphabetic">Delegate</text></g><g transform="translate(224.23800535701685 17.82604433263873) rotate(0 43.095977783203125 10)"><text x="43.095977783203125" y="14.016" font-family="Virgil, Segoe UI Emoji" font-size="16px" fill="#1e1e1e" text-anchor="middle" style="white-space: pre;" direction="ltr" dominant-baseline="alphabetic">Undelegate</text></g><g transform="translate(424.557827998251 13.64655382062756) rotate(0 34.3919677734375 10)"><text x="34.3919677734375" y="14.016" font-family="Virgil, Segoe UI Emoji" font-size="16px" fill="#1e1e1e" text-anchor="middle" style="white-space: pre;" direction="ltr" dominant-baseline="alphabetic">Withdraw</text></g><g stroke-linecap="round" transform="translate(334.14164255878677 328.3895043098055) rotate(0 96.98269121174872 60.87257367444204)"><path d="M0 0 C74.87 0, 149.73 0, 193.97 0 M0 0 C53.01 0, 106.02 0, 193.97 0 M193.97 0 C193.97 28.2, 193.97 56.39, 193.97 121.75 M193.97 0 C193.97 39.29, 193.97 78.59, 193.97 121.75 M193.97 121.75 C143.63 121.75, 93.3 121.75, 0 121.75 M193.97 121.75 C141.28 121.75, 88.59 121.75, 0 121.75 M0 121.75 C0 84.54, 0 47.33, 0 0 M0 121.75 C0 86.49, 0 51.23, 0 0" stroke="#1e1e1e" stroke-width="1" fill="none"></path></g><g stroke-linecap="round" transform="translate(99.84613242420801 327.48145722472964) rotate(0 103.91683420477148 60.3615881454466)"><path d="M0 0 C59.77 0, 119.54 0, 207.83 0 M0 0 C59.91 0, 119.81 0, 207.83 0 M207.83 0 C207.83 32.99, 207.83 65.98, 207.83 120.72 M207.83 0 C207.83 25.44, 207.83 50.88, 207.83 120.72 M207.83 120.72 C125.45 120.72, 43.08 120.72, 0 120.72 M207.83 120.72 C137.42 120.72, 67.01 120.72, 0 120.72 M0 120.72 C0 92.6, 0 64.48, 0 0 M0 120.72 C0 86.1, 0 51.47, 0 0" stroke="#1e1e1e" stroke-width="1" fill="none"></path></g><g stroke-linecap="round" transform="translate(10 10.553423688283601) rotate(0 94.8525665519469 83.10438162698051)"><path d="M0 0 C59.64 0, 119.28 0, 189.71 0 M0 0 C52.22 0, 104.44 0, 189.71 0 M189.71 0 C189.71 33.79, 189.71 67.59, 189.71 166.21 M189.71 0 C189.71 51.39, 189.71 102.78, 189.71 166.21 M189.71 166.21 C141.55 166.21, 93.39 166.21, 0 166.21 M189.71 166.21 C118.75 166.21, 47.8 166.21, 0 166.21 M0 166.21 C0 127.69, 0 89.16, 0 0 M0 166.21 C0 102.8, 0 39.39, 0 0" stroke="#1e1e1e" stroke-width="1" fill="none"></path></g><g stroke-linecap="round" transform="translate(220.67820601552103 10) rotate(0 92.84620857571736 84.00910538284029)"><path d="M0 0 C67.31 0, 134.63 0, 185.69 0 M0 0 C40.5 0, 81 0, 185.69 0 M185.69 0 C185.69 41.26, 185.69 82.53, 185.69 168.02 M185.69 0 C185.69 53.03, 185.69 106.06, 185.69 168.02 M185.69 168.02 C116.58 168.02, 47.47 168.02, 0 168.02 M185.69 168.02 C137.8 168.02, 89.92 168.02, 0 168.02 M0 168.02 C0 120.06, 0 72.1, 0 0 M0 168.02 C0 110.6, 0 53.18, 0 0" stroke="#1e1e1e" stroke-width="1" fill="none"></path></g><g stroke-linecap="round" transform="translate(422.32742104737736 11.015309246888137) rotate(0 142.71145129325805 83.99524689942564)"><path d="M0 0 C66.84 0, 133.68 0, 285.42 0 M0 0 C100.32 0, 200.65 0, 285.42 0 M285.42 0 C285.42 57.58, 285.42 115.15, 285.42 167.99 M285.42 0 C285.42 59.92, 285.42 119.84, 285.42 167.99 M285.42 167.99 C199.45 167.99, 113.48 167.99, 0 167.99 M285.42 167.99 C223.71 167.99, 162 167.99, 0 167.99 M0 167.99 C0 132.97, 0 97.94, 0 0 M0 167.99 C0 133.39, 0 98.78, 0 0" stroke="#1e1e1e" stroke-width="1" fill="none"></path></g><g stroke-linecap="round" transform="translate(304.9544834532262 233.81278963925024) rotate(0 56.83319692539135 16.567678768564065)"><path d="M0 0 L113.67 0 L113.67 33.14 L0 33.14" stroke="none" stroke-width="0" fill="#ffffff"></path><path d="M0 0 C32.33 0, 64.65 0, 113.67 0 M0 0 C43.36 0, 86.72 0, 113.67 0 M113.67 0 C113.67 10.04, 113.67 20.07, 113.67 33.14 M113.67 0 C113.67 11.24, 113.67 22.49, 113.67 33.14 M113.67 33.14 C82.09 33.14, 50.5 33.14, 0 33.14 M113.67 33.14 C72.57 33.14, 31.47 33.14, 0 33.14 M0 33.14 C0 21.8, 0 10.47, 0 0 M0 33.14 C0 20.84, 0 8.55, 0 0" stroke="#1e1e1e" stroke-width="2" fill="none"></path></g><g transform="translate(326.15357720177144 242.02984728296497) rotate(0 35.60797119140625 10)"><text x="35.60797119140625" y="14.016" font-family="Virgil, Segoe UI Emoji" font-size="16px" fill="#1e1e1e" text-anchor="middle" style="white-space: pre;" direction="ltr" dominant-baseline="alphabetic">Validator</text></g><g stroke-linecap="round" transform="translate(314.9544834532262 243.81278963925024) rotate(0 56.83319692539135 16.567678768564065)"><path d="M0 0 L113.67 0 L113.67 33.14 L0 33.14" stroke="none" stroke-width="0" fill="#ffffff"></path><path d="M0 0 C40.77 0, 81.54 0, 113.67 0 M0 0 C40.32 0, 80.64 0, 113.67 0 M113.67 0 C113.67 11.75, 113.67 23.5, 113.67 33.14 M113.67 0 C113.67 11.25, 113.67 22.5, 113.67 33.14 M113.67 33.14 C74.64 33.14, 35.61 33.14, 0 33.14 M113.67 33.14 C86.95 33.14, 60.24 33.14, 0 33.14 M0 33.14 C0 23.95, 0 14.76, 0 0 M0 33.14 C0 26.11, 0 19.08, 0 0" stroke="#1e1e1e" stroke-width="2" fill="none"></path></g><g transform="translate(336.15357720177144 252.02984728296497) rotate(0 35.60797119140625 10)"><text x="35.60797119140625" y="14.016" font-family="Virgil, Segoe UI Emoji" font-size="16px" fill="#1e1e1e" text-anchor="middle" style="white-space: pre;" direction="ltr" dominant-baseline="alphabetic">Validator</text></g><g stroke-linecap="round" transform="translate(324.9544834532262 253.81278963925024) rotate(0 56.83319692539135 16.567678768564065)"><path d="M0 0 L113.67 0 L113.67 33.14 L0 33.14" stroke="none" stroke-width="0" fill="#ffffff"></path><path d="M0 0 C31.69 0, 63.38 0, 113.67 0 M0 0 C37.22 0, 74.45 0, 113.67 0 M113.67 0 C113.67 10.65, 113.67 21.31, 113.67 33.14 M113.67 0 C113.67 8.23, 113.67 16.47, 113.67 33.14 M113.67 33.14 C73.94 33.14, 34.22 33.14, 0 33.14 M113.67 33.14 C89.74 33.14, 65.81 33.14, 0 33.14 M0 33.14 C0 24.82, 0 16.5, 0 0 M0 33.14 C0 23.34, 0 13.55, 0 0" stroke="#1e1e1e" stroke-width="2" fill="none"></path></g><g transform="translate(346.15357720177144 262.02984728296497) rotate(0 35.60797119140625 10)"><text x="35.60797119140625" y="14.016" font-family="Virgil, Segoe UI Emoji" font-size="16px" fill="#1e1e1e" text-anchor="middle" style="white-space: pre;" direction="ltr" dominant-baseline="alphabetic">Validator</text></g><g stroke-linecap="round" transform="translate(118.18296610425386 231.70493012551924) rotate(0 56.83319692539135 16.567678768564065)"><path d="M0 0 L113.67 0 L113.67 33.14 L0 33.14" stroke="none" stroke-width="0" fill="#ffffff"></path><path d="M0 0 C32.35 0, 64.7 0, 113.67 0 M0 0 C44.42 0, 88.83 0, 113.67 0 M113.67 0 C113.67 10.36, 113.67 20.73, 113.67 33.14 M113.67 0 C113.67 11.92, 113.67 23.84, 113.67 33.14 M113.67 33.14 C89.94 33.14, 66.22 33.14, 0 33.14 M113.67 33.14 C84.03 33.14, 54.4 33.14, 0 33.14 M0 33.14 C0 22.48, 0 11.83, 0 0 M0 33.14 C0 24.38, 0 15.62, 0 0" stroke="#1e1e1e" stroke-width="2" fill="none"></path></g><g transform="translate(139.3820598527991 239.92198776923397) rotate(0 35.60797119140625 10)"><text x="35.60797119140625" y="14.016" font-family="Virgil, Segoe UI Emoji" font-size="16px" fill="#1e1e1e" text-anchor="middle" style="white-space: pre;" direction="ltr" dominant-baseline="alphabetic">Validator</text></g><g stroke-linecap="round" transform="translate(128.18296610425386 241.70493012551924) rotate(0 56.83319692539135 16.567678768564065)"><path d="M0 0 L113.67 0 L113.67 33.14 L0 33.14" stroke="none" stroke-width="0" fill="#ffffff"></path><path d="M0 0 C30.23 0, 60.46 0, 113.67 0 M0 0 C40.66 0, 81.32 0, 113.67 0 M113.67 0 C113.67 8.64, 113.67 17.27, 113.67 33.14 M113.67 0 C113.67 10.08, 113.67 20.15, 113.67 33.14 M113.67 33.14 C82.71 33.14, 51.75 33.14, 0 33.14 M113.67 33.14 C88.64 33.14, 63.61 33.14, 0 33.14 M0 33.14 C0 24.11, 0 15.08, 0 0 M0 33.14 C0 22.38, 0 11.62, 0 0" stroke="#1e1e1e" stroke-width="2" fill="none"></path></g><g transform="translate(149.3820598527991 249.92198776923397) rotate(0 35.60797119140625 10)"><text x="35.60797119140625" y="14.016" font-family="Virgil, Segoe UI Emoji" font-size="16px" fill="#1e1e1e" text-anchor="middle" style="white-space: pre;" direction="ltr" dominant-baseline="alphabetic">Validator</text></g><g stroke-linecap="round" transform="translate(138.18296610425386 251.70493012551924) rotate(0 56.83319692539135 16.567678768564065)"><path d="M0 0 L113.67 0 L113.67 33.14 L0 33.14" stroke="none" stroke-width="0" fill="#ffffff"></path><path d="M0 0 C24.73 0, 49.47 0, 113.67 0 M0 0 C33.01 0, 66.03 0, 113.67 0 M113.67 0 C113.67 10.9, 113.67 21.8, 113.67 33.14 M113.67 0 C113.67 11.76, 113.67 23.52, 113.67 33.14 M113.67 33.14 C81.25 33.14, 48.83 33.14, 0 33.14 M113.67 33.14 C83.51 33.14, 53.36 33.14, 0 33.14 M0 33.14 C0 20.86, 0 8.58, 0 0 M0 33.14 C0 21.61, 0 10.09, 0 0" stroke="#1e1e1e" stroke-width="2" fill="none"></path></g><g transform="translate(177.1180446550452 259.92198776923397) rotate(0 17.871986389160156 10)"><text x="17.871986389160156" y="14.016" font-family="Virgil, Segoe UI Emoji" font-size="16px" fill="#1e1e1e" text-anchor="middle" style="white-space: pre;" direction="ltr" dominant-baseline="alphabetic">User</text></g><g stroke-linecap="round"><g transform="translate(146.05385753237806 88.08729554668662) rotate(0 -19.56801638412435 0.08621124984836115)"><path d="M0 0 C-9.31 0.04, -18.61 0.08, -39.14 0.17 M0 0 C-8.18 0.04, -16.36 0.07, -39.14 0.17" stroke="#1e1e1e" stroke-width="2" fill="none"></path></g></g><mask></mask><g stroke-linecap="round"><g transform="translate(95.21971244274027 88.623431377938) rotate(0 -19.56801638412435 0.08621124984836115)"><path d="M0 0 C-10.99 0.05, -21.98 0.1, -39.14 0.17 M0 0 C-15.32 0.07, -30.63 0.13, -39.14 0.17" stroke="#1e1e1e" stroke-width="2" fill="none"></path></g></g><mask></mask><g transform="translate(118.68339788733101 89.91032444797452) rotate(0 7.531216856905758 4.632887499059507)"><text x="7.531216856905778" y="6.493455118681777" font-family="Virgil, Segoe UI Emoji" font-size="7.412619998495179px" fill="#1e1e1e" text-anchor="middle" style="white-space: pre;" direction="ltr" dominant-baseline="alphabetic">Pool</text></g><g stroke-linecap="round" transform="translate(572.4223632595322 70.61787192896054) rotate(0 17.56704358636398 16.68577977884115)"><path d="M0 0 L35.13 0 L35.13 33.37 L0 33.37" stroke="none" stroke-width="0" fill="#ffffff"></path><path d="M0 0 C9.98 0, 19.95 0, 35.13 0 M35.13 0 C35.13 10.84, 35.13 21.68, 35.13 33.37 M35.13 33.37 C24.14 33.37, 13.14 33.37, 0 33.37 M0 33.37 C0 20.21, 0 7.05, 0 0" stroke="transparent" stroke-width="1.5" fill="none" stroke-dasharray="1.5 7"></path></g><g stroke-linecap="round" transform="translate(570.2445134165482 67.45461598524389) rotate(0 19.76882379198514 19.121061599534073)"><path d="M0 0 L39.54 0 L39.54 38.24 L0 38.24" stroke="none" stroke-width="0" fill="#ffffff"></path><path d="M0 0 C8.61 0, 17.22 0, 39.54 0 M0 0 C10.17 0, 20.33 0, 39.54 0 M39.54 0 C39.54 10.73, 39.54 21.46, 39.54 38.24 M39.54 0 C39.54 12.7, 39.54 25.4, 39.54 38.24 M39.54 38.24 C25.93 38.24, 12.32 38.24, 0 38.24 M39.54 38.24 C26.26 38.24, 12.98 38.24, 0 38.24 M0 38.24 C0 28.94, 0 19.64, 0 0 M0 38.24 C0 25.32, 0 12.39, 0 0" stroke="#1e1e1e" stroke-width="2" fill="none"></path></g><g transform="translate(584.2004175918337 77.53543481423367) rotate(0 5.812919616699219 9.040242770544182)"><text x="5.812919616699219" y="12.670804267194761" font-family="Virgil, Segoe UI Emoji" font-size="14.46438843287073px" fill="#1e1e1e" text-anchor="middle" style="white-space: pre;" direction="ltr" dominant-baseline="alphabetic">T</text></g><g stroke-linecap="round"><g transform="translate(609.4631230931127 94.46989917913152) rotate(0 -19.56801638412435 0.08621124984836115)"><path d="M0 0 C-12.6 0.06, -25.2 0.11, -39.14 0.17 M0 0 C-13.2 0.06, -26.4 0.12, -39.14 0.17" stroke="#1e1e1e" stroke-width="2" fill="none"></path></g></g><mask></mask><g transform="translate(582.0926634480657 96.29292808041919) rotate(0 7.531216856905758 4.632887499059507)"><text x="7.531216856905778" y="6.493455118681777" font-family="Virgil, Segoe UI Emoji" font-size="7.412619998495179px" fill="#1e1e1e" text-anchor="middle" style="white-space: pre;" direction="ltr" dominant-baseline="alphabetic">Pool</text></g><g transform="translate(68.01223074342306 89.94907107711992) rotate(0 8.468179495586355 4.738241911779028)"><text x="8.468179495586355" y="6.641119863549531" font-family="Virgil, Segoe UI Emoji" font-size="7.581187058846497px" fill="#1e1e1e" text-anchor="middle" style="white-space: pre;" direction="ltr" dominant-baseline="alphabetic">User</text></g><g stroke-linecap="round" transform="translate(629.1886707026715 70.25913490447033) rotate(0 17.56704358636398 16.68577977884115)"><path d="M0 0 L35.13 0 L35.13 33.37 L0 33.37" stroke="none" stroke-width="0" fill="#ffffff"></path><path d="M0 0 C10.51 0, 21.02 0, 35.13 0 M35.13 0 C35.13 11.17, 35.13 22.33, 35.13 33.37 M35.13 33.37 C22.92 33.37, 10.71 33.37, 0 33.37 M0 33.37 C0 24.57, 0 15.77, 0 0" stroke="transparent" stroke-width="1.5" fill="none" stroke-dasharray="1.5 7"></path></g><g stroke-linecap="round" transform="translate(654.9651920188207 93.56826169501323) rotate(0 4.71032504672894 5.230818008213191)"><path d="M0 0 L9.42 0 L9.42 10.46 L0 10.46" stroke="none" stroke-width="0" fill="#ffffff"></path><path d="M0 0 C3.3 0, 6.6 0, 9.42 0 M0 0 C3.03 0, 6.06 0, 9.42 0 M9.42 0 C9.42 3.53, 9.42 7.06, 9.42 10.46 M9.42 0 C9.42 3.91, 9.42 7.83, 9.42 10.46 M9.42 10.46 C7.04 10.46, 4.67 10.46, 0 10.46 M9.42 10.46 C7.19 10.46, 4.95 10.46, 0 10.46 M0 10.46 C0 6.71, 0 2.95, 0 0 M0 10.46 C0 8.19, 0 5.91, 0 0" stroke="transparent" stroke-width="1" fill="none"></path></g><g stroke-linecap="round" transform="translate(626.8703722193122 67.45556311799169) rotate(0 19.76882379198514 19.121061599534073)"><path d="M0 0 L39.54 0 L39.54 38.24 L0 38.24" stroke="none" stroke-width="0" fill="#ffffff"></path><path d="M0 0 C9.8 0, 19.61 0, 39.54 0 M0 0 C7.98 0, 15.95 0, 39.54 0 M39.54 0 C39.54 10.04, 39.54 20.09, 39.54 38.24 M39.54 0 C39.54 7.74, 39.54 15.48, 39.54 38.24 M39.54 38.24 C28.51 38.24, 17.49 38.24, 0 38.24 M39.54 38.24 C28.83 38.24, 18.13 38.24, 0 38.24 M0 38.24 C0 29.42, 0 20.59, 0 0 M0 38.24 C0 24.61, 0 10.97, 0 0" stroke="#1e1e1e" stroke-width="2" fill="none"></path></g><g transform="translate(640.8262763945977 77.53638194698146) rotate(0 5.812919616699219 9.040242770544182)"><text x="5.812919616699219" y="12.670804267194761" font-family="Virgil, Segoe UI Emoji" font-size="14.46438843287073px" fill="#1e1e1e" text-anchor="middle" style="white-space: pre;" direction="ltr" dominant-baseline="alphabetic">T</text></g><g stroke-linecap="round"><g transform="translate(666.2180216017878 94.7956292043259) rotate(0 -19.56801638412435 0.08621124984836115)"><path d="M0 0 C-7.89 0.03, -15.79 0.07, -39.14 0.17 M0 0 C-10.28 0.05, -20.56 0.09, -39.14 0.17" stroke="#1e1e1e" stroke-width="2" fill="none"></path></g></g><mask></mask><g transform="translate(639.0105399024706 96.12126890350783) rotate(0 8.468179495586355 4.738241911779028)"><text x="8.468179495586355" y="6.641119863549531" font-family="Virgil, Segoe UI Emoji" font-size="7.581187058846497px" fill="#1e1e1e" text-anchor="middle" style="white-space: pre;" direction="ltr" dominant-baseline="alphabetic">User</text></g><g stroke-linecap="round"><g transform="translate(124.93694464816599 230.77950670022346) rotate(0 -24.581830195530983 -64.78339526527634)"><path d="M0 0 C0.02 -10.19, 0.05 -20.38, 0.11 -43.96 M0 0 C0.03 -13.69, 0.07 -27.38, 0.11 -43.96 M0.11 -43.96 C-12.52 -43.99, -25.16 -44.02, -49.27 -44.08 M0.11 -43.96 C-14.64 -44, -29.39 -44.03, -49.27 -44.08 M-49.27 -44.08 C-49.09 -74.65, -48.91 -105.22, -48.76 -129.57 M-49.27 -44.08 C-49.12 -69.39, -48.97 -94.69, -48.76 -129.57" stroke="#2f9e44" stroke-width="2" fill="none"></path></g><g transform="translate(124.93694464816599 230.77950670022346) rotate(0 -24.581830195530983 -64.78339526527634)"><path d="M-48.76 -129.57 L-42.5 -115.93 L-55.18 -116.01 L-48.76 -129.57" stroke="none" stroke-width="0" fill="#2f9e44" fill-rule="evenodd"></path><path d="M-48.76 -129.57 C-47.31 -126.41, -45.86 -123.25, -42.5 -115.93 M-48.76 -129.57 C-46.81 -125.32, -44.86 -121.08, -42.5 -115.93 M-42.5 -115.93 C-45.75 -115.95, -48.99 -115.97, -55.18 -116.01 M-42.5 -115.93 C-46.29 -115.96, -50.08 -115.98, -55.18 -116.01 M-55.18 -116.01 C-52.89 -120.86, -50.59 -125.71, -48.76 -129.57 M-55.18 -116.01 C-53.28 -120.02, -51.38 -124.04, -48.76 -129.57 M-48.76 -129.57 C-48.76 -129.57, -48.76 -129.57, -48.76 -129.57 M-48.76 -129.57 C-48.76 -129.57, -48.76 -129.57, -48.76 -129.57" stroke="#2f9e44" stroke-width="2" fill="none"></path></g></g><mask></mask><g stroke-linecap="round" transform="translate(293.2843169963726 81.32395222553123) rotate(0 5.457462931449754 7.189867534600353)"><path d="M0 0 L10.91 0 L10.91 14.38 L0 14.38" stroke="none" stroke-width="0" fill="#ced4da"></path><path d="M0 0 C2.64 0, 5.28 0, 10.91 0 M0 0 C2.66 0, 5.32 0, 10.91 0 M10.91 0 C10.91 4.29, 10.91 8.58, 10.91 14.38 M10.91 0 C10.91 4.32, 10.91 8.65, 10.91 14.38 M10.91 14.38 C8.38 14.38, 5.84 14.38, 0 14.38 M10.91 14.38 C8.19 14.38, 5.46 14.38, 0 14.38 M0 14.38 C0 10.72, 0 7.06, 0 0 M0 14.38 C0 9.02, 0 3.66, 0 0" stroke="transparent" stroke-width="2" fill="none"></path></g><g stroke-linecap="round" transform="translate(292.052388668405 59.17744922513475) rotate(0 19.76882379198514 19.121061599534073)"><path d="M0 0 C10.85 0, 21.7 0, 39.54 0 M0 0 C9.79 0, 19.58 0, 39.54 0 M39.54 0 C39.54 10.68, 39.54 21.36, 39.54 38.24 M39.54 0 C39.54 13.79, 39.54 27.57, 39.54 38.24 M39.54 38.24 C27.77 38.24, 16.01 38.24, 0 38.24 M39.54 38.24 C24.94 38.24, 10.34 38.24, 0 38.24 M0 38.24 C0 28.55, 0 18.87, 0 0 M0 38.24 C0 27.09, 0 15.94, 0 0" stroke="#1e1e1e" stroke-width="2" fill="none"></path></g><g transform="translate(295.7115294985115 62.976877640522616) rotate(0 16.75189208984375 9.040242770544182)"><text x="0" y="12.670804267194761" font-family="Virgil, Segoe UI Emoji" font-size="14.464388432870733px" fill="#1e1e1e" text-anchor="start" style="white-space: pre;" direction="ltr" dominant-baseline="alphabetic">Bond</text></g><g stroke-linecap="round"><g transform="translate(292.43934469235046 80.0337169942286) rotate(0 19.703792450317906 -0.10150975295960052)"><path d="M0 0 C8.01 -0.04, 16.02 -0.08, 39.41 -0.2 M0 0 C11.7 -0.06, 23.4 -0.12, 39.41 -0.2" stroke="#1e1e1e" stroke-width="1" fill="none"></path></g></g><mask></mask><g stroke-linecap="round"><g transform="translate(305.6075051912758 80.53513429743907) rotate(0 0.05858952184280497 7.95659332090645)"><path d="M0 0 C0.04 5.91, 0.09 11.81, 0.12 15.91 M0 0 C0.03 3.78, 0.06 7.55, 0.12 15.91" stroke="#1e1e1e" stroke-width="1" fill="none"></path></g></g><mask></mask><g stroke-linecap="round"><g transform="translate(318.1744087036368 80.62080695545137) rotate(0 0.05858952184280497 7.95659332090645)"><path d="M0 0 C0.03 3.88, 0.06 7.75, 0.12 15.91 M0 0 C0.03 4.75, 0.07 9.49, 0.12 15.91" stroke="#1e1e1e" stroke-width="1" fill="none"></path></g></g><mask></mask><g transform="translate(306.86253680127356 80.78238881405014) rotate(0 4.135993957519531 10)"><text x="4.135993957519531" y="14.016" font-family="Virgil, Segoe UI Emoji" font-size="16px" fill="#1e1e1e" text-anchor="middle" style="white-space: pre;" direction="ltr" dominant-baseline="alphabetic">V</text></g><g transform="translate(318.9969635936195 80.64874321194247) rotate(0 5.8079986572265625 10)"><text x="5.8079986572265625" y="14.016" font-family="Virgil, Segoe UI Emoji" font-size="16px" fill="#1e1e1e" text-anchor="middle" style="white-space: pre;" direction="ltr" dominant-baseline="alphabetic">O</text></g><g transform="translate(293.8464350819859 80.95164105111644) rotate(0 4.698822021484375 8.331806759918436)"><text x="0" y="11.677860354701604" font-family="Virgil, Segoe UI Emoji" font-size="13.330890815869413px" fill="#1e1e1e" text-anchor="start" style="white-space: pre;" direction="ltr" dominant-baseline="alphabetic">Q</text></g><g stroke-linecap="round"><g transform="translate(139.95059852718805 155.14781324745445) rotate(0 -31.701520405321844 8.585296252663284)"><path d="M0 0 C0.03 3.85, 0.07 7.7, 0.15 16.94 M0 0 C0.05 6.21, 0.11 12.42, 0.15 16.94 M0.15 16.94 C-23.17 17.02, -46.48 17.11, -63.55 17.17 M0.15 16.94 C-23.62 17.03, -47.39 17.11, -63.55 17.17" stroke="#2f9e44" stroke-width="2" fill="none"></path></g><g transform="translate(139.95059852718805 155.14781324745445) rotate(0 -31.701520405321844 8.585296252663284)"><path d="M0 0 L3.65 7.64 L-3.51 7.71 L0 0" stroke="none" stroke-width="0" fill="#2f9e44" fill-rule="evenodd"></path><path d="M0 0 C0.83 1.74, 1.66 3.48, 3.65 7.64 M0 0 C1.34 2.8, 2.67 5.6, 3.65 7.64 M3.65 7.64 C1.03 7.67, -1.59 7.69, -3.51 7.71 M3.65 7.64 C0.97 7.67, -1.7 7.69, -3.51 7.71 M-3.51 7.71 C-2.27 4.97, -1.02 2.24, 0 0 M-3.51 7.71 C-2.66 5.83, -1.8 3.94, 0 0 M0 0 C0 0, 0 0, 0 0 M0 0 C0 0, 0 0, 0 0" stroke="#2f9e44" stroke-width="2" fill="none"></path></g></g><mask></mask><g stroke-linecap="round"><g transform="translate(284.93630573681 132.89160885330512) rotate(0 28.03898576542406 0.05002590179469735)"><path d="M0 0 C17.98 0.03, 35.96 0.06, 56.08 0.1 M0 0 C18.74 0.03, 37.47 0.07, 56.08 0.1" stroke="#1e1e1e" stroke-width="2" fill="none"></path></g></g><mask></mask><g stroke-linecap="round"><g transform="translate(585.5030381679662 136.20136285663102) rotate(0 28.03898576542406 0.05002590179469735)"><path d="M0 0 C20.76 0.04, 41.53 0.07, 56.08 0.1 M0 0 C17.36 0.03, 34.73 0.06, 56.08 0.1" stroke="#1e1e1e" stroke-width="2" fill="none"></path></g></g><mask></mask><g transform="translate(286.06151127921476 133.29181606766224) rotate(0 5.6399993896484375 10)"><text x="5.6399993896484375" y="14.016" font-family="Virgil, Segoe UI Emoji" font-size="16px" fill="#1e1e1e" text-anchor="middle" style="white-space: pre;" direction="ltr" dominant-baseline="alphabetic">Q</text></g><g transform="translate(586.628243710371 136.60157007098815) rotate(0 5.6399993896484375 10)"><text x="5.6399993896484375" y="14.016" font-family="Virgil, Segoe UI Emoji" font-size="16px" fill="#1e1e1e" text-anchor="middle" style="white-space: pre;" direction="ltr" dominant-baseline="alphabetic">Q</text></g><g transform="translate(107.16370610283684 135.47500281703515) rotate(0 5.257001126956311 9.320924992660593)"><text x="5.2570011269564585" y="13.06420846971308" font-family="Virgil, Segoe UI Emoji" font-size="14.913479988256942px" fill="#1e1e1e" text-anchor="middle" style="white-space: pre;" direction="ltr" dominant-baseline="alphabetic">Q</text></g><g transform="translate(342.2309163422051 403.4480275509145) rotate(0 4.698822021484375 8.331806759918436)"><text x="0" y="11.677860354701604" font-family="Virgil, Segoe UI Emoji" font-size="13.330890815869413px" fill="#1e1e1e" text-anchor="start" style="white-space: pre;" direction="ltr" dominant-baseline="alphabetic">Q</text></g><g stroke-linecap="round" transform="translate(341.6687982565918 403.8203387253293) rotate(0 5.457462931449754 7.189867534600353)"><path d="M0 0 L10.91 0 L10.91 14.38 L0 14.38" stroke="none" stroke-width="0" fill="#ffffff"></path><path d="M0 0 C2.53 0, 5.06 0, 10.91 0 M0 0 C2.33 0, 4.66 0, 10.91 0 M10.91 0 C10.91 4.91, 10.91 9.82, 10.91 14.38 M10.91 0 C10.91 4.79, 10.91 9.57, 10.91 14.38 M10.91 14.38 C8.59 14.38, 6.27 14.38, 0 14.38 M10.91 14.38 C8.04 14.38, 5.16 14.38, 0 14.38 M0 14.38 C0 10.46, 0 6.54, 0 0 M0 14.38 C0 10.81, 0 7.24, 0 0" stroke="transparent" stroke-width="2" fill="none"></path></g><g stroke-linecap="round" transform="translate(340.4368699286242 381.6738357249328) rotate(0 19.76882379198514 19.121061599534187)"><path d="M0 0 L39.54 0 L39.54 38.24 L0 38.24" stroke="none" stroke-width="0" fill="#ffffff"></path><path d="M0 0 C14.18 0, 28.36 0, 39.54 0 M0 0 C9.56 0, 19.12 0, 39.54 0 M39.54 0 C39.54 10.66, 39.54 21.31, 39.54 38.24 M39.54 0 C39.54 9.33, 39.54 18.66, 39.54 38.24 M39.54 38.24 C31.11 38.24, 22.68 38.24, 0 38.24 M39.54 38.24 C27.61 38.24, 15.68 38.24, 0 38.24 M0 38.24 C0 26.15, 0 14.05, 0 0 M0 38.24 C0 27.75, 0 17.25, 0 0" stroke="#1e1e1e" stroke-width="2" fill="none"></path></g><g transform="translate(344.0960107587307 385.4732641403207) rotate(0 16.75189208984375 9.040242770544182)"><text x="0" y="12.670804267194761" font-family="Virgil, Segoe UI Emoji" font-size="14.464388432870733px" fill="#1e1e1e" text-anchor="start" style="white-space: pre;" direction="ltr" dominant-baseline="alphabetic">Bond</text></g><g stroke-linecap="round"><g transform="translate(340.8238259525697 402.53010349402666) rotate(0 19.703792450317906 -0.10150975295960052)"><path d="M0 0 C11.73 -0.06, 23.46 -0.12, 39.41 -0.2 M0 0 C14.81 -0.08, 29.62 -0.15, 39.41 -0.2" stroke="#1e1e1e" stroke-width="1" fill="none"></path></g></g><mask></mask><g stroke-linecap="round"><g transform="translate(353.991986451495 403.03152079723714) rotate(0 0.05858952184280497 7.95659332090645)"><path d="M0 0 C0.03 4.7, 0.07 9.4, 0.12 15.91 M0 0 C0.04 5.42, 0.08 10.85, 0.12 15.91" stroke="#1e1e1e" stroke-width="1" fill="none"></path></g></g><mask></mask><g stroke-linecap="round"><g transform="translate(366.558889963856 403.11719345524943) rotate(0 0.05858952184280497 7.95659332090645)"><path d="M0 0 C0.04 5.5, 0.08 11, 0.12 15.91 M0 0 C0.05 6.22, 0.09 12.44, 0.12 15.91" stroke="#1e1e1e" stroke-width="1" fill="none"></path></g></g><mask></mask><g transform="translate(355.2470180614928 403.2787753138482) rotate(0 4.135993957519531 10)"><text x="4.135993957519531" y="14.016" font-family="Virgil, Segoe UI Emoji" font-size="16px" fill="#1e1e1e" text-anchor="middle" style="white-space: pre;" direction="ltr" dominant-baseline="alphabetic">V</text></g><g transform="translate(367.38144485383873 403.14512971174054) rotate(0 5.8079986572265625 10)"><text x="5.8079986572265625" y="14.016" font-family="Virgil, Segoe UI Emoji" font-size="16px" fill="#1e1e1e" text-anchor="middle" style="white-space: pre;" direction="ltr" dominant-baseline="alphabetic">O</text></g><g transform="translate(341.5904001591134 402.3203760681008) rotate(0 5.257001126956311 9.320924992660593)"><text x="5.2570011269564585" y="13.06420846971308" font-family="Virgil, Segoe UI Emoji" font-size="14.913479988256942px" fill="#1e1e1e" text-anchor="middle" style="white-space: pre;" direction="ltr" dominant-baseline="alphabetic">Q</text></g><g transform="translate(302.7776483804555 133.96450478966653) rotate(0 4.135993957519531 10)"><text x="4.135993957519531" y="14.016" font-family="Virgil, Segoe UI Emoji" font-size="16px" fill="#1e1e1e" text-anchor="middle" style="white-space: pre;" direction="ltr" dominant-baseline="alphabetic">V</text></g><g transform="translate(603.3443808116117 137.27425879299244) rotate(0 4.135993957519531 10)"><text x="4.135993957519531" y="14.016" font-family="Virgil, Segoe UI Emoji" font-size="16px" fill="#1e1e1e" text-anchor="middle" style="white-space: pre;" direction="ltr" dominant-baseline="alphabetic">V</text></g><g transform="translate(314.8063544871311 134.44560495160522) rotate(0 5.8079986572265625 10)"><text x="5.8079986572265625" y="14.016" font-family="Virgil, Segoe UI Emoji" font-size="16px" fill="#1e1e1e" text-anchor="middle" style="white-space: pre;" direction="ltr" dominant-baseline="alphabetic">O</text></g><g transform="translate(615.3730869182873 137.75535895493113) rotate(0 5.8079986572265625 10)"><text x="5.8079986572265625" y="14.016" font-family="Virgil, Segoe UI Emoji" font-size="16px" fill="#1e1e1e" text-anchor="middle" style="white-space: pre;" direction="ltr" dominant-baseline="alphabetic">O</text></g><g transform="translate(329.7844234987815 133.7622724207099) rotate(0 4.519996643066406 10)"><text x="4.519996643066406" y="14.016" font-family="Virgil, Segoe UI Emoji" font-size="16px" fill="#1e1e1e" text-anchor="middle" style="white-space: pre;" direction="ltr" dominant-baseline="alphabetic">t</text></g><g transform="translate(630.3511559299377 137.0720264240358) rotate(0 4.519996643066406 10)"><text x="4.519996643066406" y="14.016" font-family="Virgil, Segoe UI Emoji" font-size="16px" fill="#1e1e1e" text-anchor="middle" style="white-space: pre;" direction="ltr" dominant-baseline="alphabetic">t</text></g><g stroke-linecap="round"><g transform="translate(328.24383535847755 133.58771395487292) rotate(0 0.18945979828595227 8.57252368199238)"><path d="M0 0 C0.09 4.28, 0.19 8.55, 0.38 17.15 M0 0 C0.14 6.25, 0.28 12.49, 0.38 17.15" stroke="#1e1e1e" stroke-width="2" fill="none"></path></g></g><mask></mask><g stroke-linecap="round"><g transform="translate(628.8105677896338 136.89746795819883) rotate(0 0.18945979828595227 8.57252368199238)"><path d="M0 0 C0.08 3.79, 0.17 7.59, 0.38 17.15 M0 0 C0.1 4.62, 0.2 9.25, 0.38 17.15" stroke="#1e1e1e" stroke-width="2" fill="none"></path></g></g><mask></mask><g stroke-linecap="round"><g transform="translate(313.33306502654887 133.83372748581678) rotate(0 0.06812037691179285 8.57252368199238)"><path d="M0 0 C0.03 3.67, 0.06 7.34, 0.14 17.15 M0 0 C0.04 4.45, 0.07 8.91, 0.14 17.15" stroke="#1e1e1e" stroke-width="2" fill="none"></path></g></g><mask></mask><g stroke-linecap="round"><g transform="translate(613.8997974577051 137.1434814891427) rotate(0 0.06812037691179285 8.57252368199238)"><path d="M0 0 C0.05 5.88, 0.09 11.75, 0.14 17.15 M0 0 C0.04 4.59, 0.07 9.18, 0.14 17.15" stroke="#1e1e1e" stroke-width="2" fill="none"></path></g></g><mask></mask><g stroke-linecap="round"><g transform="translate(299.95500317513597 134.3926689981995) rotate(0 0.18945979828595227 8.57252368199238)"><path d="M0 0 C0.15 6.59, 0.29 13.19, 0.38 17.15 M0 0 C0.15 6.83, 0.3 13.66, 0.38 17.15" stroke="#1e1e1e" stroke-width="2" fill="none"></path></g></g><mask></mask><g stroke-linecap="round"><g transform="translate(600.5217356062922 137.7024230015254) rotate(0 0.18945979828595227 8.57252368199238)"><path d="M0 0 C0.12 5.31, 0.23 10.62, 0.38 17.15 M0 0 C0.1 4.49, 0.2 8.97, 0.38 17.15" stroke="#1e1e1e" stroke-width="2" fill="none"></path></g></g><mask></mask><g stroke-linecap="round"><g transform="translate(283.3801808767421 143.0181286336001) rotate(0 2.3128996723326054 -21.713370140631014)"><path d="M0 0 C-3.04 0.07, -6.07 0.14, -13.08 0.3 M0 0 C-3.82 0.09, -7.64 0.18, -13.08 0.3 M-13.08 0.3 C-12.94 -11.4, -12.79 -23.1, -12.64 -35.28 M-13.08 0.3 C-12.97 -8.96, -12.85 -18.22, -12.64 -35.28 M-12.64 -35.28 C-4.22 -35.26, 4.21 -35.25, 17.71 -35.24 M-12.64 -35.28 C-6.33 -35.27, -0.01 -35.26, 17.71 -35.24 M17.71 -35.24 C17.56 -38.25, 17.42 -41.27, 17.3 -43.73 M17.71 -35.24 C17.6 -37.41, 17.5 -39.59, 17.3 -43.73" stroke="#e03131" stroke-width="2" fill="none"></path></g><g transform="translate(283.3801808767421 143.0181286336001) rotate(0 2.3128996723326054 -21.713370140631014)"><path d="M17.3 -43.73 L19.28 -39.97 L15.69 -39.79 L17.3 -43.73" stroke="none" stroke-width="0" fill="#e03131" fill-rule="evenodd"></path><path d="M17.3 -43.73 C17.76 -42.86, 18.22 -41.98, 19.28 -39.97 M17.3 -43.73 C17.88 -42.63, 18.45 -41.53, 19.28 -39.97 M19.28 -39.97 C18.1 -39.91, 16.92 -39.85, 15.69 -39.79 M19.28 -39.97 C18.34 -39.92, 17.41 -39.88, 15.69 -39.79 M15.69 -39.79 C16.14 -40.89, 16.58 -41.98, 17.3 -43.73 M15.69 -39.79 C16.02 -40.61, 16.36 -41.43, 17.3 -43.73 M17.3 -43.73 C17.3 -43.73, 17.3 -43.73, 17.3 -43.73 M17.3 -43.73 C17.3 -43.73, 17.3 -43.73, 17.3 -43.73" stroke="#e03131" stroke-width="2" fill="none"></path></g></g><mask></mask><g stroke-linecap="round"><g transform="translate(308.49105481584957 153.04033908674955) rotate(0 -13.403748538283253 -24.87426568018111)"><path d="M0 0 C-0.01 1.62, -0.03 3.24, -0.04 5.39 M0 0 C-0.01 1.85, -0.03 3.7, -0.04 5.39 M-0.04 5.39 C-8.51 5.43, -16.97 5.48, -30.17 5.55 M-0.04 5.39 C-7.63 5.43, -15.22 5.47, -30.17 5.55 M-30.17 5.55 C-30.19 -4.57, -30.21 -14.69, -30.28 -42.54 M-30.17 5.55 C-30.2 -10.26, -30.24 -26.08, -30.28 -42.54 M-30.28 -42.54 C-22.23 -42.52, -14.18 -42.49, 3.47 -42.44 M-30.28 -42.54 C-19.78 -42.51, -9.29 -42.48, 3.47 -42.44 M3.47 -42.44 C3.43 -45.83, 3.4 -49.22, 3.33 -55.3 M3.47 -42.44 C3.42 -47.31, 3.36 -52.18, 3.33 -55.3" stroke="#e03131" stroke-width="2" fill="none"></path></g><g transform="translate(308.49105481584957 153.04033908674955) rotate(0 -13.403748538283253 -24.87426568018111)"><path d="M3.33 -55.3 L6.11 -49.5 L0.68 -49.44 L3.33 -55.3" stroke="none" stroke-width="0" fill="#e03131" fill-rule="evenodd"></path><path d="M3.33 -55.3 C4.17 -53.55, 5 -51.81, 6.11 -49.5 M3.33 -55.3 C4.28 -53.31, 5.24 -51.32, 6.11 -49.5 M6.11 -49.5 C4.58 -49.48, 3.06 -49.47, 0.68 -49.44 M6.11 -49.5 C4.74 -49.48, 3.37 -49.47, 0.68 -49.44 M0.68 -49.44 C1.23 -50.67, 1.79 -51.9, 3.33 -55.3 M0.68 -49.44 C1.55 -51.37, 2.42 -53.29, 3.33 -55.3 M3.33 -55.3 C3.33 -55.3, 3.33 -55.3, 3.33 -55.3 M3.33 -55.3 C3.33 -55.3, 3.33 -55.3, 3.33 -55.3" stroke="#e03131" stroke-width="2" fill="none"></path></g></g><mask></mask><g stroke-linecap="round"><g transform="translate(434.7914174789994 421.9892909927644) rotate(0 19.557783147737155 0)"><path d="M0 0 C15.24 0, 30.49 0, 39.12 0 M0 0 C15.11 0, 30.23 0, 39.12 0" stroke="#1e1e1e" stroke-width="2" fill="none"></path></g></g><mask></mask><g stroke-linecap="round"><g transform="translate(455.78361773403503 422.2148847758185) rotate(0 0.011978430958606623 5.838486889762407)"><path d="M0 0 C0.01 3.14, 0.01 6.27, 0.02 11.68 M0 0 C0.01 3.69, 0.02 7.37, 0.02 11.68" stroke="#1e1e1e" stroke-width="2" fill="none"></path></g></g><mask></mask><g transform="translate(442.5411520241969 422.15299621586564) rotate(0 2.5183096129458136 5.571482447686549)"><text x="2.518309612945918" y="7.808989798677469" font-family="Virgil, Segoe UI Emoji" font-size="8.914371916298482px" fill="#1e1e1e" text-anchor="middle" style="white-space: pre;" direction="ltr" dominant-baseline="alphabetic">t</text></g><g transform="translate(457.3087702726225 422.8497416166274) rotate(0 7.4788081502010755 5.213895151434826)"><text x="7.478808150201283" y="7.3077954442509085" font-family="Virgil, Segoe UI Emoji" font-size="8.342232242295557px" fill="#1e1e1e" text-anchor="middle" style="white-space: pre;" direction="ltr" dominant-baseline="alphabetic">map</text></g><g stroke-linecap="round"><g transform="translate(213.45871888288002 286.42355957244445) rotate(0 221.8983775503134 -74.63327080833164)"><path d="M0 0 C-0.11 8.6, -0.23 17.2, -0.4 30.29 M0 0 C-0.16 11.75, -0.31 23.5, -0.4 30.29 M-0.4 30.29 C173.55 30.22, 347.5 30.15, 443.38 30.11 M-0.4 30.29 C156.74 30.23, 313.89 30.16, 443.38 30.11 M443.38 30.11 C443.64 -35.22, 443.89 -100.56, 444.2 -179.56 M443.38 30.11 C443.69 -49.29, 444 -128.69, 444.2 -179.56" stroke="#2f9e44" stroke-width="2" fill="none"></path></g><g transform="translate(213.45871888288002 286.42355957244445) rotate(0 221.8983775503134 -74.63327080833164)"><path d="M444.2 -179.56 L450.49 -165.94 L437.81 -165.99 L444.2 -179.56" stroke="none" stroke-width="0" fill="#2f9e44" fill-rule="evenodd"></path><path d="M444.2 -179.56 C445.98 -175.69, 447.77 -171.82, 450.49 -165.94 M444.2 -179.56 C446.64 -174.27, 449.08 -168.99, 450.49 -165.94 M450.49 -165.94 C445.52 -165.96, 440.55 -165.98, 437.81 -165.99 M450.49 -165.94 C446 -165.96, 441.51 -165.97, 437.81 -165.99 M437.81 -165.99 C439.8 -170.22, 441.79 -174.44, 444.2 -179.56 M437.81 -165.99 C440.23 -171.13, 442.65 -176.26, 444.2 -179.56 M444.2 -179.56 C444.2 -179.56, 444.2 -179.56, 444.2 -179.56 M444.2 -179.56 C444.2 -179.56, 444.2 -179.56, 444.2 -179.56" stroke="#2f9e44" stroke-width="2" fill="none"></path></g></g><mask></mask><g stroke-linecap="round"><g transform="translate(417.66406462319264 286.86161434383257) rotate(0 60.649695558009626 71.45393757067359)"><path d="M0 0 C-0.03 4.72, -0.06 9.44, -0.12 19.31 M0 0 C-0.03 5.06, -0.06 10.12, -0.12 19.31 M-0.12 19.31 C29.16 19.42, 58.44 19.52, 121.19 19.74 M-0.12 19.31 C38.79 19.45, 77.71 19.59, 121.19 19.74 M121.19 19.74 C121.27 65.29, 121.36 110.85, 121.42 142.91 M121.19 19.74 C121.25 55.75, 121.32 91.76, 121.42 142.91 M121.42 142.91 C97.66 142.9, 73.89 142.89, 58.43 142.88 M121.42 142.91 C97.86 142.9, 74.3 142.89, 58.43 142.88" stroke="#1971c2" stroke-width="2" fill="none"></path></g><g transform="translate(417.66406462319264 286.86161434383257) rotate(0 60.649695558009626 71.45393757067359)"><path d="M58.43 142.88 L72.02 136.55 L72.02 149.23 L58.43 142.88" stroke="none" stroke-width="0" fill="#1971c2" fill-rule="evenodd"></path><path d="M58.43 142.88 C61.75 141.33, 65.07 139.79, 72.02 136.55 M58.43 142.88 C61.99 141.22, 65.55 139.56, 72.02 136.55 M72.02 136.55 C72.02 139.61, 72.02 142.67, 72.02 149.23 M72.02 136.55 C72.02 140.62, 72.02 144.68, 72.02 149.23 M72.02 149.23 C66.99 146.88, 61.96 144.53, 58.43 142.88 M72.02 149.23 C68.04 147.37, 64.07 145.52, 58.43 142.88 M58.43 142.88 C58.43 142.88, 58.43 142.88, 58.43 142.88 M58.43 142.88 C58.43 142.88, 58.43 142.88, 58.43 142.88" stroke="#1971c2" stroke-width="2" fill="none"></path></g></g><mask></mask><g stroke-linecap="round"><g transform="translate(329.07455377942733 287.9481471763788) rotate(0 -44.393842179182684 65.8610207017307)"><path d="M0 0 C0.06 49.9, 0.12 99.8, 0.15 131.01 M0 0 C0.04 36.76, 0.08 73.52, 0.15 131.01 M0.15 131.01 C-23.99 131.2, -48.14 131.4, -88.94 131.72 M0.15 131.01 C-34.22 131.28, -68.59 131.56, -88.94 131.72 M-88.94 131.72 C-88.94 128.35, -88.93 124.98, -88.93 117.52 M-88.94 131.72 C-88.93 127.03, -88.93 122.35, -88.93 117.52" stroke="#1971c2" stroke-width="2" fill="none"></path></g><g transform="translate(329.07455377942733 287.9481471763788) rotate(0 -44.393842179182684 65.8610207017307)"><path d="M-88.93 117.52 L-85.93 123.96 L-91.93 123.95 L-88.93 117.52" stroke="none" stroke-width="0" fill="#1971c2" fill-rule="evenodd"></path><path d="M-88.93 117.52 C-87.78 119.98, -86.64 122.43, -85.93 123.96 M-88.93 117.52 C-88.09 119.33, -87.25 121.14, -85.93 123.96 M-85.93 123.96 C-87.56 123.96, -89.18 123.96, -91.93 123.95 M-85.93 123.96 C-88.25 123.96, -90.56 123.96, -91.93 123.95 M-91.93 123.95 C-91.22 122.43, -90.5 120.9, -88.93 117.52 M-91.93 123.95 C-90.94 121.83, -89.95 119.71, -88.93 117.52 M-88.93 117.52 C-88.93 117.52, -88.93 117.52, -88.93 117.52 M-88.93 117.52 C-88.93 117.52, -88.93 117.52, -88.93 117.52" stroke="#1971c2" stroke-width="2" fill="none"></path></g></g><mask></mask><g stroke-linecap="round"><g transform="translate(305.1502205306824 246.46149774269315) rotate(0 -88.66382212467897 -46.89606151573639)"><path d="M0 0 C-15.99 0.05, -31.98 0.11, -45.48 0.15 M0 0 C-15.02 0.05, -30.03 0.1, -45.48 0.15 M-45.48 0.15 C-45.75 -16.11, -46.02 -32.36, -46.3 -49.41 M-45.48 0.15 C-45.65 -10.04, -45.82 -20.23, -46.3 -49.41 M-46.3 -49.41 C-94.09 -49.6, -141.88 -49.8, -176.75 -49.94 M-46.3 -49.41 C-84.41 -49.56, -122.52 -49.72, -176.75 -49.94 M-176.75 -49.94 C-176.88 -59.64, -177 -69.35, -177.33 -93.94 M-176.75 -49.94 C-176.88 -59.95, -177.01 -69.96, -177.33 -93.94" stroke="#1971c2" stroke-width="2" fill="none"></path></g><g transform="translate(305.1502205306824 246.46149774269315) rotate(0 -88.66382212467897 -46.89606151573639)"><path d="M-177.33 -93.94 L-170.81 -80.43 L-183.49 -80.27 L-177.33 -93.94" stroke="none" stroke-width="0" fill="#1971c2" fill-rule="evenodd"></path><path d="M-177.33 -93.94 C-175.04 -89.19, -172.74 -84.44, -170.81 -80.43 M-177.33 -93.94 C-175.18 -89.48, -173.02 -85.02, -170.81 -80.43 M-170.81 -80.43 C-174.97 -80.38, -179.13 -80.32, -183.49 -80.27 M-170.81 -80.43 C-173.42 -80.4, -176.02 -80.36, -183.49 -80.27 M-183.49 -80.27 C-181.23 -85.28, -178.97 -90.29, -177.33 -93.94 M-183.49 -80.27 C-181.69 -84.26, -179.89 -88.26, -177.33 -93.94 M-177.33 -93.94 C-177.33 -93.94, -177.33 -93.94, -177.33 -93.94 M-177.33 -93.94 C-177.33 -93.94, -177.33 -93.94, -177.33 -93.94" stroke="#1971c2" stroke-width="2" fill="none"></path></g></g><mask></mask><g stroke-linecap="round"><g transform="translate(369.68728760820886 234.11046346561398) rotate(0 -28.86326017322017 -40.458376196787185)"><path d="M0 0 C0.19 -14.94, 0.37 -29.89, 0.54 -43.11 M0 0 C0.2 -15.62, 0.39 -31.24, 0.54 -43.11 M0.54 -43.11 C-13.84 -43.11, -28.21 -43.1, -58.27 -43.1 M0.54 -43.11 C-17.51 -43.11, -35.57 -43.1, -58.27 -43.1 M-58.27 -43.1 C-58.26 -54.96, -58.25 -66.82, -58.23 -80.92 M-58.27 -43.1 C-58.26 -52.4, -58.25 -61.7, -58.23 -80.92" stroke="#1971c2" stroke-width="2" fill="none"></path></g><g transform="translate(369.68728760820886 234.11046346561398) rotate(0 -28.86326017322017 -40.458376196787185)"><path d="M-58.23 -80.92 L-51.91 -67.32 L-64.58 -67.33 L-58.23 -80.92" stroke="none" stroke-width="0" fill="#1971c2" fill-rule="evenodd"></path><path d="M-58.23 -80.92 C-56.04 -76.2, -53.85 -71.49, -51.91 -67.32 M-58.23 -80.92 C-55.94 -75.99, -53.65 -71.06, -51.91 -67.32 M-51.91 -67.32 C-55 -67.32, -58.1 -67.32, -64.58 -67.33 M-51.91 -67.32 C-55.8 -67.32, -59.69 -67.32, -64.58 -67.33 M-64.58 -67.33 C-62.59 -71.59, -60.6 -75.85, -58.23 -80.92 M-64.58 -67.33 C-63.02 -70.67, -61.46 -74.01, -58.23 -80.92 M-58.23 -80.92 C-58.23 -80.92, -58.23 -80.92, -58.23 -80.92 M-58.23 -80.92 C-58.23 -80.92, -58.23 -80.92, -58.23 -80.92" stroke="#1971c2" stroke-width="2" fill="none"></path></g></g><mask></mask><g transform="translate(602.6768343886233 14.253785926864566) rotate(0 46.175071716308594 14.500629269798196)"><text x="46.175071716308594" y="6.774693994849731" font-family="Virgil, Segoe UI Emoji" font-size="7.733668943892387px" fill="#e03131" text-anchor="middle" style="white-space: pre;" direction="ltr" dominant-baseline="alphabetic">the returned quantity </text><text x="46.175071716308594" y="16.441780174715213" font-family="Virgil, Segoe UI Emoji" font-size="7.733668943892387px" fill="#e03131" text-anchor="middle" style="white-space: pre;" direction="ltr" dominant-baseline="alphabetic">is less or equal to</text><text x="46.175071716308594" y="26.108866354580698" font-family="Virgil, Segoe UI Emoji" font-size="7.733668943892387px" fill="#e03131" text-anchor="middle" style="white-space: pre;" direction="ltr" dominant-baseline="alphabetic"> the delegated quantity</text></g><g stroke-linecap="round"><g transform="translate(645.1846061952365 45.391972787052964) rotate(0 0.25548421421672174 9.509611397194703)"><path d="M0 0 C0.16 5.78, 0.31 11.56, 0.51 19.02 M0 0 C0.18 6.63, 0.36 13.26, 0.51 19.02" stroke="#e03131" stroke-width="2" fill="none"></path></g><g transform="translate(645.1846061952365 45.391972787052964) rotate(0 0.25548421421672174 9.509611397194703)"><path d="M0.51 19.02 L-3.74 10.51 L4.3 10.29 L0.51 19.02" stroke="none" stroke-width="0" fill="#e03131" fill-rule="evenodd"></path><path d="M0.51 19.02 C-0.78 16.43, -2.07 13.85, -3.74 10.51 M0.51 19.02 C-0.97 16.05, -2.45 13.09, -3.74 10.51 M-3.74 10.51 C-0.75 10.43, 2.23 10.35, 4.3 10.29 M-3.74 10.51 C-2.08 10.46, -0.41 10.42, 4.3 10.29 M4.3 10.29 C2.79 13.76, 1.29 17.23, 0.51 19.02 M4.3 10.29 C3.38 12.41, 2.46 14.53, 0.51 19.02 M0.51 19.02 C0.51 19.02, 0.51 19.02, 0.51 19.02 M0.51 19.02 C0.51 19.02, 0.51 19.02, 0.51 19.02" stroke="#e03131" stroke-width="2" fill="none"></path></g></g><mask></mask><g transform="translate(454.88643293294535 125.48745917324322) rotate(0 4.135993957519531 10)"><text x="4.135993957519531" y="14.016" font-family="Virgil, Segoe UI Emoji" font-size="16px" fill="#000000" text-anchor="middle" style="white-space: pre;" direction="ltr" dominant-baseline="alphabetic">V</text></g><g transform="translate(480.38727464970725 127.2738069340271) rotate(0 4.559165279301851 8.405546949345762)"><text x="4.559165279301625" y="11.78121460420311" font-family="Virgil, Segoe UI Emoji" font-size="13.448875118953323px" fill="#000000" text-anchor="middle" style="white-space: pre;" direction="ltr" dominant-baseline="alphabetic">R</text></g><g transform="translate(467.5235561566833 126.7888680564347) rotate(0 3.995256363831686 8.839069316478799)"><text x="3.9952563638315475" y="12.388839553976695" font-family="Virgil, Segoe UI Emoji" font-size="14.142510906366091px" fill="#000000" text-anchor="middle" style="white-space: pre;" direction="ltr" dominant-baseline="alphabetic">t</text></g><g stroke-linecap="round"><g transform="translate(238.79606353352483 372.56961885534565) rotate(0 -0.008005907056940487 6.367258000522952)"><path d="M0 0 C-0.01 4.62, -0.01 9.24, -0.02 12.73 M0 0 C-0.01 4.23, -0.01 8.45, -0.02 12.73" stroke="#1e1e1e" stroke-width="1" fill="none"></path></g></g><mask></mask><g stroke-linecap="round"><g transform="translate(234.7191170371725 382.64129555850786) rotate(0 -0.07525552633524057 6.343560515634408)"><path d="M0 0 C-0.04 3.49, -0.08 6.98, -0.15 12.69 M0 0 C-0.05 4.37, -0.1 8.74, -0.15 12.69" stroke="#1e1e1e" stroke-width="1" fill="none"></path></g></g><mask></mask><g stroke-linecap="round"><g transform="translate(248.79606353352483 382.64129555850786) rotate(0 -0.008005907056940487 6.367258000522952)"><path d="M0 0 C-0.01 4.23, -0.01 8.45, -0.02 12.73 M0 0 C0 3.35, -0.01 6.71, -0.02 12.73" stroke="#1e1e1e" stroke-width="1" fill="none"></path></g></g><mask></mask><g stroke-linecap="round" transform="translate(233.3471662621978 370.311986309071) rotate(0 18.71123133228366 18.098123119129923)"><path d="M0 0 L37.42 0 L37.42 36.2 L0 36.2" stroke="none" stroke-width="0" fill="#ffffff"></path><path d="M0 0 C14.25 0, 28.5 0, 37.42 0 M0 0 C9.16 0, 18.32 0, 37.42 0 M37.42 0 C37.42 10.52, 37.42 21.03, 37.42 36.2 M37.42 0 C37.42 13.67, 37.42 27.35, 37.42 36.2 M37.42 36.2 C22.94 36.2, 8.45 36.2, 0 36.2 M37.42 36.2 C29.09 36.2, 20.77 36.2, 0 36.2 M0 36.2 C0 22.54, 0 8.88, 0 0 M0 36.2 C0 21.95, 0 7.71, 0 0" stroke="#1e1e1e" stroke-width="2" fill="none"></path></g><g transform="translate(248.32787543872018 379.8535015308589) rotate(0 3.7305221557617188 8.556607897341792)"><text x="3.7305221557617188" y="11.992941628914249" font-family="Virgil, Segoe UI Emoji" font-size="13.690572635746861px" fill="#1e1e1e" text-anchor="middle" style="white-space: pre;" direction="ltr" dominant-baseline="alphabetic">I</text></g><g stroke-linecap="round" transform="translate(234.86283934202856 393.6344794392912) rotate(0 4.333759844270844 6.021033670810084)"><path d="M0 0 L8.67 0 L8.67 12.04 L0 12.04" stroke="none" stroke-width="0" fill="#ffffff"></path><path d="M0 0 C2.78 0, 5.56 0, 8.67 0 M0 0 C1.79 0, 3.57 0, 8.67 0 M8.67 0 C8.67 3.74, 8.67 7.47, 8.67 12.04 M8.67 0 C8.67 3.98, 8.67 7.96, 8.67 12.04 M8.67 12.04 C6.01 12.04, 3.34 12.04, 0 12.04 M8.67 12.04 C6.34 12.04, 4 12.04, 0 12.04 M0 12.04 C0 7.31, 0 2.57, 0 0 M0 12.04 C0 8.65, 0 5.27, 0 0" stroke="transparent" stroke-width="2" fill="none"></path></g><g stroke-linecap="round"><g transform="translate(233.49705906978124 392.7336087897611) rotate(0 18.839316737818535 -0.046722713112330894)"><path d="M0 0 C12.98 -0.03, 25.96 -0.06, 37.68 -0.09 M0 0 C13.91 -0.03, 27.82 -0.07, 37.68 -0.09" stroke="#1e1e1e" stroke-width="1" fill="none"></path></g></g><mask></mask><g stroke-linecap="round"><g transform="translate(244.7191170371725 392.64129555850786) rotate(0 -0.07525552633524057 6.343560515634408)"><path d="M0 0 C-0.05 4.37, -0.1 8.74, -0.15 12.69 M0 0 C-0.05 4.4, -0.1 8.8, -0.15 12.69" stroke="#1e1e1e" stroke-width="1" fill="none"></path></g></g><mask></mask><g stroke-linecap="round"><g transform="translate(258.79606353352483 392.64129555850786) rotate(0 -0.008005907056940487 6.367258000522952)"><path d="M0 0 C0 3.35, -0.01 6.71, -0.02 12.73 M0 0 C0 3.9, -0.01 7.79, -0.02 12.73" stroke="#1e1e1e" stroke-width="1" fill="none"></path></g></g><mask></mask><g transform="translate(234.7071638158759 390.2633044410368) rotate(0 4.135993957519531 10)"><text x="4.135993957519531" y="14.016" font-family="Virgil, Segoe UI Emoji" font-size="16px" fill="#000000" text-anchor="middle" style="white-space: pre;" direction="ltr" dominant-baseline="alphabetic">V</text></g><g transform="translate(260.2080055326378 392.04965220182066) rotate(0 4.559165279301851 8.405546949345762)"><text x="4.559165279301625" y="11.78121460420311" font-family="Virgil, Segoe UI Emoji" font-size="13.448875118953323px" fill="#000000" text-anchor="middle" style="white-space: pre;" direction="ltr" dominant-baseline="alphabetic">R</text></g><g transform="translate(247.34428703961385 391.56471332422825) rotate(0 3.995256363831686 8.839069316478799)"><text x="3.9952563638315475" y="12.388839553976695" font-family="Virgil, Segoe UI Emoji" font-size="14.142510906366091px" fill="#000000" text-anchor="middle" style="white-space: pre;" direction="ltr" dominant-baseline="alphabetic">t</text></g></svg>