<svg version="1.1" xmlns="http://www.w3.org/2000/svg" viewBox="0 0 1392.780943866936 905.4748527984461" width="2785.561887733872" height="1810.9497055968923">
  <!-- svg-source:excalidraw -->

  <defs>
    <style class="style-fonts">
      @font-face {
        font-family: "Virgil";
        src: url("https://excalidraw.com/Virgil.woff2");
      }
      @font-face {
        font-family: "Cascadia";
        src: url("https://excalidraw.com/Cascadia.woff2");
      }
      @font-face {
        font-family: "Assistant";
        src: url("https://excalidraw.com/Assistant-Regular.woff2");
      }
    </style>

  </defs>
  <rect x="0" y="0" width="1392.780943866936" height="905.4748527984461" fill="#ffffff"></rect><g stroke-linecap="round" transform="translate(654.3974097376749 218.62414096879638) rotate(0 325.1343897390632 338.4253559148249)"><path d="M32 0 C149.89 -4.18, 266.33 -3, 618.27 0 C639.9 -0.43, 647.3 7.98, 650.27 32 C647.89 260.82, 648.3 490.98, 650.27 644.85 C650.33 664.82, 642.21 676.69, 618.27 676.85 C497.07 681.74, 373.89 680.24, 32 676.85 C7.57 680.21, -0.67 663.94, 0 644.85 C0.76 464.44, 3.09 283.83, 0 32 C-1.58 13.24, 13.96 -2.55, 32 0" stroke="none" stroke-width="0" fill="#d0bfff"></path><path d="M32 0 C159.03 -0.52, 285.7 -0.03, 618.27 0 M32 0 C244.57 2.28, 456.8 2.63, 618.27 0 M618.27 0 C639.56 -0.12, 651.29 9.99, 650.27 32 M618.27 0 C637.51 0.8, 652.07 8.86, 650.27 32 M650.27 32 C650.39 203.3, 650.32 373.36, 650.27 644.85 M650.27 32 C647.78 192.58, 648.26 353.49, 650.27 644.85 M650.27 644.85 C650.28 664.56, 638.87 676.54, 618.27 676.85 M650.27 644.85 C649.92 666.71, 637.32 678.52, 618.27 676.85 M618.27 676.85 C491.82 675.71, 364.04 675.51, 32 676.85 M618.27 676.85 C451.85 675.4, 284.92 675.74, 32 676.85 M32 676.85 C12.22 678.39, -1.18 665.2, 0 644.85 M32 676.85 C11.46 676.2, -1.33 665.64, 0 644.85 M0 644.85 C1.96 415.72, 1.79 187.09, 0 32 M0 644.85 C-0.26 499.79, -0.25 355.47, 0 32 M0 32 C-1.66 8.73, 10.72 0.83, 32 0 M0 32 C0.32 12.78, 8.42 -0.66, 32 0" stroke="#6741d9" stroke-width="2" fill="none"></path></g><g transform="translate(895.6984636002735 223.62414096879638) rotate(0 83.83333587646484 22.5)"><text x="83.83333587646484" y="0" font-family="Virgil, Segoe UI Emoji" font-size="36px" fill="#6741d9" text-anchor="middle" style="white-space: pre;" direction="ltr" dominant-baseline="text-before-edge">Execution</text></g><g stroke-linecap="round" transform="translate(11.671783110071374 210.0911654540663) rotate(0 154.30105640573004 319.607929931358)"><path d="M32 0 C104.46 1.24, 178.82 1.26, 276.6 0 C300.48 -3.38, 310.24 13.92, 308.6 32 C312.63 187.63, 311.51 343.28, 308.6 607.22 C310.61 625.84, 297.51 636.04, 276.6 639.22 C186.19 640.36, 92.15 639.83, 32 639.22 C9.55 639.27, -2.79 631.71, 0 607.22 C-1.58 419.32, -1.39 230.23, 0 32 C-2.87 10.61, 13.05 -3.04, 32 0" stroke="none" stroke-width="0" fill="#a5d8ff"></path><path d="M32 0 C117.57 0.42, 202.57 -0.32, 276.6 0 M32 0 C109.05 1.3, 185.73 1.32, 276.6 0 M276.6 0 C296.19 -1.11, 308.73 11.1, 308.6 32 M276.6 0 C297.85 -1.44, 308.36 9.58, 308.6 32 M308.6 32 C310.95 189.82, 310.27 348.82, 308.6 607.22 M308.6 32 C307.95 154.58, 307.9 277.32, 308.6 607.22 M308.6 607.22 C308.94 628.43, 296.32 640.5, 276.6 639.22 M308.6 607.22 C310.04 628.67, 296.57 640.08, 276.6 639.22 M276.6 639.22 C207.08 637.87, 136.05 638.63, 32 639.22 M276.6 639.22 C216.37 639.46, 157.53 639.4, 32 639.22 M32 639.22 C11.02 637.55, 0.49 628.66, 0 607.22 M32 639.22 C9.62 638.64, -2.16 630.58, 0 607.22 M0 607.22 C-1.57 451.29, -1.22 295.69, 0 32 M0 607.22 C-2.02 422.17, -1.83 236.37, 0 32 M0 32 C-0.07 11.17, 9.48 -0.15, 32 0 M0 32 C0.79 8.9, 10.62 0.08, 32 0" stroke="#1971c2" stroke-width="2" fill="none"></path></g><g transform="translate(97.40617386638723 215.0911654540663) rotate(0 68.56666564941406 22.5)"><text x="68.56666564941406" y="0" font-family="Virgil, Segoe UI Emoji" font-size="36px" fill="#1971c2" text-anchor="middle" style="white-space: pre;" direction="ltr" dominant-baseline="text-before-edge">Mempool</text></g><g stroke-linecap="round" transform="translate(588.2249242719586 10) rotate(0 65.5 57.5)"><path d="M28.75 0 C43.02 0.34, 61.99 -0.14, 102.25 0 M28.75 0 C55.24 -0.47, 81.01 0.64, 102.25 0 M102.25 0 C119.51 -1.81, 131.06 9.12, 131 28.75 M102.25 0 C121.78 -0.16, 132.01 10.56, 131 28.75 M131 28.75 C132.53 42.61, 132.76 56.76, 131 86.25 M131 28.75 C130.28 45.94, 131.43 65.11, 131 86.25 M131 86.25 C129.93 105.07, 120.11 115.56, 102.25 115 M131 86.25 C131.57 107.38, 122.07 114.85, 102.25 115 M102.25 115 C78.33 114.51, 56.6 115.99, 28.75 115 M102.25 115 C77.64 113.79, 53.5 114.66, 28.75 115 M28.75 115 C8.64 113.32, -1.89 107.41, 0 86.25 M28.75 115 C9.14 116.86, 1.49 103.97, 0 86.25 M0 86.25 C-1.76 73.83, 1.58 64.68, 0 28.75 M0 86.25 C0.39 66.1, 0.06 45.96, 0 28.75 M0 28.75 C1.16 8.09, 9.89 1.9, 28.75 0 M0 28.75 C1.62 9.52, 10.73 -1.51, 28.75 0" stroke="#1e1e1e" stroke-width="2" fill="none"></path></g><g transform="translate(613.708257859605 15) rotate(0 40.016666412353516 52.5)"><text x="40.016666412353516" y="0" font-family="Virgil, Segoe UI Emoji" font-size="28px" fill="#1e1e1e" text-anchor="middle" style="white-space: pre;" direction="ltr" dominant-baseline="text-before-edge">user</text><text x="40.016666412353516" y="35" font-family="Virgil, Segoe UI Emoji" font-size="28px" fill="#1e1e1e" text-anchor="middle" style="white-space: pre;" direction="ltr" dominant-baseline="text-before-edge">/ </text><text x="40.016666412353516" y="70" font-family="Virgil, Segoe UI Emoji" font-size="28px" fill="#1e1e1e" text-anchor="middle" style="white-space: pre;" direction="ltr" dominant-baseline="text-before-edge">solver</text></g><g mask="url(#mask-J4LZr6EGRqOALi5x4KoR7)" stroke-linecap="round"><g transform="translate(581.4512768852044 51.71747225051968) rotate(0 -262.0458127062193 219.92858437121754)"><path d="M0.78 -0.76 C-32.58 -1.19, -115.57 -10.19, -200.36 -1.65 C-285.16 6.89, -461.34 -24, -507.99 50.47 C-554.64 124.94, -485.14 379.45, -480.26 445.17 M-0.27 1.46 C-33.26 1.12, -113.51 -8.54, -198.26 -0.25 C-283.02 8.04, -461.82 -22.69, -508.82 51.19 C-555.82 125.08, -485.11 377.36, -480.26 443.07" stroke="#e03131" stroke-width="2" fill="none"></path></g><g transform="translate(581.4512768852044 51.71747225051968) rotate(0 -262.0458127062193 219.92858437121754)"><path d="M-492.68 421.38 C-490.27 425.45, -485.96 433.28, -480.26 443.07 M-492.68 421.38 C-489.33 426.18, -487.09 430.71, -480.26 443.07" stroke="#e03131" stroke-width="2" fill="none"></path></g><g transform="translate(581.4512768852044 51.71747225051968) rotate(0 -262.0458127062193 219.92858437121754)"><path d="M-475.83 418.47 C-478.13 423.46, -478.56 432.11, -480.26 443.07 M-475.83 418.47 C-475.96 423.99, -477.18 429.12, -480.26 443.07" stroke="#e03131" stroke-width="2" fill="none"></path></g></g><mask id="mask-J4LZr6EGRqOALi5x4KoR7"><rect x="0" y="0" fill="#fff" width="1189.318131238649" height="597.4016197173966"></rect><rect x="80.09939180995889" y="34.909964070517844" fill="#000" width="276.5666809082031" height="35" opacity="1"></rect></mask><g transform="translate(80.09939180995889 34.909964070517844) rotate(0 239.3060723690262 236.73609255121937)"><text x="138.28334045410156" y="0" font-family="Virgil, Segoe UI Emoji" font-size="28px" fill="#e03131" text-anchor="middle" style="white-space: pre;" direction="ltr" dominant-baseline="text-before-edge">TransactionRequest</text></g><g stroke-linecap="round" transform="translate(106.35117549266192 486.69615173339866) rotate(0 65.5 48)"><path d="M24 0 C54.59 0.2, 82.36 1.68, 107 0 M24 0 C48.66 1.4, 72.84 0.47, 107 0 M107 0 C124.01 1.09, 129.63 7.86, 131 24 M107 0 C122.35 1.39, 130.92 6.14, 131 24 M131 24 C130.49 36.67, 130.34 50.7, 131 72 M131 24 C130.07 40.09, 131.49 56.45, 131 72 M131 72 C132.18 86.58, 122.5 95.54, 107 96 M131 72 C131.73 87.52, 123.97 94.15, 107 96 M107 96 C91.16 95.97, 72.77 95.93, 24 96 M107 96 C84.73 96.7, 63.68 95.79, 24 96 M24 96 C6.06 97.82, -1.99 88.38, 0 72 M24 96 C8.44 98.22, 1.06 87.89, 0 72 M0 72 C-2.02 60.88, 0.32 53.69, 0 24 M0 72 C1.2 54.8, 0.02 38.86, 0 24 M0 24 C-1.36 9.79, 6.04 -1.07, 24 0 M0 24 C-2.22 8.91, 7.54 -0.14, 24 0" stroke="#1e1e1e" stroke-width="2" fill="none"></path></g><g transform="translate(129.0678426679549 517.1961517333987) rotate(0 42.78333282470703 17.5)"><text x="42.78333282470703" y="0" font-family="Virgil, Segoe UI Emoji" font-size="28px" fill="#1e1e1e" text-anchor="middle" style="white-space: pre;" direction="ltr" dominant-baseline="text-before-edge">worker</text></g><g mask="url(#mask-0AejziPRK2jqS5Xd7JObG)" stroke-linecap="round"><g transform="translate(244.07757430747006 556.0662705307884) rotate(0 246.49312283256927 24.680063044867666)"><path d="M0.15 0.98 C22.76 3.7, 90.36 21.47, 135.48 17.44 C180.59 13.42, 228.27 -25.69, 270.83 -23.18 C313.4 -20.68, 353.83 16.2, 390.86 32.48 C427.88 48.76, 476.07 67.69, 492.99 74.52 M-1.23 0.44 C21.32 3.86, 89.85 23.09, 135.07 18.86 C180.3 14.63, 227.5 -26.9, 270.11 -24.97 C312.72 -23.04, 353.82 13.71, 390.72 30.44 C427.62 47.16, 474.39 68.41, 491.52 75.39" stroke="#1e1e1e" stroke-width="2" fill="none"></path></g><g transform="translate(244.07757430747006 556.0662705307884) rotate(0 246.49312283256927 24.680063044867666)"><path d="M466.57 73.95 C475.33 76.05, 480.45 74.88, 491.52 75.39 M466.57 73.95 C476.26 75.07, 485.47 74.72, 491.52 75.39" stroke="#1e1e1e" stroke-width="2" fill="none"></path></g><g transform="translate(244.07757430747006 556.0662705307884) rotate(0 246.49312283256927 24.680063044867666)"><path d="M473.33 58.24 C480.31 64.83, 483.49 68.15, 491.52 75.39 M473.33 58.24 C480.3 65.52, 486.88 71.28, 491.52 75.39" stroke="#1e1e1e" stroke-width="2" fill="none"></path></g></g><mask id="mask-0AejziPRK2jqS5Xd7JObG"><rect x="0" y="0" fill="#fff" width="837.0638199726086" height="753.9174796162127"></rect><rect x="376.959684435951" y="514.320729032944" fill="#000" width="275.73333740234375" height="35" opacity="1"></rect></mask><g transform="translate(376.959684435951 514.320729032944) rotate(0 112.99752670202872 66.92360848245698)"><text x="137.86666870117188" y="0" font-family="Virgil, Segoe UI Emoji" font-size="28px" fill="#1e1e1e" text-anchor="middle" style="white-space: pre;" direction="ltr" dominant-baseline="text-before-edge">ExecuteTransaction</text></g><g stroke-linecap="round" transform="translate(753.9566755301371 590.9480720320837) rotate(0 90.5 37.5)"><path d="M18.75 0 C58.96 0.58, 101.51 -1.22, 162.25 0 M18.75 0 C55.73 1.51, 91.52 1.06, 162.25 0 M162.25 0 C173.22 -2, 179.13 7.78, 181 18.75 M162.25 0 C174.44 -1.23, 180.18 6.78, 181 18.75 M181 18.75 C179.91 28.99, 180.74 37.74, 181 56.25 M181 18.75 C180.04 26.88, 180.57 34.19, 181 56.25 M181 56.25 C180.32 68.56, 173.38 76.31, 162.25 75 M181 56.25 C182.44 66.76, 173.36 75.67, 162.25 75 M162.25 75 C105.85 76.41, 49.43 77.1, 18.75 75 M162.25 75 C105.67 75.32, 48.32 75.64, 18.75 75 M18.75 75 C5.12 75.73, 1.75 67.64, 0 56.25 M18.75 75 C7.69 75.66, -1.99 69.44, 0 56.25 M0 56.25 C-1.56 45.81, -1.44 33.52, 0 18.75 M0 56.25 C0.45 45.29, -0.41 36.42, 0 18.75 M0 18.75 C-0.3 4.53, 6.54 1.05, 18.75 0 M0 18.75 C-0.77 4.27, 4.72 1.22, 18.75 0" stroke="#1e1e1e" stroke-width="2" fill="none"></path></g><g transform="translate(782.8400106436625 610.9480720320837) rotate(0 61.61666488647461 17.5)"><text x="61.61666488647461" y="0" font-family="Virgil, Segoe UI Emoji" font-size="28px" fill="#1e1e1e" text-anchor="middle" style="white-space: pre;" direction="ltr" dominant-baseline="text-before-edge">Executor</text></g><g mask="url(#mask-9_z5wMmo-8pRLKLNfQwe0)" stroke-linecap="round"><g transform="translate(799.5463151211638 582.0694099227087) rotate(0 98.48583981302772 -97.12004561712394)"><path d="M-0.59 1.13 C11.42 -20.5, 38.83 -98.44, 71.81 -130.87 C104.79 -163.3, 176.3 -182.85, 197.3 -193.46 M1.29 0.68 C13.71 -20.71, 41.49 -96.97, 74.06 -129.65 C106.63 -162.33, 175.97 -184.74, 196.7 -195.4" stroke="#1e1e1e" stroke-width="2" fill="none"></path></g><g transform="translate(799.5463151211638 582.0694099227087) rotate(0 98.48583981302772 -97.12004561712394)"><path d="M178.52 -178.23 C185.58 -184.34, 187.7 -187.07, 196.7 -195.4 M178.52 -178.23 C184.51 -184.25, 191.11 -191.61, 196.7 -195.4" stroke="#1e1e1e" stroke-width="2" fill="none"></path></g><g transform="translate(799.5463151211638 582.0694099227087) rotate(0 98.48583981302772 -97.12004561712394)"><path d="M171.75 -193.93 C180.53 -195.67, 184.52 -194.07, 196.7 -195.4 M171.75 -193.93 C180.31 -194.2, 189.38 -195.83, 196.7 -195.4" stroke="#1e1e1e" stroke-width="2" fill="none"></path></g></g><mask id="mask-9_z5wMmo-8pRLKLNfQwe0"><rect x="0" y="0" fill="#fff" width="1096.5179947472193" height="876.3095011569566"></rect><rect x="757.5325030812924" y="434.30306498209643" fill="#000" width="229.39999389648438" height="35" opacity="1"></rect></mask><g transform="translate(757.5325030812924 434.30306498209654) rotate(0 140.36590189439892 50.635118677785954)"><text x="114.69999694824219" y="0" font-family="Virgil, Segoe UI Emoji" font-size="28px" fill="#1e1e1e" text-anchor="middle" style="white-space: pre;" direction="ltr" dominant-baseline="text-before-edge">KVSReadRequest</text></g><g stroke-opacity="0.5" fill-opacity="0.5" transform="translate(773.3066740042582 645.9480720320839) rotate(0 71.43333435058594 10)"><text x="0" y="0" font-family="Virgil, Segoe UI Emoji" font-size="16px" fill="#1e1e1e" text-anchor="start" style="white-space: pre;" direction="ltr" dominant-baseline="text-before-edge">executor_function</text></g><g stroke-linecap="round" transform="translate(1000.5179947472193 320.0000254313153) rotate(0 91.5 41.00000000000006)"><path d="M20.5 0 C49.67 0.24, 79.22 0.76, 162.5 0 M20.5 0 C74.14 -1.75, 126.78 -1.27, 162.5 0 M162.5 0 C175.49 0.09, 182.12 7.03, 183 20.5 M162.5 0 C176.8 1.78, 181.57 5.69, 183 20.5 M183 20.5 C181.28 32.31, 184.9 42.54, 183 61.5 M183 20.5 C182.81 31.25, 182.87 40.28, 183 61.5 M183 61.5 C183.81 76.76, 175.15 82.25, 162.5 82 M183 61.5 C182.96 77.31, 177.48 83.42, 162.5 82 M162.5 82 C112.88 79.44, 62.03 82.33, 20.5 82 M162.5 82 C108.02 80.58, 50.72 80.92, 20.5 82 M20.5 82 C5.8 80.55, -1.05 74.09, 0 61.5 M20.5 82 C5 81.83, 0.8 74.47, 0 61.5 M0 61.5 C0.9 51.07, 0.02 37.41, 0 20.5 M0 61.5 C0.09 52.19, 0.16 44.15, 0 20.5 M0 20.5 C0.96 5.39, 8.42 -1.16, 20.5 0 M0 20.5 C0.5 6.4, 7.44 -0.55, 20.5 0" stroke="#1e1e1e" stroke-width="2" fill="none"></path></g><g transform="translate(1054.1846626854517 343.5000254313153) rotate(0 37.83333206176758 17.5)"><text x="37.83333206176758" y="0" font-family="Virgil, Segoe UI Emoji" font-size="28px" fill="#1e1e1e" text-anchor="middle" style="white-space: pre;" direction="ltr" dominant-baseline="text-before-edge">shard</text></g><g mask="url(#mask-a_WYz8keuAFC1gFMwe6jH)" stroke-linecap="round"><g transform="translate(1024.6415909386255 403.22646566411527) rotate(0 -63.039964865370166 93.11080318398422)"><path d="M-0.63 -1.17 C-0.76 12.61, 20.59 51.92, -0.12 83.33 C-20.84 114.73, -104.02 170.13, -124.91 187.26 M1.24 0.83 C0.88 14.72, 19.92 53.86, -1.13 84.63 C-22.18 115.4, -104.44 168.37, -125.06 185.47" stroke="#1e1e1e" stroke-width="2" fill="none"></path></g><g transform="translate(1024.6415909386255 403.22646566411527) rotate(0 -63.039964865370166 93.11080318398422)"><path d="M-111.23 164.65 C-118.01 171.79, -121.73 181.37, -125.06 185.47 M-111.23 164.65 C-116.91 172.31, -121.75 180.88, -125.06 185.47" stroke="#1e1e1e" stroke-width="2" fill="none"></path></g><g transform="translate(1024.6415909386255 403.22646566411527) rotate(0 -63.039964865370166 93.11080318398422)"><path d="M-101.08 178.41 C-111.55 180.6, -118.89 185.26, -125.06 185.47 M-101.08 178.41 C-110.76 180.75, -119.52 183.99, -125.06 185.47" stroke="#1e1e1e" stroke-width="2" fill="none"></path></g></g><mask id="mask-a_WYz8keuAFC1gFMwe6jH"><rect x="0" y="0" fill="#fff" width="1250.7215206693659" height="689.4480720320838"></rect><rect x="965.8582581139185" y="469.5000254313154" fill="#000" width="117.56666564941406" height="35" opacity="1"></rect></mask><g transform="translate(965.8582581139185 469.5000254313153) rotate(0 0.7136791143982464 26.772091311467534)"><text x="58.78333282470703" y="0" font-family="Virgil, Segoe UI Emoji" font-size="28px" fill="#1e1e1e" text-anchor="middle" style="white-space: pre;" direction="ltr" dominant-baseline="text-before-edge">KVSRead</text></g><g mask="url(#mask-tATtAS0G_-dUkZ4wzCi1z)" stroke-linecap="round"><g transform="translate(1143.826726677923 405.7126510961118) rotate(0 -84.80718262871574 98.66643686418172)"><path d="M0.13 0.73 C5.87 25, 68.52 111.55, 34.61 144.44 C0.7 177.33, -163.51 189.28, -203.31 198.06 M-1.26 0.06 C4.3 24.11, 67.39 110.07, 33.67 142.75 C-0.06 175.42, -164 186.88, -203.6 196.1" stroke="#1e1e1e" stroke-width="2" fill="none"></path></g><g transform="translate(1143.826726677923 405.7126510961118) rotate(0 -84.80718262871574 98.66643686418172)"><path d="M17.1 19.09 C13.11 13.3, 7.88 8.96, 0.13 0.73 M17.1 19.09 C10.7 12.14, 5.77 6.39, 0.13 0.73" stroke="#1e1e1e" stroke-width="2" fill="none"></path></g><g transform="translate(1143.826726677923 405.7126510961118) rotate(0 -84.80718262871574 98.66643686418172)"><path d="M1.33 25.7 C2.41 17.79, 2.18 11.35, 0.13 0.73 M1.33 25.7 C0.62 16.4, 1.37 8.26, 0.13 0.73" stroke="#1e1e1e" stroke-width="2" fill="none"></path></g></g><mask id="mask-tATtAS0G_-dUkZ4wzCi1z"><rect x="0" y="0" fill="#fff" width="1482.6427977143956" height="703.0455248244753"></rect><rect x="1118.9942452168575" y="531.8294250055496" fill="#000" width="118.86666870117188" height="35" opacity="1"></rect></mask><g transform="translate(1118.9942452168575 531.8294250055496) rotate(0 -54.660367424775586 -27.05424131919449)"><text x="59.43333435058594" y="0" font-family="Virgil, Segoe UI Emoji" font-size="28px" fill="#1e1e1e" text-anchor="middle" style="white-space: pre;" direction="ltr" dominant-baseline="text-before-edge">KVSWrite</text></g><g stroke-linecap="round"><g transform="translate(1092.9479097342887 402.247166134674) rotate(0 -1.1180682953677206 0.019430806856121308)"><path d="M0.31 -0.35 C-0.08 -0.41, -1.73 -0.27, -2.17 -0.25" stroke="#1e1e1e" stroke-width="2.5" fill="none" stroke-dasharray="8 10"></path></g><g transform="translate(1092.9479097342887 402.247166134674) rotate(0 -1.1180682953677206 0.019430806856121308)"><path d="M-1.52 -0.32 L-1.5 -0.3 L-1.38 -0.09 L-2.01 0.01" stroke="none" stroke-width="0" fill="#1e1e1e" fill-rule="evenodd"></path><path d="M-2.17 -0.25 C-1.87 -0.43, -1.53 -0.63, -1.19 -0.78 M-1.19 -0.78 C-1.2 -0.56, -1.13 -0.37, -1.13 0.16 M-1.13 0.16 C-1.49 0.04, -1.92 -0.12, -2.17 -0.25 M-2.17 -0.25 C-2.17 -0.25, -2.17 -0.25, -2.17 -0.25" stroke="#1e1e1e" stroke-width="2.5" fill="none"></path></g></g><mask></mask><g mask="url(#mask-DaGzygF_WXxRw2-Pd4poP)" stroke-linecap="round"><g transform="translate(209.1893129273044 472.7074843836449) rotate(0 180.6340788310515 -188.8852581211865)"><path d="M0.73 0.7 C34.48 -47.38, 142.21 -226.5, 202.28 -289.57 C262.35 -352.64, 334.46 -363.03, 361.16 -377.69 M-0.34 0.02 C33.3 -48.3, 141.36 -228.53, 201.47 -291.26 C261.59 -353.98, 333.97 -362.15, 360.33 -376.33" stroke="#e03131" stroke-width="2" fill="none"></path></g><g transform="translate(209.1893129273044 472.7074843836449) rotate(0 180.6340788310515 -188.8852581211865)"><path d="M341.26 -360.17 C347.92 -364.36, 353.48 -369.54, 360.33 -376.33 M341.26 -360.17 C346.75 -364.28, 352.41 -371.04, 360.33 -376.33" stroke="#e03131" stroke-width="2" fill="none"></path></g><g transform="translate(209.1893129273044 472.7074843836449) rotate(0 180.6340788310515 -188.8852581211865)"><path d="M335.33 -376.21 C343.51 -375.94, 350.73 -376.62, 360.33 -376.33 M335.33 -376.21 C342.79 -375.42, 350.27 -377.25, 360.33 -376.33" stroke="#e03131" stroke-width="2" fill="none"></path></g></g><mask id="mask-DaGzygF_WXxRw2-Pd4poP"><rect x="0" y="0" fill="#fff" width="670.4574705894074" height="950.4780006260179"></rect><rect x="305.7921167488305" y="164.8100803251857" fill="#000" width="210.8000030517578" height="35" opacity="1"></rect></mask><g transform="translate(305.7921167488305 164.81008032518594) rotate(0 83.80390536684854 119.40121445994941)"><text x="105.4000015258789" y="0" font-family="Virgil, Segoe UI Emoji" font-size="28px" fill="#e03131" text-anchor="middle" style="white-space: pre;" direction="ltr" dominant-baseline="text-before-edge">TransactionAck</text></g><g mask="url(#mask-8xqlJ_pACxxjtE2tpuIRW)" stroke-linecap="round"><g transform="translate(746.0724986642163 645.2282273910673) rotate(0 -263.68456917237654 -26.746561177403123)"><path d="M0.95 -0.41 C-44.66 -0.77, -184.9 7.51, -272.92 -1.34 C-360.95 -10.2, -484.68 -45.04, -527.21 -53.55 M-0.01 -1.68 C-45.29 -2.42, -182.54 5.45, -270.52 -2.99 C-358.5 -11.42, -484.94 -43.69, -527.88 -52.26" stroke="#1e1e1e" stroke-width="2" fill="none"></path></g><g transform="translate(746.0724986642163 645.2282273910673) rotate(0 -263.68456917237654 -26.746561177403123)"><path d="M-503.1 -55.53 C-512.76 -55.13, -519.53 -52.69, -527.88 -52.26 M-503.1 -55.53 C-509.59 -53.67, -517.87 -53.98, -527.88 -52.26" stroke="#1e1e1e" stroke-width="2" fill="none"></path></g><g transform="translate(746.0724986642163 645.2282273910673) rotate(0 -263.68456917237654 -26.746561177403123)"><path d="M-506.8 -38.83 C-515.22 -44.52, -520.65 -48.13, -527.88 -52.26 M-506.8 -38.83 C-512.1 -41.94, -519.29 -47.17, -527.88 -52.26" stroke="#1e1e1e" stroke-width="2" fill="none"></path></g></g><mask id="mask-8xqlJ_pACxxjtE2tpuIRW"><rect x="0" y="0" fill="#fff" width="1373.4416370089693" height="798.7213497458736"></rect><rect x="361.2869504079604" y="625.4675501627491" fill="#000" width="224.89999389648438" height="35" opacity="1"></rect></mask><g transform="translate(361.2869504079606 625.4675501627491) rotate(0 121.31914274063456 -5.633272857243128)"><text x="112.44999694824219" y="0" font-family="Virgil, Segoe UI Emoji" font-size="28px" fill="#1e1e1e" text-anchor="middle" style="white-space: pre;" direction="ltr" dominant-baseline="text-before-edge">ExecutorFinished</text></g><g mask="url(#mask-XnnelNxSTyjy2gPlX0aXl)" stroke-linecap="round"><g transform="translate(937.075382169583 646.0808086656546) rotate(0 100.84455933572895 -202.66803480447936)"><path d="M-0.39 -0.12 C66.71 28.24, 347.68 261.83, 401.75 171.4 C455.82 80.97, 407.05 -423.72, 324.04 -542.69 C241.03 -661.65, -8.92 -536.62, -96.31 -542.4 C-183.7 -548.18, -183 -571.67, -200.33 -577.38 M1.61 -1.23 C68.57 27.26, 346.93 259.47, 400.51 169.45 C454.09 79.42, 405.77 -422.95, 323.08 -541.38 C240.4 -659.81, -8.15 -535.14, -95.61 -541.16 C-183.06 -547.18, -183.86 -571.39, -201.65 -577.5" stroke="#e03131" stroke-width="2" fill="none"></path></g><g transform="translate(937.075382169583 646.0808086656546) rotate(0 100.84455933572895 -202.66803480447936)"><path d="M-177.34 -571.67 C-183.26 -574.02, -188.17 -575.05, -201.65 -577.5 M-177.34 -571.67 C-184.4 -574.16, -191.61 -575.31, -201.65 -577.5" stroke="#e03131" stroke-width="2" fill="none"></path></g><g transform="translate(937.075382169583 646.0808086656546) rotate(0 100.84455933572895 -202.66803480447936)"><path d="M-186.77 -557.41 C-190.64 -563.04, -193.35 -567.39, -201.65 -577.5 M-186.77 -557.41 C-191.12 -564.18, -195.52 -569.58, -201.65 -577.5" stroke="#e03131" stroke-width="2" fill="none"></path></g></g><mask id="mask-XnnelNxSTyjy2gPlX0aXl"><rect x="0" y="0" fill="#fff" width="1639.9787799863643" height="1493.5639267127972"></rect><rect x="1140.147612568108" y="85.91356953839204" fill="#000" width="242.63333129882812" height="35" opacity="1"></rect></mask><g transform="translate(1140.147612568108 85.91356953839227) rotate(0 -91.63966009380579 359.0974369710098)"><text x="121.31666564941406" y="0" font-family="Virgil, Segoe UI Emoji" font-size="28px" fill="#e03131" text-anchor="middle" style="white-space: pre;" direction="ltr" dominant-baseline="text-before-edge">ExecutionSummary</text></g><g mask="url(#mask-Vsb-YmgmIT99dWyWT3ajZ)" stroke-linecap="round"><g transform="translate(238.50583495271644 487.55352903609287) rotate(0 378.6534220377604 -106.63455352885444)"><path d="M0.07 0.56 C42.48 -34.66, 127.68 -185.63, 253.82 -212.38 C379.95 -239.14, 672.86 -168.92, 756.88 -159.99 M-1.35 -0.2 C40.95 -35.65, 126.68 -187.53, 252.89 -214.04 C379.1 -240.55, 671.61 -168.66, 755.89 -159.27" stroke="#1e1e1e" stroke-width="2" fill="none"></path></g><g transform="translate(238.50583495271644 487.55352903609287) rotate(0 378.6534220377604 -106.63455352885444)"><path d="M731.29 -154.82 C738.35 -155.88, 744.99 -157.74, 755.89 -159.27 M731.29 -154.82 C735.95 -154.83, 742.05 -155.84, 755.89 -159.27" stroke="#1e1e1e" stroke-width="2" fill="none"></path></g><g transform="translate(238.50583495271644 487.55352903609287) rotate(0 378.6534220377604 -106.63455352885444)"><path d="M734.19 -171.68 C740.38 -168.56, 746.3 -166.25, 755.89 -159.27 M734.19 -171.68 C738.35 -168.21, 743.85 -165.76, 755.89 -159.27" stroke="#1e1e1e" stroke-width="2" fill="none"></path></g></g><mask id="mask-Vsb-YmgmIT99dWyWT3ajZ"><rect x="0" y="0" fill="#fff" width="1095.8126790282372" height="800.8226360938017"></rect><rect x="395.62648434540097" y="256.784421978384" fill="#000" width="193.3333282470703" height="35" opacity="1"></rect></mask><g transform="translate(395.62648434540097 256.7844219783839) rotate(0 220.64385560359426 121.10888403682372)"><text x="96.66666412353516" y="0" font-family="Virgil, Segoe UI Emoji" font-size="28px" fill="#1e1e1e" text-anchor="middle" style="white-space: pre;" direction="ltr" dominant-baseline="text-before-edge">UpdateSeenAll</text></g><g mask="url(#mask-pwngFPWWxDmGIYF8faVNl)" stroke-linecap="round"><g transform="translate(997.0359295223129 353.05078322404006) rotate(0 -378.4392348780776 74.23270208185374)"><path d="M0.08 -0.56 C-78.51 0.71, -346.29 -17.37, -472.63 7.46 C-598.97 32.29, -710.49 124.81, -757.95 148.42 M-1.33 1.75 C-79.98 2.71, -347.8 -18.88, -473.51 5.78 C-599.23 30.44, -708.31 126.2, -755.61 149.71" stroke="#1e1e1e" stroke-width="2" fill="none"></path></g><g transform="translate(997.0359295223129 353.05078322404006) rotate(0 -378.4392348780776 74.23270208185374)"><path d="M-740.35 129.91 C-744.52 134.28, -745.38 136.43, -755.61 149.71 M-740.35 129.91 C-745.63 135.42, -749.59 141.25, -755.61 149.71" stroke="#1e1e1e" stroke-width="2" fill="none"></path></g><g transform="translate(997.0359295223129 353.05078322404006) rotate(0 -378.4392348780776 74.23270208185374)"><path d="M-731.2 144.35 C-737.26 145.7, -740.04 144.83, -755.61 149.71 M-731.2 144.35 C-739.12 145.63, -745.8 147.18, -755.61 149.71" stroke="#1e1e1e" stroke-width="2" fill="none"></path></g></g><mask id="mask-pwngFPWWxDmGIYF8faVNl"><rect x="0" y="0" fill="#fff" width="1853.9143992784682" height="601.5161873877476"></rect><rect x="413.4490258660926" y="342.1814692708224" fill="#000" width="221.6666717529297" height="35" opacity="1"></rect></mask><g transform="translate(413.44902586609237 342.1814692708224) rotate(0 204.6543973572468 82.68348047245229)"><text x="110.83333587646484" y="0" font-family="Virgil, Segoe UI Emoji" font-size="28px" fill="#1e1e1e" text-anchor="middle" style="white-space: pre;" direction="ltr" dominant-baseline="text-before-edge">KVSLockAcquired</text></g><g mask="url(#mask-F7C1LH-uLQ_Zt8osI86Pt)" stroke-linecap="round"><g transform="translate(997.8208544809795 367.9694259977516) rotate(0 -379.505100811852 73.48872885655294)"><path d="M0.69 0.15 C-75.24 11.72, -330.31 44.88, -456.8 69.49 C-583.29 94.1, -707.92 135.01, -758.24 147.8 M-0.41 -0.82 C-75.86 10.96, -328.19 46.62, -454.56 71.08 C-580.92 95.53, -707.97 133.25, -758.6 145.89" stroke="#1e1e1e" stroke-width="2" fill="none"></path></g><g transform="translate(997.8208544809795 367.9694259977516) rotate(0 -379.505100811852 73.48872885655294)"><path d="M-21.34 11.96 C-16.68 7.97, -12.35 8.37, 0.69 0.15 M-21.34 11.96 C-12.65 8.17, -5.4 3.76, 0.69 0.15" stroke="#1e1e1e" stroke-width="2" fill="none"></path></g><g transform="translate(997.8208544809795 367.9694259977516) rotate(0 -379.505100811852 73.48872885655294)"><path d="M-23.78 -4.97 C-18.63 -5.57, -13.81 -1.78, 0.69 0.15 M-23.78 -4.97 C-14.15 -2.5, -6 -0.67, 0.69 0.15" stroke="#1e1e1e" stroke-width="2" fill="none"></path></g></g><mask id="mask-F7C1LH-uLQ_Zt8osI86Pt"><rect x="0" y="0" fill="#fff" width="1856.8310561046835" height="614.9468837108575"></rect><rect x="439.0459202652405" y="419.86825655798" fill="#000" width="205.73333740234375" height="35" opacity="1"></rect></mask><g transform="translate(439.0459202652405 419.86825655798) rotate(0 179.8182629088924 21.590532136512934)"><text x="102.86666870117188" y="0" font-family="Virgil, Segoe UI Emoji" font-size="28px" fill="#1e1e1e" text-anchor="middle" style="white-space: pre;" direction="ltr" dominant-baseline="text-before-edge">KVSAcquireLock</text></g><g stroke-linecap="round" transform="translate(159.9072731358367 709.2217431196077) rotate(0 411.1052232763378 63.186437863166475)"><path d="M31.59 0 C216.7 -3.14, 401.51 -2.59, 790.62 0 M31.59 0 C220.04 0.47, 407.95 0.52, 790.62 0 M790.62 0 C809.77 -0.64, 820.77 10.95, 822.21 31.59 M790.62 0 C812.05 0.62, 822.38 10.66, 822.21 31.59 M822.21 31.59 C821 55.66, 821.3 81.87, 822.21 94.78 M822.21 31.59 C821.59 46.62, 822.56 58.99, 822.21 94.78 M822.21 94.78 C821.72 115.42, 813.12 125.91, 790.62 126.37 M822.21 94.78 C820.13 116.5, 811.52 126.25, 790.62 126.37 M790.62 126.37 C516.12 125.58, 241.05 125.25, 31.59 126.37 M790.62 126.37 C550.82 126.05, 310.75 125.97, 31.59 126.37 M31.59 126.37 C11.33 124.49, -1.55 114.56, 0 94.78 M31.59 126.37 C9.66 125.25, 2.1 117.9, 0 94.78 M0 94.78 C-0.43 77.3, -0.76 60.77, 0 31.59 M0 94.78 C-0.57 77.45, 0.33 60.1, 0 31.59 M0 31.59 C-0.25 9.58, 11.19 1.9, 31.59 0 M0 31.59 C-0.53 10.45, 9.23 -2.06, 31.59 0" stroke="#1e1e1e" stroke-width="4" fill="none"></path></g><g transform="translate(393.7458338145184 719.9081809827742) rotate(0 177.26666259765625 52.5)"><text x="177.26666259765625" y="0" font-family="Virgil, Segoe UI Emoji" font-size="28px" fill="#1e1e1e" text-anchor="middle" style="white-space: pre;" direction="ltr" dominant-baseline="text-before-edge">Execution</text><text x="177.26666259765625" y="35" font-family="Virgil, Segoe UI Emoji" font-size="28px" fill="#1e1e1e" text-anchor="middle" style="white-space: pre;" direction="ltr" dominant-baseline="text-before-edge">Supervisor</text><text x="177.26666259765625" y="70" font-family="Virgil, Segoe UI Emoji" font-size="28px" fill="#1e1e1e" text-anchor="middle" style="white-space: pre;" direction="ltr" dominant-baseline="text-before-edge">(at least one per worker)</text></g><g mask="url(#mask-WY-XKW84yHguQq83_2y8V)" stroke-linecap="round"><g transform="translate(141.93479719799234 583.4255473491373) rotate(0 -6.152028427201003 70.90311192825925)"><path d="M-0.42 0.28 C-5.59 13.04, -35.11 53.82, -31.85 77.23 C-28.59 100.64, 10.79 129.78, 19.14 140.74 M1.56 -0.63 C-3.73 11.71, -35.84 51.63, -33.03 75.32 C-30.23 99, 9.88 130.53, 18.39 141.49" stroke="#1e1e1e" stroke-width="2" fill="none"></path></g><g transform="translate(141.93479719799234 583.4255473491373) rotate(0 -6.152028427201003 70.90311192825925)"><path d="M-4.15 130.68 C1.55 132.52, 6.92 135.78, 18.39 141.49 M-4.15 130.68 C1.5 131.85, 4.39 134.99, 18.39 141.49" stroke="#1e1e1e" stroke-width="2" fill="none"></path></g><g transform="translate(141.93479719799234 583.4255473491373) rotate(0 -6.152028427201003 70.90311192825925)"><path d="M8.07 118.72 C11.03 123.26, 13.58 129.27, 18.39 141.49 M8.07 118.72 C11.06 122.54, 11.38 128.19, 18.39 141.49" stroke="#1e1e1e" stroke-width="2" fill="none"></path></g></g><mask id="mask-WY-XKW84yHguQq83_2y8V"><rect x="0" y="0" fill="#fff" width="292.46699428547345" height="825.2317712056557"></rect><rect x="10" y="642.772627984207" fill="#000" width="201.03334045410156" height="35" opacity="1"></rect></mask><g transform="translate(10 642.772627984207) rotate(0 124.90313653378121 11.086590056438354)"><text x="100.51667022705078" y="0" font-family="Virgil, Segoe UI Emoji" font-size="28px" fill="#1e1e1e" text-anchor="middle" style="white-space: pre;" direction="ltr" dominant-baseline="text-before-edge">spawnExecutor</text></g><g mask="url(#mask-ix_z1oZl9vF0X02DeexJM)" stroke-linecap="round"><g transform="translate(234.53424684521565 704.0033137596472) rotate(0 -24.488673743508002 -59.43976480911283)"><path d="M-1.09 -0.02 C-2.9 -11.16, -3.67 -47.89, -11.83 -67.87 C-20 -87.85, -43.71 -111.37, -50.05 -119.89 M0.54 -1.08 C-0.81 -12.47, -1.54 -49.89, -9.59 -69.56 C-17.63 -89.23, -40.96 -111.05, -47.72 -119.1" stroke="#1e1e1e" stroke-width="2" fill="none"></path></g><g transform="translate(234.53424684521565 704.0033137596472) rotate(0 -24.488673743508002 -59.43976480911283)"><path d="M-25.52 -107.6 C-30.34 -111.81, -33.82 -114.64, -47.72 -119.1 M-25.52 -107.6 C-29.35 -109.34, -35.87 -113.35, -47.72 -119.1" stroke="#1e1e1e" stroke-width="2" fill="none"></path></g><g transform="translate(234.53424684521565 704.0033137596472) rotate(0 -24.488673743508002 -59.43976480911283)"><path d="M-38.1 -96.02 C-40.06 -102.66, -40.77 -108.04, -47.72 -119.1 M-38.1 -96.02 C-39.13 -100.25, -42.94 -106.76, -47.72 -119.1" stroke="#1e1e1e" stroke-width="2" fill="none"></path></g></g><mask id="mask-ix_z1oZl9vF0X02DeexJM"><rect x="0" y="0" fill="#fff" width="383.51159433223165" height="922.882843377873"></rect><rect x="186.35108894411314" y="617.8210334598336" fill="#000" width="74.46666717529297" height="35" opacity="1"></rect></mask><g transform="translate(186.35108894411314 617.8210334598336) rotate(0 23.431550007518126 26.22675871824208)"><text x="37.233333587646484" y="0" font-family="Virgil, Segoe UI Emoji" font-size="28px" fill="#1e1e1e" text-anchor="middle" style="white-space: pre;" direction="ltr" dominant-baseline="text-before-edge">EPID</text></g><g stroke-opacity="0.5" fill-opacity="0.5" transform="translate(623.7922365818586 762.6702609639578) rotate(0 127.01722160218173 -44.44447835286485)" stroke="none"><path fill="#2f9e44" d="M -1.10,-5.89 Q -1.10,-5.89 3.15,-6.64 7.40,-7.39 10.22,-7.95 13.05,-8.50 15.22,-8.83 17.40,-9.16 20.82,-9.21 24.25,-9.27 27.05,-8.85 29.85,-8.42 32.73,-7.71 35.61,-7.00 38.61,-6.17 41.60,-5.34 44.36,-5.04 47.11,-4.74 54.48,-9.13 61.85,-13.53 66.05,-16.81 70.25,-20.09 72.92,-22.54 75.58,-24.98 78.28,-27.82 80.97,-30.65 85.55,-30.46 90.12,-30.27 97.80,-28.15 105.48,-26.03 111.99,-23.87 118.49,-21.72 122.82,-20.80 127.15,-19.89 129.46,-18.98 131.77,-18.08 131.92,-22.20 132.08,-26.33 134.37,-30.49 136.67,-34.65 137.32,-37.07 137.97,-39.49 140.17,-41.57 142.36,-43.65 148.13,-43.04 153.90,-42.43 161.07,-40.78 168.24,-39.13 171.86,-38.44 175.48,-37.76 179.35,-39.96 183.21,-42.17 189.45,-47.34 195.69,-52.52 199.33,-55.76 202.97,-59.00 205.65,-60.79 208.33,-62.58 211.54,-63.05 214.75,-63.53 218.58,-65.23 222.41,-66.93 224.17,-69.83 225.93,-72.73 232.82,-77.13 239.70,-81.53 242.08,-84.51 244.45,-87.48 246.69,-89.39 248.93,-91.29 249.94,-92.34 250.95,-93.38 251.46,-93.72 251.98,-94.05 252.57,-94.20 253.17,-94.35 253.78,-94.30 254.39,-94.25 254.95,-94.01 255.51,-93.77 255.97,-93.36 256.43,-92.96 256.73,-92.42 257.03,-91.89 257.15,-91.29 257.27,-90.69 257.19,-90.08 257.11,-89.48 256.84,-88.93 256.57,-88.38 256.14,-87.94 255.70,-87.51 255.16,-87.23 254.61,-86.96 254.00,-86.88 253.40,-86.79 252.79,-86.90 252.19,-87.02 251.66,-87.32 251.12,-87.62 250.71,-88.07 250.30,-88.53 250.06,-89.09 249.82,-89.65 249.76,-90.26 249.71,-90.87 249.86,-91.47 250.00,-92.06 250.33,-92.58 250.66,-93.09 251.14,-93.48 251.61,-93.87 252.19,-94.08 252.76,-94.29 253.37,-94.31 253.99,-94.33 254.57,-94.15 255.16,-93.97 255.66,-93.62 256.15,-93.26 256.51,-92.76 256.87,-92.27 257.05,-91.68 257.23,-91.10 257.22,-90.49 257.21,-89.87 257.00,-89.30 256.79,-88.72 256.40,-88.24 256.02,-87.77 256.02,-87.77 256.02,-87.77 252.73,-85.61 249.44,-83.45 246.47,-79.64 243.49,-75.83 237.77,-72.20 232.06,-68.58 229.52,-64.49 226.99,-60.40 223.11,-58.19 219.22,-55.98 215.25,-56.36 211.28,-56.74 209.07,-55.71 206.85,-54.69 203.20,-51.30 199.55,-47.91 192.85,-42.25 186.15,-36.60 180.70,-33.94 175.24,-31.29 171.04,-31.87 166.84,-32.44 159.81,-33.77 152.78,-35.10 148.77,-35.86 144.76,-36.62 143.70,-33.97 142.64,-31.32 140.91,-28.31 139.18,-25.30 138.35,-19.93 137.52,-14.56 135.08,-13.16 132.63,-11.77 129.29,-12.58 125.94,-13.39 121.19,-14.15 116.43,-14.91 110.01,-16.69 103.60,-18.47 96.37,-20.05 89.14,-21.63 86.49,-22.23 83.84,-22.83 82.36,-21.11 80.88,-19.40 78.12,-16.73 75.35,-14.07 71.01,-10.10 66.66,-6.12 61.39,-2.40 56.13,1.30 53.45,3.15 50.78,5.00 48.32,4.79 45.87,4.57 42.50,4.19 39.14,3.80 36.19,3.02 33.25,2.24 28.83,1.01 24.41,-0.20 19.41,-0.06 14.42,0.06 11.89,0.37 9.35,0.67 5.22,1.95 1.10,3.22 0.53,3.29 -0.02,3.35 -0.58,3.28 -1.14,3.21 -1.67,3.01 -2.20,2.80 -2.66,2.48 -3.12,2.16 -3.50,1.73 -3.87,1.31 -4.13,0.80 -4.39,0.30 -4.53,-0.24 -4.66,-0.79 -4.66,-1.35 -4.65,-1.92 -4.51,-2.47 -4.38,-3.02 -4.11,-3.52 -3.85,-4.02 -3.47,-4.44 -3.09,-4.86 -2.62,-5.18 -2.16,-5.50 -1.63,-5.70 -1.10,-5.90 -1.10,-5.90 L -1.10,-5.89 Z"></path></g></svg>
